STARTFONT 2.1
COMMENT Font converted from OTF to BDF.
FONT -FreeType-TeXGyreHeros-Bold-R-Normal--29-220-96-96-P-148-ISO10646-1
SIZE 22 96 96
FONTBOUNDINGBOX 55 42 -15 -9
STARTPROPERTIES 19
POINT_SIZE 220
PIXEL_SIZE 29
RESOLUTION_X 96
RESOLUTION_Y 96
FONT_ASCENT 32
FONT_DESCENT 8
AVERAGE_WIDTH 148
SPACING "P"
FOUNDRY "FreeType"
FAMILY_NAME "TeXGyreHeros"
CHARSET_REGISTRY "ISO10646"
CHARSET_ENCODING "1"
WEIGHT_NAME "Bold"
SLANT "R"
SETWIDTH_NAME "Normal"
COPYRIGHT "Copyright 2006, 2009 for TeX Gyre extensions by B. Jackowski and J.M. Nowacki (on behalf of TeX users groups). This work is released under the GUST Font License --  see http://tug.org/fonts/licenses/GUST-FONT-LICENSE.txt for details."
_TTF_PSNAME "TeXGyreHeros-Bold"
_OTF_FONTFILE "texgyreheros-bold.otf"
_GBDFED_INFO "Edited with gbdfed 1.6."
ENDPROPERTIES
CHARS 1053
STARTCHAR char32
ENCODING 32
SWIDTH 24 0
DWIDTH 8 0
BBX 0 0 0 0
BITMAP
ENDCHAR
STARTCHAR char33
ENCODING 33
SWIDTH 30 0
DWIDTH 10 0
BBX 4 21 3 0
BITMAP
F0
F0
F0
F0
F0
F0
F0
F0
F0
F0
E0
E0
60
60
60
00
00
F0
F0
F0
F0
ENDCHAR
STARTCHAR char34
ENCODING 34
SWIDTH 11 0
DWIDTH 14 0
BBX 11 8 1 14
BITMAP
F9E0
F9E0
F9E0
F9E0
70E0
70E0
70E0
60C0
ENDCHAR
STARTCHAR char35
ENCODING 35
SWIDTH 17 0
DWIDTH 16 0
BBX 16 21 0 -1
BITMAP
071C
071C
071C
071C
0F1C
7FFF
7FFF
7FFF
0E38
1E38
1C70
1C70
FFFE
FFFE
FFFE
38E0
38E0
38E0
38E0
78E0
71C0
ENDCHAR
STARTCHAR char36
ENCODING 36
SWIDTH 17 0
DWIDTH 16 0
BBX 14 26 1 -4
BITMAP
0300
0300
1FE0
3FF8
7FF8
F33C
F33C
F33C
F300
FB00
7F00
3FE0
1FF8
03FC
037C
033C
E33C
F31C
F33C
FB7C
7FF8
3FF0
0FC0
0300
0300
0300
ENDCHAR
STARTCHAR char37
ENCODING 37
SWIDTH 17 0
DWIDTH 26 0
BBX 24 21 1 0
BITMAP
1E00E0
7F81C0
FFC1C0
E1C380
E1C380
E0C700
E1C700
F3CE00
7FDE00
7F9C00
1E3878
0039FE
0073FE
00738F
00E387
00E307
01C387
03C38F
0383FE
0781FE
070078
ENDCHAR
STARTCHAR char38
ENCODING 38
SWIDTH 2 0
DWIDTH 21 0
BBX 18 21 2 0
BITMAP
07C000
1FE000
3FF000
3CF000
3C7800
3C7000
3FF000
1FF000
1FE000
0F8000
3FC780
F9E780
F1E780
F0F700
F07F00
F03F00
F07E00
FDFE00
7FFF00
3FE780
1F83C0
ENDCHAR
STARTCHAR char39
ENCODING 39
SWIDTH 21 0
DWIDTH 7 0
BBX 5 8 1 14
BITMAP
F8
F8
F8
F8
70
70
70
60
ENDCHAR
STARTCHAR char40
ENCODING 40
SWIDTH 30 0
DWIDTH 10 0
BBX 8 28 1 -6
BITMAP
07
0E
1E
1C
3C
38
38
78
70
70
F0
F0
F0
F0
F0
F0
F0
F0
70
70
78
38
38
3C
1C
1E
0E
07
ENDCHAR
STARTCHAR char41
ENCODING 41
SWIDTH 30 0
DWIDTH 10 0
BBX 7 28 1 -6
BITMAP
E0
E0
70
78
38
3C
3C
1C
1E
1E
1E
0E
0E
0E
0E
0E
0E
1E
1E
1E
1C
3C
3C
38
78
70
F0
E0
ENDCHAR
STARTCHAR char42
ENCODING 42
SWIDTH 2 0
DWIDTH 11 0
BBX 9 10 1 12
BITMAP
0C00
0C00
0C00
EF80
FF80
3E00
3E00
3600
7300
2200
ENDCHAR
STARTCHAR char43
ENCODING 43
SWIDTH 21 0
DWIDTH 17 0
BBX 13 13 2 1
BITMAP
0700
0700
0700
0700
0700
FFF8
FFF8
FFF8
0700
0700
0700
0700
0700
ENDCHAR
STARTCHAR char44
ENCODING 44
SWIDTH 24 0
DWIDTH 8 0
BBX 4 9 2 -5
BITMAP
F0
F0
F0
F0
30
30
30
E0
C0
ENDCHAR
STARTCHAR char45
ENCODING 45
SWIDTH 30 0
DWIDTH 10 0
BBX 8 4 1 6
BITMAP
FF
FF
FF
FF
ENDCHAR
STARTCHAR char46
ENCODING 46
SWIDTH 24 0
DWIDTH 8 0
BBX 4 4 2 0
BITMAP
F0
F0
F0
F0
ENDCHAR
STARTCHAR char47
ENCODING 47
SWIDTH 24 0
DWIDTH 8 0
BBX 8 21 0 0
BITMAP
03
07
07
07
0E
0E
0E
0C
1C
1C
1C
38
38
38
30
70
70
60
E0
E0
E0
ENDCHAR
STARTCHAR char48
ENCODING 48
SWIDTH 17 0
DWIDTH 16 0
BBX 14 21 1 0
BITMAP
0FC0
3FF0
3FF0
7CF8
7878
F03C
F03C
F03C
F03C
F03C
F03C
F03C
F03C
F03C
F03C
F03C
7878
7FF8
3FF0
3FF0
0FC0
ENDCHAR
STARTCHAR char49
ENCODING 49
SWIDTH 17 0
DWIDTH 16 0
BBX 9 21 2 0
BITMAP
0380
0380
0780
1F80
FF80
FF80
FF80
0780
0780
0780
0780
0780
0780
0780
0780
0780
0780
0780
0780
0780
0780
ENDCHAR
STARTCHAR char50
ENCODING 50
SWIDTH 17 0
DWIDTH 16 0
BBX 14 21 1 0
BITMAP
0FC0
3FF0
7FF8
7CF8
F87C
F03C
F03C
F03C
003C
0078
00F8
01F0
07E0
0F80
1F00
3E00
7C00
FFFC
FFFC
FFFC
FFFC
ENDCHAR
STARTCHAR char51
ENCODING 51
SWIDTH 17 0
DWIDTH 16 0
BBX 14 21 1 0
BITMAP
0FC0
3FF0
7FF8
7CF8
F078
F078
F078
0078
00F0
07E0
07F0
07F8
007C
003C
F03C
F03C
F87C
7FF8
7FF8
3FF0
0FC0
ENDCHAR
STARTCHAR char52
ENCODING 52
SWIDTH 17 0
DWIDTH 16 0
BBX 14 21 1 0
BITMAP
01F0
03F0
03F0
07F0
07F0
0EF0
1EF0
1CF0
38F0
38F0
70F0
70F0
E0F0
FFFC
FFFC
FFFC
00F0
00F0
00F0
00F0
00F0
ENDCHAR
STARTCHAR char53
ENCODING 53
SWIDTH 17 0
DWIDTH 16 0
BBX 14 21 1 0
BITMAP
3FF8
3FF8
3FF8
3FF8
3800
7000
7000
77E0
7FF0
7FF8
787C
F03C
003C
003C
003C
F03C
F07C
FFF8
7FF8
3FF0
0FC0
ENDCHAR
STARTCHAR char54
ENCODING 54
SWIDTH 17 0
DWIDTH 16 0
BBX 14 21 1 0
BITMAP
07C0
1FF0
3FF8
7EF8
783C
7800
F000
F3E0
FFF0
FFF8
FCFC
F83C
F03C
F03C
F03C
F03C
787C
7FF8
3FF8
1FF0
0FC0
ENDCHAR
STARTCHAR char55
ENCODING 55
SWIDTH 17 0
DWIDTH 16 0
BBX 14 21 1 0
BITMAP
FFFC
FFFC
FFFC
FFFC
0078
0078
00F0
01E0
01E0
03C0
03C0
0780
0780
0F00
0F00
0F00
0F00
1E00
1E00
1E00
1E00
ENDCHAR
STARTCHAR char56
ENCODING 56
SWIDTH 17 0
DWIDTH 16 0
BBX 14 21 1 0
BITMAP
0FC0
3FF0
7FF8
7CF8
F03C
F03C
F03C
7878
7FF8
3FF0
3FF0
F878
F03C
F03C
F03C
F03C
F03C
FFFC
7FF8
3FF0
0FC0
ENDCHAR
STARTCHAR char57
ENCODING 57
SWIDTH 17 0
DWIDTH 16 0
BBX 14 21 1 0
BITMAP
0FC0
3FE0
7FF0
7CF8
F078
F03C
F03C
F03C
F03C
F07C
FDFC
7FFC
3FFC
1F3C
003C
0078
F078
FFF8
7FF0
3FE0
0F80
ENDCHAR
STARTCHAR char58
ENCODING 58
SWIDTH 30 0
DWIDTH 10 0
BBX 4 15 3 0
BITMAP
F0
F0
F0
F0
00
00
00
00
00
00
00
F0
F0
F0
F0
ENDCHAR
STARTCHAR char59
ENCODING 59
SWIDTH 30 0
DWIDTH 10 0
BBX 4 20 3 -5
BITMAP
F0
F0
F0
F0
00
00
00
00
00
00
00
F0
F0
F0
F0
30
30
70
E0
C0
ENDCHAR
STARTCHAR char60
ENCODING 60
SWIDTH 21 0
DWIDTH 17 0
BBX 11 21 3 -3
BITMAP
0020
0060
00E0
03E0
07C0
0F80
1E00
3C00
7800
F000
E000
F000
7800
3C00
1E00
0F80
07C0
03E0
00E0
0060
0020
ENDCHAR
STARTCHAR char61
ENCODING 61
SWIDTH 21 0
DWIDTH 17 0
BBX 13 9 2 3
BITMAP
FFF8
FFF8
FFF8
0000
0000
0000
FFF8
FFF8
FFF8
ENDCHAR
STARTCHAR char62
ENCODING 62
SWIDTH 21 0
DWIDTH 17 0
BBX 11 21 3 -3
BITMAP
8000
8000
E000
F000
F800
7C00
1E00
0F00
07C0
03E0
01E0
03E0
07C0
0F00
1E00
3C00
F800
F000
E000
8000
8000
ENDCHAR
STARTCHAR char63
ENCODING 63
SWIDTH 24 0
DWIDTH 18 0
BBX 14 22 2 0
BITMAP
0FC0
3FF0
7FF8
7FF8
F87C
F03C
F03C
F03C
003C
007C
00F8
01F0
03E0
0780
0780
0780
0000
0000
0780
0780
0780
0780
ENDCHAR
STARTCHAR char64
ENCODING 64
SWIDTH 26 0
DWIDTH 29 0
BBX 27 26 1 -4
BITMAP
001FC000
00FFF800
01FFFC00
07E07F00
0F800F80
1F000780
1C0603C0
3C3FF9C0
787FF9E0
70F1F1E0
70E0F0E0
F1E0F0E0
F1C0F0E0
E1C0E0E0
E1C1E1E0
F1C1E1C0
F1C1E3C0
71E3E780
78FFFF00
787EFE00
3C187800
1F000000
0FC03000
07FFF000
01FFF000
007FC000
ENDCHAR
STARTCHAR char65
ENCODING 65
SWIDTH 2 0
DWIDTH 21 0
BBX 19 22 1 0
BITMAP
01F000
01F800
03F800
03F800
03FC00
07FC00
07BC00
07BE00
0F9E00
0F1E00
0F1F00
1F0F00
1E0F00
1E0F80
3FFF80
3FFF80
3FFFC0
7FFFC0
7803C0
7803E0
F801E0
F001E0
ENDCHAR
STARTCHAR char66
ENCODING 66
SWIDTH 2 0
DWIDTH 21 0
BBX 18 22 2 0
BITMAP
FFF800
FFFE00
FFFF00
FFFF00
F80F80
F80F80
F80780
F80F80
F80F00
FFFE00
FFFC00
FFFF00
FFFF00
F80F80
F80780
F807C0
F80780
F80780
FFFF80
FFFF00
FFFE00
FFF800
ENDCHAR
STARTCHAR char67
ENCODING 67
SWIDTH 2 0
DWIDTH 21 0
BBX 19 22 1 0
BITMAP
01F800
07FF00
1FFF80
3FFFC0
3E07C0
7C03E0
7C03E0
7801E0
F80000
F80000
F80000
F80000
F80000
F80000
7801E0
7C01E0
7C03E0
3E07C0
3FFFC0
1FFF80
07FF00
01FC00
ENDCHAR
STARTCHAR char68
ENCODING 68
SWIDTH 2 0
DWIDTH 21 0
BBX 18 22 2 0
BITMAP
FFF000
FFFC00
FFFE00
FFFF00
F81F80
F80F80
F80780
F807C0
F807C0
F807C0
F803C0
F803C0
F807C0
F807C0
F807C0
F80780
F80F80
F81F80
FFFF00
FFFE00
FFFC00
FFF000
ENDCHAR
STARTCHAR char69
ENCODING 69
SWIDTH 30 0
DWIDTH 20 0
BBX 16 22 2 0
BITMAP
FFFF
FFFF
FFFF
FFFF
F800
F800
F800
F800
F800
FFFE
FFFE
FFFE
FFFE
F800
F800
F800
F800
F800
FFFF
FFFF
FFFF
FFFF
ENDCHAR
STARTCHAR char70
ENCODING 70
SWIDTH 24 0
DWIDTH 18 0
BBX 15 22 2 0
BITMAP
FFFE
FFFE
FFFE
FFFE
F800
F800
F800
F800
F800
FFFC
FFFC
FFFC
FFFC
F800
F800
F800
F800
F800
F800
F800
F800
F800
ENDCHAR
STARTCHAR char71
ENCODING 71
SWIDTH 8 0
DWIDTH 23 0
BBX 20 22 1 0
BITMAP
01FC00
07FF00
0FFFC0
1FFFC0
3F03E0
7C01E0
7C01F0
780000
F80000
F80000
F81FF0
F81FF0
F81FF0
F81FF0
7800F0
7C00F0
7E01F0
3F03F0
1FFFF0
0FFF70
07FE70
01F870
ENDCHAR
STARTCHAR char72
ENCODING 72
SWIDTH 2 0
DWIDTH 21 0
BBX 17 22 2 0
BITMAP
F00780
F00780
F00780
F00780
F00780
F00780
F00780
F00780
FFFF80
FFFF80
FFFF80
FFFF80
F00780
F00780
F00780
F00780
F00780
F00780
F00780
F00780
F00780
F00780
ENDCHAR
STARTCHAR char73
ENCODING 73
SWIDTH 24 0
DWIDTH 8 0
BBX 4 22 2 0
BITMAP
F0
F0
F0
F0
F0
F0
F0
F0
F0
F0
F0
F0
F0
F0
F0
F0
F0
F0
F0
F0
F0
F0
ENDCHAR
STARTCHAR char74
ENCODING 74
SWIDTH 17 0
DWIDTH 16 0
BBX 13 22 1 0
BITMAP
0078
0078
0078
0078
0078
0078
0078
0078
0078
0078
0078
0078
0078
0078
F078
F078
F078
F8F8
FFF8
7FF0
3FE0
1FC0
ENDCHAR
STARTCHAR char75
ENCODING 75
SWIDTH 2 0
DWIDTH 21 0
BBX 19 22 2 0
BITMAP
F80FC0
F80F80
F81F00
F83E00
F87C00
F8F800
F9F000
FBE000
FBC000
FFC000
FFC000
FFE000
FFF000
FCF800
F8F800
F87C00
F83E00
F83F00
F81F00
F80F80
F807C0
F807E0
ENDCHAR
STARTCHAR char76
ENCODING 76
SWIDTH 24 0
DWIDTH 18 0
BBX 15 22 2 0
BITMAP
F800
F800
F800
F800
F800
F800
F800
F800
F800
F800
F800
F800
F800
F800
F800
F800
F800
F800
FFFE
FFFE
FFFE
FFFE
ENDCHAR
STARTCHAR char77
ENCODING 77
SWIDTH 11 0
DWIDTH 24 0
BBX 21 22 2 0
BITMAP
FE03F8
FE03F8
FE03F8
FE07F8
FF07F8
FF07F8
F707F8
F707F8
F70FF8
F78EF8
F38EF8
F38EF8
F39EF8
F3DCF8
F3DCF8
F1DCF8
F1DCF8
F1FCF8
F1F8F8
F0F8F8
F0F8F8
F0F8F8
ENDCHAR
STARTCHAR char78
ENCODING 78
SWIDTH 2 0
DWIDTH 21 0
BBX 17 22 2 0
BITMAP
F80780
F80780
FC0780
FC0780
FE0780
FF0780
FF0780
F78780
F78780
F3C780
F3C780
F1E780
F0F780
F0F780
F07F80
F07F80
F03F80
F03F80
F01F80
F00F80
F00F80
F00780
ENDCHAR
STARTCHAR char79
ENCODING 79
SWIDTH 8 0
DWIDTH 23 0
BBX 21 22 1 0
BITMAP
01FC00
07FF00
0FFF80
1FFFC0
3F07E0
7C03E0
7C01F0
7800F0
F800F0
F800F8
F800F8
F800F8
F800F8
F800F8
7800F0
7C01F0
7C01F0
3F07E0
1FFFC0
0FFF80
07FF00
01FC00
ENDCHAR
STARTCHAR char80
ENCODING 80
SWIDTH 30 0
DWIDTH 20 0
BBX 17 22 2 0
BITMAP
FFF800
FFFE00
FFFE00
FFFF00
F81F00
F80F00
F80F80
F80F80
F80F00
F81F00
FFFF00
FFFE00
FFFC00
FFF800
F80000
F80000
F80000
F80000
F80000
F80000
F80000
F80000
ENDCHAR
STARTCHAR char81
ENCODING 81
SWIDTH 8 0
DWIDTH 23 0
BBX 21 23 1 -1
BITMAP
01FC00
07FF00
0FFF80
1FFFC0
3F07E0
7C01F0
7C01F0
7800F0
F800F8
F800F8
F800F8
F800F8
F800F8
F800F8
780CF0
7C1FF0
7C0FF0
3F07E0
1FFFE0
0FFFF0
07FFF8
01FC70
000020
ENDCHAR
STARTCHAR char82
ENCODING 82
SWIDTH 2 0
DWIDTH 21 0
BBX 18 22 2 0
BITMAP
FFFC00
FFFF00
FFFF80
FFFF80
F80F80
F807C0
F807C0
F80780
F80780
FFFF00
FFFF00
FFFC00
FFFF00
F80F00
F80F80
F80F80
F80F80
F80F80
F80F80
F80F80
F80780
F807C0
ENDCHAR
STARTCHAR char83
ENCODING 83
SWIDTH 30 0
DWIDTH 20 0
BBX 18 22 1 0
BITMAP
07F000
1FFC00
3FFE00
7FFF00
780F00
F80F80
F80780
F80000
7E0000
7FE000
3FFE00
0FFF00
00FF80
000F80
0007C0
F007C0
F80780
F80780
7FFF80
3FFF00
1FFE00
07F800
ENDCHAR
STARTCHAR char84
ENCODING 84
SWIDTH 24 0
DWIDTH 18 0
BBX 18 22 0 0
BITMAP
FFFFC0
FFFFC0
FFFFC0
FFFFC0
01E000
01E000
01E000
01E000
01E000
01E000
01E000
01E000
01E000
01E000
01E000
01E000
01E000
01E000
01E000
01E000
01E000
01E000
ENDCHAR
STARTCHAR char85
ENCODING 85
SWIDTH 2 0
DWIDTH 21 0
BBX 17 22 2 0
BITMAP
F80780
F80780
F80780
F80780
F80780
F80780
F80780
F80780
F80780
F80780
F80780
F80780
F80780
F80780
F80780
F80780
F80F80
7C1F80
7FFF00
3FFE00
1FFC00
07F000
ENDCHAR
STARTCHAR char86
ENCODING 86
SWIDTH 30 0
DWIDTH 20 0
BBX 18 22 1 0
BITMAP
F007C0
F80780
F80780
780780
780F00
7C0F00
3C0F00
3C1E00
3E1E00
1E1E00
1E1C00
1E3C00
0F3C00
0F3800
0F7800
07F800
07F000
07F000
03F000
03E000
03E000
01E000
ENDCHAR
STARTCHAR char87
ENCODING 87
SWIDTH 23 0
DWIDTH 28 0
BBX 26 22 1 0
BITMAP
F01E03C0
F03E07C0
F83F07C0
F83F0780
783F0780
783F0780
787F0F80
7C778F00
3C738F00
3C738F00
3C738F00
1CE39E00
1EE3DE00
1EE1DE00
1EE1DC00
0EE1DC00
0FC1FC00
0FC1FC00
0FC0F800
07C0F800
07C0F800
0780F800
ENDCHAR
STARTCHAR char88
ENCODING 88
SWIDTH 30 0
DWIDTH 20 0
BBX 18 22 1 0
BITMAP
F807C0
7C0F80
7C1F00
3E1F00
1E3E00
1F3E00
0F7C00
0FF800
07F800
03F000
03E000
03F000
07F000
07F800
0FFC00
0F7C00
1F3E00
3E3E00
3E1F00
7C0F80
7C0F80
F807C0
ENDCHAR
STARTCHAR char89
ENCODING 89
SWIDTH 30 0
DWIDTH 20 0
BBX 18 22 1 0
BITMAP
F807C0
780780
7C0F80
3C0F00
3E1F00
1E1E00
1F3E00
0F3C00
0FBC00
07F800
07F800
03F000
03F000
01E000
01E000
01E000
01E000
01E000
01E000
01E000
01E000
01E000
ENDCHAR
STARTCHAR char90
ENCODING 90
SWIDTH 24 0
DWIDTH 18 0
BBX 16 22 1 0
BITMAP
FFFF
FFFF
FFFF
FFFF
003E
007E
007C
00F8
01F0
03F0
03E0
07C0
0F80
1F80
1F00
3E00
7C00
FC00
FFFF
FFFF
FFFF
FFFF
ENDCHAR
STARTCHAR char91
ENCODING 91
SWIDTH 30 0
DWIDTH 10 0
BBX 7 28 2 -6
BITMAP
FE
FE
FE
F0
F0
F0
F0
F0
F0
F0
F0
F0
F0
F0
F0
F0
F0
F0
F0
F0
F0
F0
F0
F0
F0
FE
FE
FE
ENDCHAR
STARTCHAR char92
ENCODING 92
SWIDTH 24 0
DWIDTH 8 0
BBX 10 21 -1 0
BITMAP
E000
7000
7000
7000
3800
3800
3800
1C00
1C00
1C00
0E00
0E00
0E00
0700
0700
0700
0300
0380
0380
0180
01C0
ENDCHAR
STARTCHAR char93
ENCODING 93
SWIDTH 30 0
DWIDTH 10 0
BBX 7 28 1 -6
BITMAP
FE
FE
FE
1E
1E
1E
1E
1E
1E
1E
1E
1E
1E
1E
1E
1E
1E
1E
1E
1E
1E
1E
1E
1E
1E
FE
FE
FE
ENDCHAR
STARTCHAR char94
ENCODING 94
SWIDTH 21 0
DWIDTH 17 0
BBX 13 12 2 8
BITMAP
0F80
0F80
0F80
1FC0
1DC0
3DE0
38E0
38E0
7070
7070
F078
E038
ENDCHAR
STARTCHAR char95
ENCODING 95
SWIDTH 17 0
DWIDTH 16 0
BBX 18 2 -1 -6
BITMAP
FFFFC0
FFFFC0
ENDCHAR
STARTCHAR char96
ENCODING 96
SWIDTH 30 0
DWIDTH 10 0
BBX 6 5 0 17
BITMAP
F8
78
38
1C
1C
ENDCHAR
STARTCHAR char97
ENCODING 97
SWIDTH 17 0
DWIDTH 16 0
BBX 14 16 1 0
BITMAP
0FC0
3FF0
7FF8
7CF8
F078
0078
01F8
3FF8
7FF8
F878
F078
F078
F9F8
FFF8
7FFC
3E3C
ENDCHAR
STARTCHAR char98
ENCODING 98
SWIDTH 24 0
DWIDTH 18 0
BBX 15 22 2 0
BITMAP
F000
F000
F000
F000
F000
F000
F3E0
FFF0
FFF8
FEFC
F83C
F03E
F01E
F01E
F01E
F01E
F03E
F83C
FEFC
FFF8
FFF0
F3E0
ENDCHAR
STARTCHAR char99
ENCODING 99
SWIDTH 17 0
DWIDTH 16 0
BBX 14 16 1 0
BITMAP
0FC0
1FF0
3FF8
7E7C
783C
F03C
F000
F000
F000
F000
F03C
F83C
7E7C
3FF8
3FF0
0FC0
ENDCHAR
STARTCHAR char100
ENCODING 100
SWIDTH 24 0
DWIDTH 18 0
BBX 15 22 1 0
BITMAP
001E
001E
001E
001E
001E
001E
0F9E
1FDE
3FFE
7EFE
F83E
F03E
F01E
F01E
F01E
F01E
F03E
F83E
7EFE
7FFE
3FDE
0F9E
ENDCHAR
STARTCHAR char101
ENCODING 101
SWIDTH 17 0
DWIDTH 16 0
BBX 14 16 1 0
BITMAP
0FC0
3FF0
7FF8
78F8
F03C
F03C
FFFC
FFFC
FFFC
F000
F000
F03C
787C
7FF8
3FF0
0FC0
ENDCHAR
STARTCHAR char102
ENCODING 102
SWIDTH 30 0
DWIDTH 10 0
BBX 9 22 0 0
BITMAP
0F80
1F80
1F80
1E00
1E00
1E00
FF80
FF80
FF80
1E00
1E00
1E00
1E00
1E00
1E00
1E00
1E00
1E00
1E00
1E00
1E00
1E00
ENDCHAR
STARTCHAR char103
ENCODING 103
SWIDTH 24 0
DWIDTH 18 0
BBX 15 22 1 -6
BITMAP
0F9E
1FDE
3FFE
7EFE
783E
F83E
F01E
F01E
F01E
F01E
F81E
F83E
7EFE
7FFE
3FDE
0F9E
001E
001E
F83C
7FFC
3FF8
0FE0
ENDCHAR
STARTCHAR char104
ENCODING 104
SWIDTH 24 0
DWIDTH 18 0
BBX 14 22 2 0
BITMAP
F000
F000
F000
F000
F000
F000
F3E0
F7F8
FFF8
FFFC
F87C
F03C
F03C
F03C
F03C
F03C
F03C
F03C
F03C
F03C
F03C
F03C
ENDCHAR
STARTCHAR char105
ENCODING 105
SWIDTH 24 0
DWIDTH 8 0
BBX 4 22 2 0
BITMAP
F0
F0
F0
F0
00
00
F0
F0
F0
F0
F0
F0
F0
F0
F0
F0
F0
F0
F0
F0
F0
F0
ENDCHAR
STARTCHAR char106
ENCODING 106
SWIDTH 24 0
DWIDTH 8 0
BBX 6 28 0 -6
BITMAP
3C
3C
3C
3C
00
00
3C
3C
3C
3C
3C
3C
3C
3C
3C
3C
3C
3C
3C
3C
3C
3C
3C
3C
3C
FC
FC
F8
ENDCHAR
STARTCHAR char107
ENCODING 107
SWIDTH 17 0
DWIDTH 16 0
BBX 14 22 2 0
BITMAP
F000
F000
F000
F000
F000
F000
F078
F0F0
F1E0
F3E0
F7C0
FF80
FF80
FF80
FFC0
FBC0
F3E0
F1E0
F1F0
F0F8
F0F8
F07C
ENDCHAR
STARTCHAR char108
ENCODING 108
SWIDTH 24 0
DWIDTH 8 0
BBX 4 22 2 0
BITMAP
F0
F0
F0
F0
F0
F0
F0
F0
F0
F0
F0
F0
F0
F0
F0
F0
F0
F0
F0
F0
F0
F0
ENDCHAR
STARTCHAR char109
ENCODING 109
SWIDTH 17 0
DWIDTH 26 0
BBX 22 16 2 0
BITMAP
F3E1F0
FFF7F8
FFFFFC
FFFFFC
F07C3C
F0783C
F0783C
F0783C
F0783C
F0783C
F0783C
F0783C
F0783C
F0783C
F0783C
F0783C
ENDCHAR
STARTCHAR char110
ENCODING 110
SWIDTH 24 0
DWIDTH 18 0
BBX 14 16 2 0
BITMAP
F3E0
F7F8
FFF8
FFFC
F87C
F03C
F03C
F03C
F03C
F03C
F03C
F03C
F03C
F03C
F03C
F03C
ENDCHAR
STARTCHAR char111
ENCODING 111
SWIDTH 24 0
DWIDTH 18 0
BBX 16 16 1 0
BITMAP
07E0
1FF8
3FFC
7E7E
783E
F81E
F01F
F01F
F00F
F01F
F81E
783E
7E7E
3FFC
1FF8
07E0
ENDCHAR
STARTCHAR char112
ENCODING 112
SWIDTH 24 0
DWIDTH 18 0
BBX 15 22 2 -6
BITMAP
F3E0
F7F0
FFF8
FEFC
F83C
F03E
F01E
F01E
F01E
F01E
F03E
F83C
FEFC
FFF8
FFF0
F3E0
F000
F000
F000
F000
F000
F000
ENDCHAR
STARTCHAR char113
ENCODING 113
SWIDTH 24 0
DWIDTH 18 0
BBX 15 22 1 -6
BITMAP
0F9E
3FDE
7FFE
7EFE
F83E
F03E
F01E
F01E
F01E
F01E
F03E
F83E
7EFE
7FFE
3FDE
0F9E
001E
001E
001E
001E
001E
001E
ENDCHAR
STARTCHAR char114
ENCODING 114
SWIDTH 2 0
DWIDTH 11 0
BBX 9 16 2 0
BITMAP
F380
F780
FF80
FF80
F800
F000
F000
F000
F000
F000
F000
F000
F000
F000
F000
F000
ENDCHAR
STARTCHAR char115
ENCODING 115
SWIDTH 17 0
DWIDTH 16 0
BBX 14 16 1 0
BITMAP
0FC0
3FF0
7FF8
7C78
F83C
F800
7F00
7FF0
1FF8
03FC
007C
F03C
F87C
7FFC
3FF8
1FE0
ENDCHAR
STARTCHAR char116
ENCODING 116
SWIDTH 30 0
DWIDTH 10 0
BBX 9 20 0 0
BITMAP
3E00
3E00
3E00
3E00
FF80
FF80
FF80
3E00
3E00
3E00
3E00
3E00
3E00
3E00
3E00
3E00
3E00
3F80
1F80
0F80
ENDCHAR
STARTCHAR char117
ENCODING 117
SWIDTH 24 0
DWIDTH 18 0
BBX 14 16 2 0
BITMAP
F03C
F03C
F03C
F03C
F03C
F03C
F03C
F03C
F03C
F03C
F03C
F07C
FDFC
FFFC
7FBC
3F3C
ENDCHAR
STARTCHAR char118
ENCODING 118
SWIDTH 17 0
DWIDTH 16 0
BBX 15 16 1 0
BITMAP
F03E
F03C
F03C
787C
7878
7878
3C78
3CF0
3CF0
1EE0
1EE0
1FE0
0FC0
0FC0
0FC0
0780
ENDCHAR
STARTCHAR char119
ENCODING 119
SWIDTH 8 0
DWIDTH 23 0
BBX 22 16 0 0
BITMAP
F87C3C
787C3C
787C3C
787C78
78FC78
3CEE78
3CEE78
3CEE70
3DCEF0
1FCEF0
1FC7F0
1FC7E0
0FC7E0
0F87E0
0F87C0
0F83C0
ENDCHAR
STARTCHAR char120
ENCODING 120
SWIDTH 17 0
DWIDTH 16 0
BBX 14 16 1 0
BITMAP
F87C
787C
7CF8
3CF0
3FF0
1FE0
0FC0
0FC0
0FC0
0FC0
1FE0
3FF0
3CF0
7CF8
F87C
F87C
ENDCHAR
STARTCHAR char121
ENCODING 121
SWIDTH 17 0
DWIDTH 16 0
BBX 16 22 0 -6
BITMAP
F81F
781E
7C1E
3C1E
3C3C
3C3C
1E38
1E78
1E78
0F70
0F70
0FF0
07E0
07E0
07E0
03C0
03C0
03C0
0780
1F80
1F00
1E00
ENDCHAR
STARTCHAR char122
ENCODING 122
SWIDTH 14 0
DWIDTH 15 0
BBX 13 16 1 0
BITMAP
FFF0
FFF0
FFF0
01F0
03E0
03E0
07C0
0F80
1F00
3E00
7E00
7C00
F800
FFF8
FFF8
FFF8
ENDCHAR
STARTCHAR char123
ENCODING 123
SWIDTH 2 0
DWIDTH 11 0
BBX 8 28 1 -6
BITMAP
0F
1F
1F
3C
3C
3C
3C
3C
3C
3C
3C
3C
F8
F0
F8
3C
3C
3C
3C
3C
3C
3C
3C
3C
3C
1F
1F
0F
ENDCHAR
STARTCHAR char124
ENCODING 124
SWIDTH 24 0
DWIDTH 8 0
BBX 3 28 3 -6
BITMAP
E0
E0
E0
E0
E0
E0
E0
E0
E0
E0
E0
E0
E0
E0
E0
E0
E0
E0
E0
E0
E0
E0
E0
E0
E0
E0
E0
E0
ENDCHAR
STARTCHAR char125
ENCODING 125
SWIDTH 2 0
DWIDTH 11 0
BBX 8 28 2 -6
BITMAP
F0
F8
FC
3C
3C
1C
1C
1C
1C
1C
1C
1C
1C
1F
07
1F
1C
1C
1C
1C
1C
1C
1C
1C
3C
FC
F8
F0
ENDCHAR
STARTCHAR char126
ENCODING 126
SWIDTH 21 0
DWIDTH 17 0
BBX 13 5 2 4
BITMAP
7C00
FE18
C7B8
C3F0
01E0
ENDCHAR
STARTCHAR char160
ENCODING 160
SWIDTH 24 0
DWIDTH 8 0
BBX 0 0 0 0
BITMAP
ENDCHAR
STARTCHAR char161
ENCODING 161
SWIDTH 30 0
DWIDTH 10 0
BBX 4 21 3 -5
BITMAP
F0
F0
F0
F0
00
00
60
60
60
E0
F0
F0
F0
F0
F0
F0
F0
F0
F0
F0
F0
ENDCHAR
STARTCHAR char162
ENCODING 162
SWIDTH 17 0
DWIDTH 16 0
BBX 14 23 1 -4
BITMAP
0100
0100
0100
0FE0
3FF0
7FF8
7D7C
793C
F13C
F100
F100
F100
F100
F100
F93C
793C
7FF8
3FF8
1FF0
07C0
0100
0100
0100
ENDCHAR
STARTCHAR char163
ENCODING 163
SWIDTH 17 0
DWIDTH 16 0
BBX 15 21 1 0
BITMAP
0FC0
3FF0
7FF8
7CFC
F83C
F03C
F03C
F800
7800
7C00
FFC0
FFC0
1E00
1E00
1E00
1C00
3804
FFFC
FFFC
7FFE
41F8
ENDCHAR
STARTCHAR char164
ENCODING 164
SWIDTH 17 0
DWIDTH 16 0
BBX 16 17 0 2
BITMAP
4002
E007
F3EF
7FFE
3FFC
3E3C
3C1C
381C
381C
381C
3C1C
3E3C
3FFC
7FFE
F3EF
E007
4002
ENDCHAR
STARTCHAR char165
ENCODING 165
SWIDTH 17 0
DWIDTH 16 0
BBX 16 21 0 0
BITMAP
F80F
781E
3C1E
3C3C
1E3C
1E78
0F78
0FF0
07F0
03E0
3FFE
3FFE
03C0
03C0
3FFE
3FFE
03C0
03C0
03C0
03C0
03C0
ENDCHAR
STARTCHAR char166
ENCODING 166
SWIDTH 24 0
DWIDTH 8 0
BBX 3 28 3 -6
BITMAP
E0
E0
E0
E0
E0
E0
E0
E0
E0
E0
E0
00
00
00
00
00
00
E0
E0
E0
E0
E0
E0
E0
E0
E0
E0
E0
ENDCHAR
STARTCHAR char167
ENCODING 167
SWIDTH 17 0
DWIDTH 16 0
BBX 14 27 1 -6
BITMAP
0FC0
1FE0
3FF0
78F8
7878
7800
7E00
3F80
3FC0
3FF0
73F8
E0FC
F03C
F81C
FC1C
7F3C
3FF8
0FF0
07F8
01F8
0078
7878
7878
7CF8
3FF8
1FF0
0FC0
ENDCHAR
STARTCHAR char168
ENCODING 168
SWIDTH 30 0
DWIDTH 10 0
BBX 10 3 0 19
BITMAP
F3C0
F3C0
F3C0
ENDCHAR
STARTCHAR char169
ENCODING 169
SWIDTH 5 0
DWIDTH 22 0
BBX 20 21 1 0
BITMAP
00F000
07FE00
1E0700
380180
3000C0
61F860
C3FC60
C79E30
C70E30
8E0030
8E0030
8E0030
CE0E30
C70E30
C7FE60
63FC60
7060C0
380180
1C0700
07FE00
01F800
ENDCHAR
STARTCHAR char170
ENCODING 170
SWIDTH 2 0
DWIDTH 11 0
BBX 9 14 1 8
BITMAP
3E00
7F00
E300
0700
7F00
FF00
E300
C700
FF00
7B80
0000
0000
FF00
FF00
ENDCHAR
STARTCHAR char171
ENCODING 171
SWIDTH 17 0
DWIDTH 16 0
BBX 11 12 3 2
BITMAP
1020
1060
30E0
71E0
E3C0
C300
C300
E380
F1E0
30E0
1060
1020
ENDCHAR
STARTCHAR char172
ENCODING 172
SWIDTH 21 0
DWIDTH 17 0
BBX 13 7 2 5
BITMAP
FFF8
FFF8
FFF8
0038
0038
0038
0038
ENDCHAR
STARTCHAR char173
ENCODING 173
SWIDTH 30 0
DWIDTH 10 0
BBX 8 4 1 6
BITMAP
FF
FF
FF
FF
ENDCHAR
STARTCHAR char174
ENCODING 174
SWIDTH 5 0
DWIDTH 22 0
BBX 20 21 1 0
BITMAP
00F000
07FE00
1E0700
380180
3000C0
67FC60
C7FC60
C71E30
C70E30
871E30
87FC30
87FC30
C71C30
C71C30
C71C60
670E60
7000C0
380180
1C0700
07FE00
01F800
ENDCHAR
STARTCHAR char175
ENCODING 175
SWIDTH 30 0
DWIDTH 10 0
BBX 9 2 0 19
BITMAP
FF80
FF80
ENDCHAR
STARTCHAR char176
ENCODING 176
SWIDTH 5 0
DWIDTH 12 0
BBX 8 9 2 12
BITMAP
3C
7E
C3
83
83
C3
C6
7E
18
ENDCHAR
STARTCHAR char177
ENCODING 177
SWIDTH 21 0
DWIDTH 17 0
BBX 13 17 2 0
BITMAP
0700
0700
0700
0700
0700
FFF8
FFF8
FFF8
0700
0700
0700
0000
0000
0000
FFF8
FFF8
FFF8
ENDCHAR
STARTCHAR char178
ENCODING 178
SWIDTH 30 0
DWIDTH 10 0
BBX 8 11 1 10
BITMAP
3C
FE
E7
C7
07
0E
1C
78
60
FF
FF
ENDCHAR
STARTCHAR char179
ENCODING 179
SWIDTH 30 0
DWIDTH 10 0
BBX 8 12 1 9
BITMAP
3C
7E
E7
C7
06
1C
1E
07
C3
E7
FE
3C
ENDCHAR
STARTCHAR char180
ENCODING 180
SWIDTH 30 0
DWIDTH 10 0
BBX 7 5 3 17
BITMAP
3E
3C
78
70
E0
ENDCHAR
STARTCHAR char181
ENCODING 181
SWIDTH 24 0
DWIDTH 18 0
BBX 15 22 2 -6
BITMAP
F078
F078
F078
F078
F078
F078
F078
F078
F078
F078
F078
F078
FFF8
FFFE
FFFE
FF9E
F000
F000
F000
F000
F000
F000
ENDCHAR
STARTCHAR char182
ENCODING 182
SWIDTH 17 0
DWIDTH 16 0
BBX 15 28 1 -6
BITMAP
1FFE
3FFE
7FB8
FFB8
FFB8
FFB8
FFB8
FFB8
FFB8
FFB8
FFB8
7FB8
3FB8
1FB8
03B8
03B8
03B8
03B8
03B8
03B8
03B8
03B8
03B8
03B8
03B8
03B8
03B8
03B8
ENDCHAR
STARTCHAR char183
ENCODING 183
SWIDTH 24 0
DWIDTH 8 0
BBX 4 4 2 5
BITMAP
F0
F0
F0
60
ENDCHAR
STARTCHAR char184
ENCODING 184
SWIDTH 30 0
DWIDTH 10 0
BBX 8 7 1 -7
BITMAP
18
30
3E
07
87
FE
3C
ENDCHAR
STARTCHAR char185
ENCODING 185
SWIDTH 30 0
DWIDTH 10 0
BBX 5 11 2 10
BITMAP
18
38
F8
F8
38
38
38
38
38
38
38
ENDCHAR
STARTCHAR char186
ENCODING 186
SWIDTH 2 0
DWIDTH 11 0
BBX 9 14 1 8
BITMAP
3E00
7F00
E380
C380
C180
C180
C380
E380
7F00
3E00
0000
0000
FF80
FF80
ENDCHAR
STARTCHAR char187
ENCODING 187
SWIDTH 17 0
DWIDTH 16 0
BBX 11 12 3 2
BITMAP
8400
8200
C380
F3C0
71E0
30E0
30E0
71E0
F3C0
C300
8200
8400
ENDCHAR
STARTCHAR char188
ENCODING 188
SWIDTH 11 0
DWIDTH 24 0
BBX 20 22 2 -1
BITMAP
180180
380380
F80300
F80700
180600
180E00
181C00
181800
183800
183000
1870E0
0061E0
00E1E0
01C360
018260
038660
030C60
070FF0
060FF0
0E0060
0C0060
1C0000
ENDCHAR
STARTCHAR char189
ENCODING 189
SWIDTH 11 0
DWIDTH 24 0
BBX 21 22 2 -1
BITMAP
180380
380700
F80600
F80E00
180C00
181C00
181800
183800
183000
187000
18E3E0
00C7F0
01C738
018638
038038
030070
0700E0
0E0380
0C0700
1C07F8
1807F8
380000
ENDCHAR
STARTCHAR char190
ENCODING 190
SWIDTH 11 0
DWIDTH 24 0
BBX 20 22 2 -1
BITMAP
3C0000
7E01C0
E70180
C70380
060300
1C0700
1E0600
070E00
C71C00
E71800
FE3800
3C30E0
0071E0
006360
00C360
01C660
018C60
038FF0
030FF0
070060
0E0060
0C0000
ENDCHAR
STARTCHAR char191
ENCODING 191
SWIDTH 24 0
DWIDTH 18 0
BBX 14 22 2 -6
BITMAP
0780
0780
0780
0780
0000
0000
0780
0780
0F80
1F00
3E00
7C00
F800
F000
F03C
F03C
F03C
F87C
7FF8
7FF8
3FF0
0FC0
ENDCHAR
STARTCHAR char192
ENCODING 192
SWIDTH 2 0
DWIDTH 21 0
BBX 19 28 1 0
BITMAP
078000
03C000
01E000
00E000
000000
000000
01F000
01F800
03F800
03F800
03FC00
07FC00
07BC00
07BE00
0F9E00
0F1E00
0F1F00
1F0F00
1E0F00
1E0F80
3FFF80
3FFF80
3FFFC0
7FFFC0
7803C0
7803E0
F801E0
F001E0
ENDCHAR
STARTCHAR char193
ENCODING 193
SWIDTH 2 0
DWIDTH 21 0
BBX 19 28 1 0
BITMAP
003E00
003C00
007800
007000
000000
000000
01F000
01F800
03F800
03F800
03FC00
07FC00
07BC00
07BE00
0F9E00
0F1E00
0F1F00
1F0F00
1E0F00
1E0F80
3FFF80
3FFF80
3FFFC0
7FFFC0
7803C0
7803E0
F801E0
F001E0
ENDCHAR
STARTCHAR char194
ENCODING 194
SWIDTH 2 0
DWIDTH 21 0
BBX 19 28 1 0
BITMAP
00F000
01F800
039C00
070E00
000000
000000
01F000
01F800
03F800
03F800
03FC00
07FC00
07BC00
07BE00
0F9E00
0F1E00
0F1F00
1F0F00
1E0F00
1E0F80
3FFF80
3FFF80
3FFFC0
7FFFC0
7803C0
7803E0
F801E0
F001E0
ENDCHAR
STARTCHAR char195
ENCODING 195
SWIDTH 2 0
DWIDTH 21 0
BBX 19 27 1 0
BITMAP
03C600
07FE00
067C00
000000
000000
01F000
01F800
03F800
03F800
03FC00
07FC00
07BC00
07BE00
0F9E00
0F1E00
0F1F00
1F0F00
1E0F00
1E0F80
3FFF80
3FFF80
3FFFC0
7FFFC0
7803C0
7803E0
F801E0
F001E0
ENDCHAR
STARTCHAR char196
ENCODING 196
SWIDTH 2 0
DWIDTH 21 0
BBX 19 27 1 0
BITMAP
079E00
079E00
079E00
000000
000000
01F000
01F800
03F800
03F800
03FC00
07FC00
07BC00
07BE00
0F9E00
0F1E00
0F1F00
1F0F00
1E0F00
1E0F80
3FFF80
3FFF80
3FFFC0
7FFFC0
7803C0
7803E0
F801E0
F001E0
ENDCHAR
STARTCHAR char197
ENCODING 197
SWIDTH 2 0
DWIDTH 21 0
BBX 19 28 1 0
BITMAP
00F000
01B000
011800
019800
01F000
004000
01F000
01F800
03F800
03F800
03FC00
07FC00
07BC00
07BE00
0F9E00
0F1E00
0F1F00
1F0F00
1E0F00
1E0F80
3FFF80
3FFF80
3FFFC0
7FFFC0
7803C0
7803E0
F801E0
F001E0
ENDCHAR
STARTCHAR char198
ENCODING 198
SWIDTH 26 0
DWIDTH 29 0
BBX 28 22 0 0
BITMAP
00FFFFF0
01FFFFF0
01FFFFF0
01FFFFF0
03C78000
03C78000
07C78000
07878000
07878000
0F87FFE0
0F07FFE0
0F07FFE0
1F07FFE0
1E078000
1FFF8000
3FFF8000
3FFF8000
3FFF8000
7C07FFF0
7807FFF0
7807FFF0
F807FFF0
ENDCHAR
STARTCHAR char199
ENCODING 199
SWIDTH 2 0
DWIDTH 21 0
BBX 19 28 1 -6
BITMAP
01F800
07FF00
1FFF80
3FFFC0
3E07C0
7C03E0
7C03E0
7801E0
F80000
F80000
F80000
F80000
F80000
F80000
7801E0
7C01E0
7C03E0
3E07C0
3FFFC0
1FFF80
07FF00
01FC00
004000
00F800
003800
001800
03F800
01F000
ENDCHAR
STARTCHAR char200
ENCODING 200
SWIDTH 30 0
DWIDTH 20 0
BBX 16 28 2 0
BITMAP
1F00
0F00
0780
0380
0000
0000
FFFF
FFFF
FFFF
FFFF
F800
F800
F800
F800
F800
FFFE
FFFE
FFFE
FFFE
F800
F800
F800
F800
F800
FFFF
FFFF
FFFF
FFFF
ENDCHAR
STARTCHAR char201
ENCODING 201
SWIDTH 30 0
DWIDTH 20 0
BBX 16 28 2 0
BITMAP
00F8
00F0
01E0
01C0
0000
0000
FFFF
FFFF
FFFF
FFFF
F800
F800
F800
F800
F800
FFFE
FFFE
FFFE
FFFE
F800
F800
F800
F800
F800
FFFF
FFFF
FFFF
FFFF
ENDCHAR
STARTCHAR char202
ENCODING 202
SWIDTH 30 0
DWIDTH 20 0
BBX 16 28 2 0
BITMAP
03C0
07E0
0E70
1C38
0000
0000
FFFF
FFFF
FFFF
FFFF
F800
F800
F800
F800
F800
FFFE
FFFE
FFFE
FFFE
F800
F800
F800
F800
F800
FFFF
FFFF
FFFF
FFFF
ENDCHAR
STARTCHAR char203
ENCODING 203
SWIDTH 30 0
DWIDTH 20 0
BBX 16 27 2 0
BITMAP
1E78
1E78
1E78
0000
0000
FFFF
FFFF
FFFF
FFFF
F800
F800
F800
F800
F800
FFFE
FFFE
FFFE
FFFE
F800
F800
F800
F800
F800
FFFF
FFFF
FFFF
FFFF
ENDCHAR
STARTCHAR char204
ENCODING 204
SWIDTH 24 0
DWIDTH 8 0
BBX 6 28 0 0
BITMAP
F0
78
38
1C
00
00
3C
3C
3C
3C
3C
3C
3C
3C
3C
3C
3C
3C
3C
3C
3C
3C
3C
3C
3C
3C
3C
3C
ENDCHAR
STARTCHAR char205
ENCODING 205
SWIDTH 24 0
DWIDTH 8 0
BBX 6 28 2 0
BITMAP
3C
78
70
E0
00
00
F0
F0
F0
F0
F0
F0
F0
F0
F0
F0
F0
F0
F0
F0
F0
F0
F0
F0
F0
F0
F0
F0
ENDCHAR
STARTCHAR char206
ENCODING 206
SWIDTH 24 0
DWIDTH 8 0
BBX 10 28 -1 0
BITMAP
1E00
3F00
7380
E1C0
0000
0000
1E00
1E00
1E00
1E00
1E00
1E00
1E00
1E00
1E00
1E00
1E00
1E00
1E00
1E00
1E00
1E00
1E00
1E00
1E00
1E00
1E00
1E00
ENDCHAR
STARTCHAR char207
ENCODING 207
SWIDTH 24 0
DWIDTH 8 0
BBX 10 27 -1 0
BITMAP
F3C0
F3C0
F3C0
0000
0000
1E00
1E00
1E00
1E00
1E00
1E00
1E00
1E00
1E00
1E00
1E00
1E00
1E00
1E00
1E00
1E00
1E00
1E00
1E00
1E00
1E00
1E00
ENDCHAR
STARTCHAR char208
ENCODING 208
SWIDTH 2 0
DWIDTH 21 0
BBX 20 22 0 0
BITMAP
3FFC00
3FFF00
3FFF80
3FFFC0
3E07E0
3E03E0
3E01E0
3E01F0
3E00F0
3E00F0
FFE0F0
FFE0F0
3E00F0
3E00F0
3E01F0
3E01E0
3E01E0
3E03E0
3FFFC0
3FFF80
3FFF00
3FFE00
ENDCHAR
STARTCHAR char209
ENCODING 209
SWIDTH 2 0
DWIDTH 21 0
BBX 17 27 2 0
BITMAP
0F8C00
0FF800
0CF800
000000
000000
F80780
F80780
FC0780
FC0780
FE0780
FF0780
FF0780
F78780
F78780
F3C780
F3C780
F1E780
F0F780
F0F780
F07F80
F07F80
F03F80
F03F80
F01F80
F00F80
F00F80
F00780
ENDCHAR
STARTCHAR char210
ENCODING 210
SWIDTH 8 0
DWIDTH 23 0
BBX 21 27 1 0
BITMAP
07C000
03E000
01E000
00F000
000000
01FC00
07FF00
0FFF80
1FFFC0
3F07E0
7C03E0
7C01F0
7800F0
F800F0
F800F8
F800F8
F800F8
F800F8
F800F8
7800F0
7C01F0
7C01F0
3F07E0
1FFFC0
0FFF80
07FF00
01FC00
ENDCHAR
STARTCHAR char211
ENCODING 211
SWIDTH 8 0
DWIDTH 23 0
BBX 21 27 1 0
BITMAP
001E00
003C00
003800
007000
000000
01FC00
07FF00
0FFF80
1FFFC0
3F07E0
7C03E0
7C01F0
7800F0
F800F0
F800F8
F800F8
F800F8
F800F8
F800F8
7800F0
7C01F0
7C01F0
3F07E0
1FFFC0
0FFF80
07FF00
01FC00
ENDCHAR
STARTCHAR char212
ENCODING 212
SWIDTH 8 0
DWIDTH 23 0
BBX 21 27 1 0
BITMAP
00F800
01FC00
03DE00
070700
000000
01FC00
07FF00
0FFF80
1FFFC0
3F07E0
7C03E0
7C01F0
7800F0
F800F0
F800F8
F800F8
F800F8
F800F8
F800F8
7800F0
7C01F0
7C01F0
3F07E0
1FFFC0
0FFF80
07FF00
01FC00
ENDCHAR
STARTCHAR char213
ENCODING 213
SWIDTH 8 0
DWIDTH 23 0
BBX 21 27 1 0
BITMAP
01E300
03FE00
077E00
060000
000000
01FC00
07FF00
0FFF80
1FFFC0
3F07E0
7C03E0
7C01F0
7800F0
F800F0
F800F8
F800F8
F800F8
F800F8
F800F8
7800F0
7C01F0
7C01F0
3F07E0
1FFFC0
0FFF80
07FF00
01FC00
ENDCHAR
STARTCHAR char214
ENCODING 214
SWIDTH 8 0
DWIDTH 23 0
BBX 21 27 1 0
BITMAP
039E00
039E00
039E00
000000
000000
01FC00
07FF00
0FFF80
1FFFC0
3F07E0
7C03E0
7C01F0
7800F0
F800F0
F800F8
F800F8
F800F8
F800F8
F800F8
7800F0
7C01F0
7C01F0
3F07E0
1FFFC0
0FFF80
07FF00
01FC00
ENDCHAR
STARTCHAR char215
ENCODING 215
SWIDTH 21 0
DWIDTH 17 0
BBX 11 12 3 1
BITMAP
4040
E0E0
F1E0
7BC0
3F80
1F00
1F00
3F80
7BC0
F1E0
E0E0
4040
ENDCHAR
STARTCHAR char216
ENCODING 216
SWIDTH 8 0
DWIDTH 23 0
BBX 21 22 1 0
BITMAP
01FC20
07FF70
0FFFF0
1FFFE0
3F07E0
7C03F0
7C07F0
780FF0
F81EF0
F83CF8
F878F8
F8F0F8
F9E0F8
FBC0F8
7F80F0
7F01F0
7E01F0
3F07E0
3FFFC0
7FFF80
77FF00
21FC00
ENDCHAR
STARTCHAR char217
ENCODING 217
SWIDTH 2 0
DWIDTH 21 0
BBX 17 28 2 0
BITMAP
0F0000
078000
038000
01C000
000000
000000
F80780
F80780
F80780
F80780
F80780
F80780
F80780
F80780
F80780
F80780
F80780
F80780
F80780
F80780
F80780
F80780
F80F80
7C1F80
7FFF00
3FFE00
1FFC00
07F000
ENDCHAR
STARTCHAR char218
ENCODING 218
SWIDTH 2 0
DWIDTH 21 0
BBX 17 28 2 0
BITMAP
007C00
00F800
00F000
01E000
000000
000000
F80780
F80780
F80780
F80780
F80780
F80780
F80780
F80780
F80780
F80780
F80780
F80780
F80780
F80780
F80780
F80780
F80F80
7C1F80
7FFF00
3FFE00
1FFC00
07F000
ENDCHAR
STARTCHAR char219
ENCODING 219
SWIDTH 2 0
DWIDTH 21 0
BBX 17 28 2 0
BITMAP
03E000
07F000
0F7800
1C1C00
000000
000000
F80780
F80780
F80780
F80780
F80780
F80780
F80780
F80780
F80780
F80780
F80780
F80780
F80780
F80780
F80780
F80780
F80F80
7C1F80
7FFF00
3FFE00
1FFC00
07F000
ENDCHAR
STARTCHAR char220
ENCODING 220
SWIDTH 2 0
DWIDTH 21 0
BBX 17 27 2 0
BITMAP
0F3800
0F3800
0F3800
000000
000000
F80780
F80780
F80780
F80780
F80780
F80780
F80780
F80780
F80780
F80780
F80780
F80780
F80780
F80780
F80780
F80780
F80F80
7C1F80
7FFF00
3FFE00
1FFC00
07F000
ENDCHAR
STARTCHAR char221
ENCODING 221
SWIDTH 30 0
DWIDTH 20 0
BBX 18 28 1 0
BITMAP
007C00
007800
00F000
00E000
000000
000000
F807C0
780780
7C0F80
3C0F00
3E1F00
1E1E00
1F3E00
0F3C00
0FBC00
07F800
07F800
03F000
03F000
01E000
01E000
01E000
01E000
01E000
01E000
01E000
01E000
01E000
ENDCHAR
STARTCHAR char222
ENCODING 222
SWIDTH 30 0
DWIDTH 20 0
BBX 17 22 2 0
BITMAP
F80000
F80000
F80000
F80000
FFF800
FFFE00
FFFE00
FFFF00
F81F00
F80F00
F80F80
F80F80
F80F00
F81F00
FFFF00
FFFE00
FFFC00
FFE000
F80000
F80000
F80000
F80000
ENDCHAR
STARTCHAR char223
ENCODING 223
SWIDTH 24 0
DWIDTH 18 0
BBX 15 23 2 -1
BITMAP
1FC0
3FF0
7FF8
FCF8
F07C
F07C
F078
F078
F3F0
F3F0
F3F8
F0FC
F07E
F03E
F01E
F01E
F01E
F03E
F07C
F3FC
F3F8
F3F0
0080
ENDCHAR
STARTCHAR char224
ENCODING 224
SWIDTH 17 0
DWIDTH 16 0
BBX 14 22 1 0
BITMAP
3E00
1E00
0F00
0700
0700
0000
0FC0
3FF0
7FF8
7CF8
F078
0078
01F8
3FF8
7FF8
F878
F078
F078
F9F8
FFF8
7FFC
3E3C
ENDCHAR
STARTCHAR char225
ENCODING 225
SWIDTH 17 0
DWIDTH 16 0
BBX 14 22 1 0
BITMAP
01F0
01E0
03C0
0380
0700
0000
0FC0
3FF0
7FF8
7CF8
F078
0078
01F8
3FF8
7FF8
F878
F078
F078
F9F8
FFF8
7FFC
3E3C
ENDCHAR
STARTCHAR char226
ENCODING 226
SWIDTH 17 0
DWIDTH 16 0
BBX 14 22 1 0
BITMAP
0780
0FC0
0FC0
1CE0
3870
0000
0FC0
3FF0
7FF8
7CF8
F078
0078
01F8
3FF8
7FF8
F878
F078
F078
F9F8
FFF8
7FFC
3E3C
ENDCHAR
STARTCHAR char227
ENCODING 227
SWIDTH 17 0
DWIDTH 16 0
BBX 14 22 1 0
BITMAP
1E30
3FF0
33F0
3000
0000
0000
0FC0
3FF0
7FF8
7CF8
F078
0078
01F8
3FF8
7FF8
F878
F078
F078
F9F8
FFF8
7FFC
3E3C
ENDCHAR
STARTCHAR char228
ENCODING 228
SWIDTH 17 0
DWIDTH 16 0
BBX 14 22 1 0
BITMAP
3CF0
3CF0
3CF0
0000
0000
0000
0FC0
3FF0
7FF8
7CF8
F078
0078
01F8
3FF8
7FF8
F878
F078
F078
F9F8
FFF8
7FFC
3E3C
ENDCHAR
STARTCHAR char229
ENCODING 229
SWIDTH 17 0
DWIDTH 16 0
BBX 14 23 1 0
BITMAP
0200
0780
0CC0
0CC0
0F80
0780
0000
0FC0
3FF0
7FF8
7CF8
F078
0078
01F8
3FF8
7FF8
F878
F078
F078
F9F8
FFF8
7FFC
3E3C
ENDCHAR
STARTCHAR char230
ENCODING 230
SWIDTH 17 0
DWIDTH 26 0
BBX 24 16 1 0
BITMAP
0FC3E0
3FFFF8
7FFFFC
FCFE3E
F07C1E
007C0F
0FFFFF
3FFFFF
FFFFFF
F87C00
F07C00
F07C0F
F9FE3E
FFDFFE
7F8FF8
3E03E0
ENDCHAR
STARTCHAR char231
ENCODING 231
SWIDTH 17 0
DWIDTH 16 0
BBX 14 23 1 -7
BITMAP
0FC0
1FF0
3FF8
7E7C
783C
F03C
F000
F000
F000
F000
F03C
F83C
7E7C
3FF8
1FF0
0FC0
0300
07C0
01E0
00E0
18E0
1FC0
0780
ENDCHAR
STARTCHAR char232
ENCODING 232
SWIDTH 17 0
DWIDTH 16 0
BBX 14 22 1 0
BITMAP
3E00
1E00
0F00
0700
0700
0000
0FC0
3FF0
7FF8
78F8
F03C
F03C
FFFC
FFFC
FFFC
F000
F000
F03C
787C
7FF8
3FF0
0FC0
ENDCHAR
STARTCHAR char233
ENCODING 233
SWIDTH 17 0
DWIDTH 16 0
BBX 14 22 1 0
BITMAP
01F0
01E0
03C0
0380
0300
0000
0FC0
3FF0
7FF8
78F8
F03C
F03C
FFFC
FFFC
FFFC
F000
F000
F03C
787C
7FF8
3FF0
0FC0
ENDCHAR
STARTCHAR char234
ENCODING 234
SWIDTH 17 0
DWIDTH 16 0
BBX 14 22 1 0
BITMAP
0780
0FC0
0FC0
1CE0
3870
0000
0FC0
3FF0
7FF8
78F8
F03C
F03C
FFFC
FFFC
FFFC
F000
F000
F03C
787C
7FF8
3FF0
0FC0
ENDCHAR
STARTCHAR char235
ENCODING 235
SWIDTH 17 0
DWIDTH 16 0
BBX 14 22 1 0
BITMAP
3CF0
3CF0
3CF0
0000
0000
0000
0FC0
3FF0
7FF8
78F8
F03C
F03C
FFFC
FFFC
FFFC
F000
F000
F03C
787C
7FF8
3FF0
0FC0
ENDCHAR
STARTCHAR char236
ENCODING 236
SWIDTH 24 0
DWIDTH 8 0
BBX 6 22 0 0
BITMAP
F0
78
78
3C
1C
00
3C
3C
3C
3C
3C
3C
3C
3C
3C
3C
3C
3C
3C
3C
3C
3C
ENDCHAR
STARTCHAR char237
ENCODING 237
SWIDTH 24 0
DWIDTH 8 0
BBX 6 22 2 0
BITMAP
3C
78
78
F0
E0
00
F0
F0
F0
F0
F0
F0
F0
F0
F0
F0
F0
F0
F0
F0
F0
F0
ENDCHAR
STARTCHAR char238
ENCODING 238
SWIDTH 24 0
DWIDTH 8 0
BBX 10 22 -1 0
BITMAP
1E00
3F00
7380
E1C0
0000
0000
1E00
1E00
1E00
1E00
1E00
1E00
1E00
1E00
1E00
1E00
1E00
1E00
1E00
1E00
1E00
1E00
ENDCHAR
STARTCHAR char239
ENCODING 239
SWIDTH 24 0
DWIDTH 8 0
BBX 10 22 -1 0
BITMAP
F3C0
F3C0
F3C0
0000
0000
0000
1E00
1E00
1E00
1E00
1E00
1E00
1E00
1E00
1E00
1E00
1E00
1E00
1E00
1E00
1E00
1E00
ENDCHAR
STARTCHAR char240
ENCODING 240
SWIDTH 24 0
DWIDTH 18 0
BBX 16 22 1 0
BITMAP
0C60
1FE0
0780
0FE0
0CF0
0078
0FFC
1FFC
3FFE
7C7E
781E
F81F
F01F
F00F
F00F
F01F
F81E
783E
7E7E
3FFC
1FF8
07E0
ENDCHAR
STARTCHAR char241
ENCODING 241
SWIDTH 24 0
DWIDTH 18 0
BBX 14 22 2 0
BITMAP
1E30
3FF0
33F0
3000
0000
0000
F3E0
F7F8
FFF8
FFFC
F87C
F03C
F03C
F03C
F03C
F03C
F03C
F03C
F03C
F03C
F03C
F03C
ENDCHAR
STARTCHAR char242
ENCODING 242
SWIDTH 24 0
DWIDTH 18 0
BBX 16 22 1 0
BITMAP
1F00
0F00
0700
0380
0380
0000
07E0
1FF8
3FFC
7E7E
783E
F81E
F01F
F01F
F00F
F01F
F81E
783E
7E7E
3FFC
1FF8
07E0
ENDCHAR
STARTCHAR char243
ENCODING 243
SWIDTH 24 0
DWIDTH 18 0
BBX 16 22 1 0
BITMAP
00F8
00F0
01E0
01C0
0180
0000
07E0
1FF8
3FFC
7E7E
783E
F81E
F01F
F01F
F00F
F01F
F81E
783E
7E7E
3FFC
1FF8
07E0
ENDCHAR
STARTCHAR char244
ENCODING 244
SWIDTH 24 0
DWIDTH 18 0
BBX 16 22 1 0
BITMAP
03C0
07E0
07E0
0E70
1C38
0000
07E0
1FF8
3FFC
7E7E
783E
F81E
F01F
F01F
F00F
F01F
F81E
783E
7E7E
3FFC
1FF8
07E0
ENDCHAR
STARTCHAR char245
ENCODING 245
SWIDTH 24 0
DWIDTH 18 0
BBX 16 22 1 0
BITMAP
0F18
1FF8
19F8
1800
0000
0000
07E0
1FF8
3FFC
7E7E
783E
F81E
F01F
F01F
F00F
F01F
F81E
783E
7E7E
3FFC
1FF8
07E0
ENDCHAR
STARTCHAR char246
ENCODING 246
SWIDTH 24 0
DWIDTH 18 0
BBX 16 22 1 0
BITMAP
1E78
1E78
1E78
0000
0000
0000
07E0
1FF8
3FFC
7E7E
783E
F81E
F01F
F01F
F00F
F01F
F81E
783E
7E7E
3FFC
1FF8
07E0
ENDCHAR
STARTCHAR char247
ENCODING 247
SWIDTH 21 0
DWIDTH 17 0
BBX 13 15 2 0
BITMAP
0700
0F80
0F80
0700
0000
0000
FFF8
FFF8
FFF8
0000
0000
0700
0F80
0F80
0700
ENDCHAR
STARTCHAR char248
ENCODING 248
SWIDTH 24 0
DWIDTH 18 0
BBX 16 16 1 0
BITMAP
07E4
1FFE
3FFE
7E7E
783E
F87E
F0FF
F1CF
F38F
F71F
FE1E
7C3E
7E7E
7FFC
7FF8
07E0
ENDCHAR
STARTCHAR char249
ENCODING 249
SWIDTH 24 0
DWIDTH 18 0
BBX 14 22 2 0
BITMAP
3E00
1E00
0E00
0700
0700
0000
F03C
F03C
F03C
F03C
F03C
F03C
F03C
F03C
F03C
F03C
F03C
F07C
FDFC
FFFC
7FBC
3F3C
ENDCHAR
STARTCHAR char250
ENCODING 250
SWIDTH 24 0
DWIDTH 18 0
BBX 14 22 2 0
BITMAP
01F0
01E0
03C0
0380
0300
0000
F03C
F03C
F03C
F03C
F03C
F03C
F03C
F03C
F03C
F03C
F03C
F07C
FDFC
FFFC
7FBC
3F3C
ENDCHAR
STARTCHAR char251
ENCODING 251
SWIDTH 24 0
DWIDTH 18 0
BBX 14 22 2 0
BITMAP
0780
0FC0
1CE0
3870
0000
0000
F03C
F03C
F03C
F03C
F03C
F03C
F03C
F03C
F03C
F03C
F03C
F07C
FDFC
FFFC
7FBC
3F3C
ENDCHAR
STARTCHAR char252
ENCODING 252
SWIDTH 24 0
DWIDTH 18 0
BBX 14 22 2 0
BITMAP
3CF0
3CF0
3CF0
0000
0000
0000
F03C
F03C
F03C
F03C
F03C
F03C
F03C
F03C
F03C
F03C
F03C
F07C
FDFC
FFFC
7FBC
3F3C
ENDCHAR
STARTCHAR char253
ENCODING 253
SWIDTH 17 0
DWIDTH 16 0
BBX 16 28 0 -6
BITMAP
00F8
00F0
00E0
01C0
01C0
0000
F81F
781E
7C1E
3C1E
3C3C
3C3C
1E38
1E78
1E78
0F70
0F70
0FF0
07E0
07E0
07E0
03C0
03C0
03C0
0780
1F80
1F00
1E00
ENDCHAR
STARTCHAR char254
ENCODING 254
SWIDTH 24 0
DWIDTH 18 0
BBX 15 28 2 -6
BITMAP
F000
F000
F000
F000
F000
F000
F3E0
F7F0
FFF8
FEFC
F83C
F03C
F03E
F01E
F01E
F01E
F03E
F83C
FEFC
FFF8
F7F0
F3E0
F000
F000
F000
F000
F000
F000
ENDCHAR
STARTCHAR char255
ENCODING 255
SWIDTH 17 0
DWIDTH 16 0
BBX 16 28 0 -6
BITMAP
1E78
1E78
1E78
0000
0000
0000
F81F
781E
7C1E
3C1E
3C3C
3C3C
1E38
1E78
1E78
0F70
0F70
0FF0
07E0
07E0
07E0
03C0
03C0
03C0
0780
1F80
1F00
1E00
ENDCHAR
STARTCHAR char256
ENCODING 256
SWIDTH 2 0
DWIDTH 21 0
BBX 19 27 1 0
BITMAP
07FC00
07FC00
000000
000000
000000
01F000
01F800
03F800
03F800
03FC00
07FC00
07BC00
07BE00
0F9E00
0F1E00
0F1F00
1F0F00
1E0F00
1E0F80
3FFF80
3FFF80
3FFFC0
7FFFC0
7803C0
7803E0
F801E0
F001E0
ENDCHAR
STARTCHAR char257
ENCODING 257
SWIDTH 17 0
DWIDTH 16 0
BBX 14 21 1 0
BITMAP
1FE0
1FE0
0000
0000
0000
0FC0
3FF0
7FF8
7CF8
F078
0078
01F8
3FF8
7FF8
F878
F078
F078
F9F8
FFF8
7FFC
3E3C
ENDCHAR
STARTCHAR char258
ENCODING 258
SWIDTH 2 0
DWIDTH 21 0
BBX 19 27 1 0
BITMAP
071E00
07FC00
01F800
000000
000000
01F000
01F800
03F800
03F800
03FC00
07FC00
07BC00
07BE00
0F9E00
0F1E00
0F1F00
1F0F00
1E0F00
1E0F80
3FFF80
3FFF80
3FFFC0
7FFFC0
7803C0
7803E0
F801E0
F001E0
ENDCHAR
STARTCHAR char259
ENCODING 259
SWIDTH 17 0
DWIDTH 16 0
BBX 14 22 1 0
BITMAP
3070
3860
1FE0
0FC0
0000
0000
0FC0
3FF0
7FF8
7CF8
F078
0078
01F8
3FF8
7FF8
F878
F078
F078
F9F8
FFF8
7FFC
3E3C
ENDCHAR
STARTCHAR char260
ENCODING 260
SWIDTH 2 0
DWIDTH 21 0
BBX 20 29 1 -7
BITMAP
01F000
01F800
03F800
03F800
03FC00
07FC00
07BC00
07BE00
0F9E00
0F1E00
0F1F00
1F0F00
1E0F00
1E0F80
3FFF80
3FFF80
3FFFC0
7FFFC0
7803C0
7803E0
F801E0
F001E0
0001C0
000380
000300
000700
0003F0
0003F0
0000F0
ENDCHAR
STARTCHAR char261
ENCODING 261
SWIDTH 17 0
DWIDTH 16 0
BBX 14 23 1 -7
BITMAP
0FC0
3FF0
7FF8
7CF8
F078
0078
01F8
3FF8
7FF8
F878
F078
F078
F9F8
FFF8
7FFC
3E3C
0070
0060
00E0
00E0
00FC
007C
001C
ENDCHAR
STARTCHAR char262
ENCODING 262
SWIDTH 2 0
DWIDTH 21 0
BBX 19 27 1 0
BITMAP
003E00
003C00
007800
007000
000000
01F800
07FF00
1FFF80
3FFFC0
3E07C0
7C03E0
7C03E0
7801E0
F80000
F80000
F80000
F80000
F80000
F80000
7801E0
7C01E0
7C03E0
3E07C0
3FFFC0
1FFF80
07FF00
01FC00
ENDCHAR
STARTCHAR char263
ENCODING 263
SWIDTH 17 0
DWIDTH 16 0
BBX 14 22 1 0
BITMAP
00F0
01E0
01E0
03C0
0380
0000
0FC0
1FF0
3FF8
7E7C
783C
F03C
F000
F000
F000
F000
F03C
F83C
7E7C
3FF8
3FF0
0FC0
ENDCHAR
STARTCHAR char264
ENCODING 264
SWIDTH 2 0
DWIDTH 21 0
BBX 19 27 1 0
BITMAP
00F000
01F800
039C00
070E00
000000
01F800
07FF00
1FFF80
3FFFC0
3E07C0
7C03E0
7C03E0
7801E0
F80000
F80000
F80000
F80000
F80000
F80000
7801E0
7C01E0
7C03E0
3E07C0
3FFFC0
1FFF80
07FF00
01FC00
ENDCHAR
STARTCHAR char265
ENCODING 265
SWIDTH 17 0
DWIDTH 16 0
BBX 14 22 1 0
BITMAP
07C0
07C0
0FE0
1CF0
1C70
0000
0FC0
1FF0
3FF8
7E7C
783C
F03C
F000
F000
F000
F000
F03C
F83C
7E7C
3FF8
3FF0
0FC0
ENDCHAR
STARTCHAR char266
ENCODING 266
SWIDTH 2 0
DWIDTH 21 0
BBX 19 27 1 0
BITMAP
00F000
00F000
00F000
00F000
000000
01F800
07FF00
1FFF80
3FFFC0
3E07C0
7C03E0
7C03E0
7801E0
F80000
F80000
F80000
F80000
F80000
F80000
7801E0
7C01E0
7C03E0
3E07C0
3FFFC0
1FFF80
07FF00
01FC00
ENDCHAR
STARTCHAR char267
ENCODING 267
SWIDTH 17 0
DWIDTH 16 0
BBX 14 22 1 0
BITMAP
07C0
07C0
07C0
07C0
0000
0000
0FC0
1FF0
3FF8
7E7C
783C
F03C
F000
F000
F000
F000
F03C
F83C
7E7C
3FF8
3FF0
0FC0
ENDCHAR
STARTCHAR char268
ENCODING 268
SWIDTH 2 0
DWIDTH 21 0
BBX 19 27 1 0
BITMAP
070E00
039C00
01F800
00F000
000000
01F800
07FF00
1FFF80
3FFFC0
3E07C0
7C03E0
7C03E0
7801E0
F80000
F80000
F80000
F80000
F80000
F80000
7801E0
7C01E0
7C03E0
3E07C0
3FFFC0
1FFF80
07FF00
01FC00
ENDCHAR
STARTCHAR char269
ENCODING 269
SWIDTH 17 0
DWIDTH 16 0
BBX 14 22 1 0
BITMAP
1C70
1EE0
0FE0
07C0
07C0
0000
0FC0
1FF0
3FF8
7E7C
783C
F03C
F000
F000
F000
F000
F03C
F83C
7E7C
3FF8
3FF0
0FC0
ENDCHAR
STARTCHAR char270
ENCODING 270
SWIDTH 2 0
DWIDTH 21 0
BBX 18 28 2 0
BITMAP
1E1C00
0F7800
07F000
03E000
000000
000000
FFF000
FFFC00
FFFE00
FFFF00
F81F80
F80F80
F80780
F807C0
F807C0
F807C0
F803C0
F803C0
F807C0
F807C0
F807C0
F80780
F80F80
F81F80
FFFF00
FFFE00
FFFC00
FFF000
ENDCHAR
STARTCHAR char271
ENCODING 271
SWIDTH 24 0
DWIDTH 18 0
BBX 20 22 1 0
BITMAP
001E70
001E70
001E70
001E10
001E10
001E30
0F9E60
1FDE40
3FFE00
7EFE00
F83E00
F03E00
F01E00
F01E00
F01E00
F01E00
F03E00
F83E00
7EFE00
7FFE00
3FDE00
0F9E00
ENDCHAR
STARTCHAR char272
ENCODING 272
SWIDTH 2 0
DWIDTH 21 0
BBX 20 22 0 0
BITMAP
3FFC00
3FFF00
3FFF80
3FFFC0
3E07E0
3E03E0
3E01E0
3E01F0
3E00F0
3E00F0
FFE0F0
FFE0F0
3E00F0
3E00F0
3E01F0
3E01E0
3E01E0
3E03E0
3FFFC0
3FFF80
3FFF00
3FFE00
ENDCHAR
STARTCHAR char273
ENCODING 273
SWIDTH 24 0
DWIDTH 18 0
BBX 17 22 1 0
BITMAP
001E00
001E00
01FF80
01FF80
001E00
001E00
0F9E00
1FDE00
3FFE00
7EFE00
F83E00
F03E00
F01E00
F01E00
F01E00
F01E00
F03E00
F83E00
7EFE00
3FFE00
1FDE00
0F9E00
ENDCHAR
STARTCHAR char274
ENCODING 274
SWIDTH 30 0
DWIDTH 20 0
BBX 16 27 2 0
BITMAP
0FF0
0FF0
0000
0000
0000
FFFF
FFFF
FFFF
FFFF
F800
F800
F800
F800
F800
FFFE
FFFE
FFFE
FFFE
F800
F800
F800
F800
F800
FFFF
FFFF
FFFF
FFFF
ENDCHAR
STARTCHAR char275
ENCODING 275
SWIDTH 17 0
DWIDTH 16 0
BBX 14 21 1 0
BITMAP
1FE0
1FE0
0000
0000
0000
0FC0
3FF0
7FF8
78F8
F03C
F03C
FFFC
FFFC
FFFC
F000
F000
F03C
787C
7FF8
3FF0
0FC0
ENDCHAR
STARTCHAR char276
ENCODING 276
SWIDTH 30 0
DWIDTH 20 0
BBX 16 27 2 0
BITMAP
1C38
1FF8
07E0
0000
0000
FFFF
FFFF
FFFF
FFFF
F800
F800
F800
F800
F800
FFFE
FFFE
FFFE
FFFE
F800
F800
F800
F800
F800
FFFF
FFFF
FFFF
FFFF
ENDCHAR
STARTCHAR char277
ENCODING 277
SWIDTH 17 0
DWIDTH 16 0
BBX 14 22 1 0
BITMAP
3070
3860
1FE0
0FC0
0000
0000
0FC0
3FF0
7FF8
78F8
F03C
F03C
FFFC
FFFC
FFFC
F000
F000
F03C
787C
7FF8
3FF0
0FC0
ENDCHAR
STARTCHAR char278
ENCODING 278
SWIDTH 30 0
DWIDTH 20 0
BBX 16 28 2 0
BITMAP
03C0
03C0
03C0
03C0
0000
0000
FFFF
FFFF
FFFF
FFFF
F800
F800
F800
F800
F800
FFFE
FFFE
FFFE
FFFE
F800
F800
F800
F800
F800
FFFF
FFFF
FFFF
FFFF
ENDCHAR
STARTCHAR char279
ENCODING 279
SWIDTH 17 0
DWIDTH 16 0
BBX 14 22 1 0
BITMAP
0780
0780
0780
0780
0000
0000
0FC0
3FF0
7FF8
78F8
F03C
F03C
FFFC
FFFC
FFFC
F000
F000
F03C
787C
7FF8
3FF0
0FC0
ENDCHAR
STARTCHAR char280
ENCODING 280
SWIDTH 30 0
DWIDTH 20 0
BBX 16 29 2 -7
BITMAP
FFFF
FFFF
FFFF
FFFF
F800
F800
F800
F800
F800
FFFE
FFFE
FFFE
FFFE
F800
F800
F800
F800
F800
FFFF
FFFF
FFFF
FFFF
000C
0018
0038
0038
003F
001F
0007
ENDCHAR
STARTCHAR char281
ENCODING 281
SWIDTH 17 0
DWIDTH 16 0
BBX 14 23 1 -7
BITMAP
0FC0
3FF0
7FF8
78F8
F03C
F03C
FFFC
FFFC
FFFC
F000
F000
F03C
787C
7FF8
3FF0
0FC0
0180
0380
0380
0380
03F0
03F0
0070
ENDCHAR
STARTCHAR char282
ENCODING 282
SWIDTH 30 0
DWIDTH 20 0
BBX 16 28 2 0
BITMAP
1C38
0E70
07E0
03C0
0000
0000
FFFF
FFFF
FFFF
FFFF
F800
F800
F800
F800
F800
FFFE
FFFE
FFFE
FFFE
F800
F800
F800
F800
F800
FFFF
FFFF
FFFF
FFFF
ENDCHAR
STARTCHAR char283
ENCODING 283
SWIDTH 17 0
DWIDTH 16 0
BBX 14 22 1 0
BITMAP
3870
1CE0
0FC0
0FC0
0780
0000
0FC0
3FF0
7FF8
78F8
F03C
F03C
FFFC
FFFC
FFFC
F000
F000
F03C
787C
7FF8
3FF0
0FC0
ENDCHAR
STARTCHAR char284
ENCODING 284
SWIDTH 8 0
DWIDTH 23 0
BBX 20 27 1 0
BITMAP
00F800
01FC00
03DE00
070700
000000
01FC00
07FF00
0FFFC0
1FFFC0
3F03E0
7C01E0
7C01F0
780000
F80000
F80000
F81FF0
F81FF0
F81FF0
F81FF0
7800F0
7C00F0
7E01F0
3F03F0
1FFFF0
0FFF70
07FE70
01F870
ENDCHAR
STARTCHAR char285
ENCODING 285
SWIDTH 24 0
DWIDTH 18 0
BBX 15 28 1 -6
BITMAP
03C0
07E0
07E0
0E70
1C38
0000
0F9E
1FDE
3FFE
7EFE
783E
F83E
F01E
F01E
F01E
F01E
F81E
F83E
7EFE
7FFE
3FDE
0F9E
001E
001E
F83C
7FFC
3FF8
0FE0
ENDCHAR
STARTCHAR char286
ENCODING 286
SWIDTH 8 0
DWIDTH 23 0
BBX 20 27 1 0
BITMAP
070700
03FE00
01FC00
000000
000000
01FC00
07FF00
0FFFC0
1FFFC0
3F03E0
7C01E0
7C01F0
780000
F80000
F80000
F81FF0
F81FF0
F81FF0
F81FF0
7800F0
7C00F0
7E01F0
3F03F0
1FFFF0
0FFF70
07FE70
01F870
ENDCHAR
STARTCHAR char287
ENCODING 287
SWIDTH 24 0
DWIDTH 18 0
BBX 15 28 1 -6
BITMAP
1838
1C30
0FF0
07E0
0000
0000
0F9E
1FDE
3FFE
7EFE
783E
F83E
F01E
F01E
F01E
F01E
F81E
F83E
7EFE
7FFE
3FDE
0F9E
001E
001E
F83C
7FFC
3FF8
0FE0
ENDCHAR
STARTCHAR char288
ENCODING 288
SWIDTH 8 0
DWIDTH 23 0
BBX 20 27 1 0
BITMAP
007800
007800
007800
007800
000000
01FC00
07FF00
0FFFC0
1FFFC0
3F03E0
7C01E0
7C01F0
780000
F80000
F80000
F81FF0
F81FF0
F81FF0
F81FF0
7800F0
7C00F0
7E01F0
3F03F0
1FFFF0
0FFF70
07FE70
01F870
ENDCHAR
STARTCHAR char289
ENCODING 289
SWIDTH 24 0
DWIDTH 18 0
BBX 15 28 1 -6
BITMAP
03C0
03C0
03C0
03C0
0000
0000
0F9E
1FDE
3FFE
7EFE
783E
F83E
F01E
F01E
F01E
F01E
F81E
F83E
7EFE
7FFE
3FDE
0F9E
001E
001E
F83C
7FFC
3FF8
0FE0
ENDCHAR
STARTCHAR char290
ENCODING 290
SWIDTH 8 0
DWIDTH 23 0
BBX 20 31 1 -9
BITMAP
01FC00
07FF00
0FFFC0
1FFFC0
3F03E0
7C01E0
7C01F0
780000
F80000
F80000
F81FF0
F81FF0
F81FF0
F81FF0
7800F0
7C00F0
7E01F0
3F03F0
1FFFF0
0FFF70
07FE70
01F870
000000
000000
007000
007000
007000
001000
003000
006000
004000
ENDCHAR
STARTCHAR char291
ENCODING 291
SWIDTH 24 0
DWIDTH 18 0
BBX 15 31 1 -6
BITMAP
00C0
0180
0300
0300
03C0
03C0
03C0
0000
0000
0F9E
1FDE
3FFE
7EFE
783E
F83E
F01E
F01E
F01E
F01E
F81E
F83E
7EFE
7FFE
3FDE
0F9E
001E
001E
F83C
7FFC
3FF8
0FE0
ENDCHAR
STARTCHAR char292
ENCODING 292
SWIDTH 2 0
DWIDTH 21 0
BBX 17 28 2 0
BITMAP
03E000
07F000
0F7800
1C1C00
000000
000000
F00780
F00780
F00780
F00780
F00780
F00780
F00780
F00780
FFFF80
FFFF80
FFFF80
FFFF80
F00780
F00780
F00780
F00780
F00780
F00780
F00780
F00780
F00780
F00780
ENDCHAR
STARTCHAR char293
ENCODING 293
SWIDTH 24 0
DWIDTH 18 0
BBX 14 28 2 0
BITMAP
0780
0FC0
1CE0
3870
0000
0000
F000
F000
F000
F000
F000
F000
F3E0
F7F8
FFF8
FFFC
F87C
F03C
F03C
F03C
F03C
F03C
F03C
F03C
F03C
F03C
F03C
F03C
ENDCHAR
STARTCHAR char294
ENCODING 294
SWIDTH 2 0
DWIDTH 21 0
BBX 21 22 0 0
BITMAP
3C01E0
3C01E0
3C01E0
FFFFF8
FFFFF8
3C01E0
3C01E0
3C01E0
3FFFE0
3FFFE0
3FFFE0
3FFFE0
3C01E0
3C01E0
3C01E0
3C01E0
3C01E0
3C01E0
3C01E0
3C01E0
3C01E0
3C01E0
ENDCHAR
STARTCHAR char295
ENCODING 295
SWIDTH 27 0
DWIDTH 19 0
BBX 16 22 2 0
BITMAP
3C00
3C00
3D80
3F80
3F00
FC00
FCF8
3DFC
3FFE
3FFE
3E1F
3C1F
3C0F
3C0F
3C0F
3C0F
3C0F
3C0F
3C0F
3C0F
3C0F
3C0F
ENDCHAR
STARTCHAR char296
ENCODING 296
SWIDTH 24 0
DWIDTH 8 0
BBX 10 27 -1 0
BITMAP
78C0
FFC0
C780
0000
0000
1E00
1E00
1E00
1E00
1E00
1E00
1E00
1E00
1E00
1E00
1E00
1E00
1E00
1E00
1E00
1E00
1E00
1E00
1E00
1E00
1E00
1E00
ENDCHAR
STARTCHAR char297
ENCODING 297
SWIDTH 24 0
DWIDTH 8 0
BBX 10 22 -1 0
BITMAP
78C0
FFC0
CFC0
C000
0000
0000
1E00
1E00
1E00
1E00
1E00
1E00
1E00
1E00
1E00
1E00
1E00
1E00
1E00
1E00
1E00
1E00
ENDCHAR
STARTCHAR char298
ENCODING 298
SWIDTH 24 0
DWIDTH 8 0
BBX 8 27 0 0
BITMAP
FF
FF
00
00
00
3C
3C
3C
3C
3C
3C
3C
3C
3C
3C
3C
3C
3C
3C
3C
3C
3C
3C
3C
3C
3C
3C
ENDCHAR
STARTCHAR char299
ENCODING 299
SWIDTH 24 0
DWIDTH 8 0
BBX 8 21 0 0
BITMAP
FF
FF
00
00
00
3C
3C
3C
3C
3C
3C
3C
3C
3C
3C
3C
3C
3C
3C
3C
3C
ENDCHAR
STARTCHAR char300
ENCODING 300
SWIDTH 24 0
DWIDTH 8 0
BBX 10 27 -1 0
BITMAP
E1C0
FFC0
3F00
0000
0000
1E00
1E00
1E00
1E00
1E00
1E00
1E00
1E00
1E00
1E00
1E00
1E00
1E00
1E00
1E00
1E00
1E00
1E00
1E00
1E00
1E00
1E00
ENDCHAR
STARTCHAR char301
ENCODING 301
SWIDTH 24 0
DWIDTH 8 0
BBX 10 22 -1 0
BITMAP
E1C0
7F80
7F80
1E00
0000
0000
1E00
1E00
1E00
1E00
1E00
1E00
1E00
1E00
1E00
1E00
1E00
1E00
1E00
1E00
1E00
1E00
ENDCHAR
STARTCHAR char302
ENCODING 302
SWIDTH 24 0
DWIDTH 8 0
BBX 6 29 1 -7
BITMAP
78
78
78
78
78
78
78
78
78
78
78
78
78
78
78
78
78
78
78
78
78
78
70
E0
C0
E0
FC
FC
1C
ENDCHAR
STARTCHAR char303
ENCODING 303
SWIDTH 24 0
DWIDTH 8 0
BBX 6 29 1 -7
BITMAP
78
78
78
78
00
00
78
78
78
78
78
78
78
78
78
78
78
78
78
78
78
78
70
E0
E0
E0
FC
FC
3C
ENDCHAR
STARTCHAR char304
ENCODING 304
SWIDTH 24 0
DWIDTH 8 0
BBX 4 28 2 0
BITMAP
F0
F0
F0
F0
00
00
F0
F0
F0
F0
F0
F0
F0
F0
F0
F0
F0
F0
F0
F0
F0
F0
F0
F0
F0
F0
F0
F0
ENDCHAR
STARTCHAR char305
ENCODING 305
SWIDTH 24 0
DWIDTH 8 0
BBX 4 16 2 0
BITMAP
F0
F0
F0
F0
F0
F0
F0
F0
F0
F0
F0
F0
F0
F0
F0
F0
ENDCHAR
STARTCHAR char306
ENCODING 306
SWIDTH 11 0
DWIDTH 24 0
BBX 20 22 2 0
BITMAP
F000F0
F000F0
F000F0
F000F0
F000F0
F000F0
F000F0
F000F0
F000F0
F000F0
F000F0
F000F0
F000F0
F000F0
F1E0F0
F1E0F0
F1E0F0
F1F1F0
F1FFF0
F0FFE0
F07FC0
F03F80
ENDCHAR
STARTCHAR char307
ENCODING 307
SWIDTH 17 0
DWIDTH 16 0
BBX 12 28 2 -6
BITMAP
F0F0
F0F0
F0F0
F0F0
0000
0000
F0F0
F0F0
F0F0
F0F0
F0F0
F0F0
F0F0
F0F0
F0F0
F0F0
F0F0
F0F0
F0F0
F0F0
F0F0
F0F0
00F0
00F0
00F0
03F0
03F0
03E0
ENDCHAR
STARTCHAR char308
ENCODING 308
SWIDTH 17 0
DWIDTH 16 0
BBX 16 28 1 0
BITMAP
0078
00FC
01CE
0387
0000
0000
0078
0078
0078
0078
0078
0078
0078
0078
0078
0078
0078
0078
0078
0078
F078
F078
F078
F8F8
FFF8
7FF0
3FE0
1FC0
ENDCHAR
STARTCHAR char309
ENCODING 309
SWIDTH 24 0
DWIDTH 8 0
BBX 9 28 0 -6
BITMAP
3C00
7E00
E700
C380
0000
0000
3C00
3C00
3C00
3C00
3C00
3C00
3C00
3C00
3C00
3C00
3C00
3C00
3C00
3C00
3C00
3C00
3C00
3C00
3C00
FC00
FC00
F800
ENDCHAR
STARTCHAR char310
ENCODING 310
SWIDTH 2 0
DWIDTH 21 0
BBX 19 31 2 -9
BITMAP
F80FC0
F80F80
F81F00
F83E00
F87C00
F8F800
F9F000
FBE000
FBC000
FFC000
FFC000
FFE000
FFF000
FCF800
F8F800
F87C00
F83E00
F83F00
F81F00
F80F80
F807C0
F807E0
000000
000000
01C000
01C000
01C000
004000
00C000
018000
010000
ENDCHAR
STARTCHAR char311
ENCODING 311
SWIDTH 17 0
DWIDTH 16 0
BBX 14 31 2 -9
BITMAP
F000
F000
F000
F000
F000
F000
F078
F0F0
F1E0
F3E0
F7C0
FF80
FF80
FF80
FFC0
FBC0
F3E0
F1E0
F1F0
F0F8
F0F8
F07C
0000
0000
0F00
0F00
0F00
0300
0200
0600
0C00
ENDCHAR
STARTCHAR char313
ENCODING 313
SWIDTH 24 0
DWIDTH 18 0
BBX 15 28 2 0
BITMAP
3E00
3C00
7800
7000
0000
0000
F800
F800
F800
F800
F800
F800
F800
F800
F800
F800
F800
F800
F800
F800
F800
F800
F800
F800
FFFE
FFFE
FFFE
FFFE
ENDCHAR
STARTCHAR char314
ENCODING 314
SWIDTH 24 0
DWIDTH 8 0
BBX 7 28 2 0
BITMAP
3E
7C
78
F0
00
00
F0
F0
F0
F0
F0
F0
F0
F0
F0
F0
F0
F0
F0
F0
F0
F0
F0
F0
F0
F0
F0
F0
ENDCHAR
STARTCHAR char315
ENCODING 315
SWIDTH 24 0
DWIDTH 18 0
BBX 15 31 2 -9
BITMAP
F800
F800
F800
F800
F800
F800
F800
F800
F800
F800
F800
F800
F800
F800
F800
F800
F800
F800
FFFE
FFFE
FFFE
FFFE
0000
0000
0380
0380
0380
0080
0180
0300
0200
ENDCHAR
STARTCHAR char316
ENCODING 316
SWIDTH 24 0
DWIDTH 8 0
BBX 4 31 2 -9
BITMAP
F0
F0
F0
F0
F0
F0
F0
F0
F0
F0
F0
F0
F0
F0
F0
F0
F0
F0
F0
F0
F0
F0
00
00
F0
F0
F0
30
20
E0
C0
ENDCHAR
STARTCHAR char317
ENCODING 317
SWIDTH 24 0
DWIDTH 18 0
BBX 15 22 2 0
BITMAP
FBC0
FBC0
FBC0
F8C0
F8C0
F880
FB80
F800
F800
F800
F800
F800
F800
F800
F800
F800
F800
F800
FFFE
FFFE
FFFE
FFFE
ENDCHAR
STARTCHAR char318
ENCODING 318
SWIDTH 24 0
DWIDTH 8 0
BBX 9 22 2 0
BITMAP
F380
F380
F380
F080
F080
F180
F300
F000
F000
F000
F000
F000
F000
F000
F000
F000
F000
F000
F000
F000
F000
F000
ENDCHAR
STARTCHAR char319
ENCODING 319
SWIDTH 24 0
DWIDTH 18 0
BBX 15 22 2 0
BITMAP
F800
F800
F800
F800
F800
F800
F800
F800
F800
F87C
F87C
F87C
F87C
F800
F800
F800
F800
F800
FFFE
FFFE
FFFE
FFFE
ENDCHAR
STARTCHAR char320
ENCODING 320
SWIDTH 5 0
DWIDTH 12 0
BBX 10 22 2 0
BITMAP
F000
F000
F000
F000
F000
F000
F000
F000
F000
F3C0
F3C0
F3C0
F3C0
F000
F000
F000
F000
F000
F000
F000
F000
F000
ENDCHAR
STARTCHAR char321
ENCODING 321
SWIDTH 2 0
DWIDTH 21 0
BBX 18 22 1 0
BITMAP
1F0000
1F0000
1F0000
1F0000
1F0000
1F0400
1F0C00
1F3C00
1F7C00
1FFC00
1FF000
1FC000
3F8000
FF0000
FF0000
FF0000
DF0000
1F0000
1FFFC0
1FFFC0
1FFFC0
1FFFC0
ENDCHAR
STARTCHAR char322
ENCODING 322
SWIDTH 5 0
DWIDTH 12 0
BBX 10 22 1 0
BITMAP
1E00
1E00
1E00
1E00
1E00
1E40
1EC0
1FC0
1FC0
1F80
3E00
7E00
FE00
FE00
DE00
1E00
1E00
1E00
1E00
1E00
1E00
1E00
ENDCHAR
STARTCHAR char323
ENCODING 323
SWIDTH 2 0
DWIDTH 21 0
BBX 17 28 2 0
BITMAP
007C00
00F800
00F000
01E000
000000
000000
F80780
F80780
FC0780
FC0780
FE0780
FF0780
FF0780
F78780
F78780
F3C780
F3C780
F1E780
F0F780
F0F780
F07F80
F07F80
F03F80
F03F80
F01F80
F00F80
F00F80
F00780
ENDCHAR
STARTCHAR char324
ENCODING 324
SWIDTH 24 0
DWIDTH 18 0
BBX 14 22 2 0
BITMAP
01F0
01E0
03C0
0380
0300
0000
F3E0
F7F8
FFF8
FFFC
F87C
F03C
F03C
F03C
F03C
F03C
F03C
F03C
F03C
F03C
F03C
F03C
ENDCHAR
STARTCHAR char325
ENCODING 325
SWIDTH 2 0
DWIDTH 21 0
BBX 17 31 2 -9
BITMAP
F80780
F80780
FC0780
FC0780
FE0780
FF0780
FF0780
F78780
F78780
F3C780
F3C780
F1E780
F0F780
F0F780
F07F80
F07F80
F03F80
F03F80
F01F80
F00F80
F00F80
F00780
000000
000000
01C000
01C000
01C000
004000
00C000
018000
010000
ENDCHAR
STARTCHAR char326
ENCODING 326
SWIDTH 24 0
DWIDTH 18 0
BBX 14 25 2 -9
BITMAP
F3E0
F7F8
FFF8
FFFC
F87C
F03C
F03C
F03C
F03C
F03C
F03C
F03C
F03C
F03C
F03C
F03C
0000
0000
0780
0780
0780
0180
0100
0700
0600
ENDCHAR
STARTCHAR char327
ENCODING 327
SWIDTH 2 0
DWIDTH 21 0
BBX 17 28 2 0
BITMAP
1C1C00
0F7800
07F000
03E000
000000
000000
F80780
F80780
FC0780
FC0780
FE0780
FF0780
FF0780
F78780
F78780
F3C780
F3C780
F1E780
F0F780
F0F780
F07F80
F07F80
F03F80
F03F80
F01F80
F00F80
F00F80
F00780
ENDCHAR
STARTCHAR char328
ENCODING 328
SWIDTH 24 0
DWIDTH 18 0
BBX 14 22 2 0
BITMAP
3870
1CE0
0FC0
0FC0
0780
0000
F3E0
F7F8
FFF8
FFFC
F87C
F03C
F03C
F03C
F03C
F03C
F03C
F03C
F03C
F03C
F03C
F03C
ENDCHAR
STARTCHAR char330
ENCODING 330
SWIDTH 2 0
DWIDTH 21 0
BBX 17 30 2 -8
BITMAP
F80780
F80780
FC0780
FC0780
FE0780
FF0780
FF0780
F78780
F78780
F3C780
F3C780
F1E780
F0F780
F0F780
F07F80
F07F80
F03F80
F03F80
F01F80
F00F80
F00F80
F00780
000780
000780
0F0780
0F8F80
07FF80
07FF00
03FE00
007000
ENDCHAR
STARTCHAR char331
ENCODING 331
SWIDTH 24 0
DWIDTH 18 0
BBX 14 22 2 -6
BITMAP
F3E0
F7F8
FFF8
FFFC
F87C
F03C
F03C
F03C
F03C
F03C
F03C
F03C
F03C
F03C
F03C
F03C
003C
003C
003C
00FC
00FC
00F8
ENDCHAR
STARTCHAR char332
ENCODING 332
SWIDTH 8 0
DWIDTH 23 0
BBX 21 26 1 0
BITMAP
03FE00
03FE00
000000
000000
01FC00
07FF00
0FFF80
1FFFC0
3F07E0
7C03E0
7C01F0
7800F0
F800F0
F800F8
F800F8
F800F8
F800F8
F800F8
7800F0
7C01F0
7C01F0
3F07E0
1FFFC0
0FFF80
07FF00
01FC00
ENDCHAR
STARTCHAR char333
ENCODING 333
SWIDTH 24 0
DWIDTH 18 0
BBX 16 21 1 0
BITMAP
0FF0
0FF0
0000
0000
0000
07E0
1FF8
3FFC
7E7E
783E
F81E
F01F
F01F
F00F
F01F
F81E
783E
7E7E
3FFC
1FF8
07E0
ENDCHAR
STARTCHAR char334
ENCODING 334
SWIDTH 8 0
DWIDTH 23 0
BBX 21 27 1 0
BITMAP
070700
03FE00
03FC00
000000
000000
01FC00
07FF00
0FFF80
1FFFC0
3F07E0
7C03E0
7C01F0
7800F0
F800F0
F800F8
F800F8
F800F8
F800F8
F800F8
7800F0
7C01F0
7C01F0
3F07E0
1FFFC0
0FFF80
07FF00
01FC00
ENDCHAR
STARTCHAR char335
ENCODING 335
SWIDTH 24 0
DWIDTH 18 0
BBX 16 22 1 0
BITMAP
1838
1C30
0FF0
07E0
0000
0000
07E0
1FF8
3FFC
7E7E
783E
F81E
F01F
F01F
F00F
F01F
F81E
783E
7E7E
3FFC
1FF8
07E0
ENDCHAR
STARTCHAR char336
ENCODING 336
SWIDTH 8 0
DWIDTH 23 0
BBX 21 28 1 0
BITMAP
00F380
00E780
01C700
01C600
038E00
000000
01FC00
07FF00
0FFF80
1FFFC0
3F07E0
7C03E0
7C01F0
7800F0
F800F0
F800F8
F800F8
F800F8
F800F8
F800F8
7800F0
7C01F0
7C01F0
3F07E0
1FFFC0
0FFF80
07FF00
01FC00
ENDCHAR
STARTCHAR char337
ENCODING 337
SWIDTH 24 0
DWIDTH 18 0
BBX 16 22 1 0
BITMAP
039E
071C
071C
0E38
0C30
0000
07E0
1FF8
3FFC
7E7E
783E
F81E
F01F
F01F
F00F
F01F
F81E
783E
7E7E
3FFC
1FF8
07E0
ENDCHAR
STARTCHAR char338
ENCODING 338
SWIDTH 26 0
DWIDTH 29 0
BBX 27 22 1 0
BITMAP
03E7FFE0
0FFFFFE0
1FFFFFE0
3FFFFFE0
7E0F8000
7C078000
F8078000
F8078000
F0078000
F007FFC0
F007FFC0
F007FFC0
F007FFC0
F0078000
F8078000
F8078000
7C078000
7E0F8000
3FFFFFE0
1FFFFFE0
0FF7FFE0
03E7FFE0
ENDCHAR
STARTCHAR char339
ENCODING 339
SWIDTH 23 0
DWIDTH 28 0
BBX 26 16 1 0
BITMAP
0FE0F800
3FF3FE00
7FFFFF00
7EFF8F80
F83F0780
F01F03C0
F01FFFC0
F01FFFC0
F01FFFC0
F01E0000
F01E0000
F83F03C0
7EFF8F80
7FFFFF00
1FF3FE00
0FE0F800
ENDCHAR
STARTCHAR char340
ENCODING 340
SWIDTH 2 0
DWIDTH 21 0
BBX 18 28 2 0
BITMAP
007C00
00F800
00F000
01E000
000000
000000
FFFC00
FFFF00
FFFF80
FFFF80
F80F80
F807C0
F807C0
F80780
F80780
FFFF00
FFFF00
FFFC00
FFFF00
F80F00
F80F80
F80F80
F80F80
F80F80
F80F80
F80F80
F80780
F807C0
ENDCHAR
STARTCHAR char341
ENCODING 341
SWIDTH 2 0
DWIDTH 11 0
BBX 9 22 2 0
BITMAP
0F80
0F00
1E00
1C00
1800
0000
F380
F780
FF80
FF80
F800
F000
F000
F000
F000
F000
F000
F000
F000
F000
F000
F000
ENDCHAR
STARTCHAR char342
ENCODING 342
SWIDTH 2 0
DWIDTH 21 0
BBX 18 31 2 -9
BITMAP
FFFC00
FFFF00
FFFF80
FFFF80
F80F80
F807C0
F807C0
F80780
F80780
FFFF00
FFFF00
FFFC00
FFFF00
F80F00
F80F80
F80F80
F80F80
F80F80
F80F80
F80F80
F80780
F807C0
000000
000000
01C000
01C000
01C000
004000
00C000
018000
010000
ENDCHAR
STARTCHAR char343
ENCODING 343
SWIDTH 2 0
DWIDTH 11 0
BBX 9 25 2 -9
BITMAP
F380
F780
FF80
FF80
F800
F000
F000
F000
F000
F000
F000
F000
F000
F000
F000
F000
0000
0000
F000
F000
F000
2000
2000
E000
C000
ENDCHAR
STARTCHAR char344
ENCODING 344
SWIDTH 2 0
DWIDTH 21 0
BBX 18 28 2 0
BITMAP
1C1C00
0F7800
07F000
03E000
000000
000000
FFFC00
FFFF00
FFFF80
FFFF80
F80F80
F807C0
F807C0
F80780
F80780
FFFF00
FFFF00
FFFC00
FFFF00
F80F00
F80F80
F80F80
F80F80
F80F80
F80F80
F80F80
F80780
F807C0
ENDCHAR
STARTCHAR char345
ENCODING 345
SWIDTH 2 0
DWIDTH 11 0
BBX 10 22 1 0
BITMAP
E1C0
7380
7F00
3F00
1E00
0000
79C0
7BC0
7FC0
7FC0
7C00
7800
7800
7800
7800
7800
7800
7800
7800
7800
7800
7800
ENDCHAR
STARTCHAR char346
ENCODING 346
SWIDTH 30 0
DWIDTH 20 0
BBX 18 27 1 0
BITMAP
007C00
00F800
00F000
01E000
000000
07F000
1FFC00
3FFE00
7FFF00
780F00
F80F80
F80780
F80000
7E0000
7FE000
3FFE00
0FFF00
00FF80
000F80
0007C0
F007C0
F80780
F80780
7FFF80
3FFF00
1FFE00
07F800
ENDCHAR
STARTCHAR char347
ENCODING 347
SWIDTH 17 0
DWIDTH 16 0
BBX 14 22 1 0
BITMAP
01F0
01E0
01C0
0380
0380
0000
0FC0
3FF0
7FF8
7C78
F83C
F800
7F00
7FF0
1FF8
03FC
007C
F03C
F87C
7FFC
3FF8
1FE0
ENDCHAR
STARTCHAR char348
ENCODING 348
SWIDTH 30 0
DWIDTH 20 0
BBX 18 27 1 0
BITMAP
03E000
07F000
0F7800
1C1C00
000000
07F000
1FFC00
3FFE00
7FFF00
780F00
F80F80
F80780
F80000
7E0000
7FE000
3FFE00
0FFF00
00FF80
000F80
0007C0
F007C0
F80780
F80780
7FFF80
3FFF00
1FFE00
07F800
ENDCHAR
STARTCHAR char349
ENCODING 349
SWIDTH 17 0
DWIDTH 16 0
BBX 14 22 1 0
BITMAP
0780
0FC0
0FE0
1CE0
3870
0000
0FC0
3FF0
7FF8
7C78
F83C
F800
7F00
7FF0
1FF8
03FC
007C
F03C
F87C
7FFC
3FF8
1FE0
ENDCHAR
STARTCHAR char350
ENCODING 350
SWIDTH 30 0
DWIDTH 20 0
BBX 18 28 1 -6
BITMAP
07F000
1FFC00
3FFE00
7FFF00
780F00
F80F80
F80780
F80000
7E0000
7FE000
3FFE00
0FFF00
00FF80
000F80
0007C0
F007C0
F80780
F80780
7FFF80
3FFF00
1FFE00
07F000
018000
01F000
007000
003000
07F000
03E000
ENDCHAR
STARTCHAR char351
ENCODING 351
SWIDTH 17 0
DWIDTH 16 0
BBX 14 23 1 -7
BITMAP
0FC0
3FF0
7FF8
7C78
F83C
F800
7F00
7FF0
1FF8
03FC
007C
F03C
F87C
7FFC
3FF8
1FE0
0200
07C0
01C0
00E0
10C0
1FC0
0700
ENDCHAR
STARTCHAR char352
ENCODING 352
SWIDTH 30 0
DWIDTH 20 0
BBX 18 27 1 0
BITMAP
1E1C00
0F7800
07F000
03E000
000000
07F000
1FFC00
3FFE00
7FFF00
780F00
F80F80
F80780
F80000
7E0000
7FE000
3FFE00
0FFF00
00FF80
000F80
0007C0
F007C0
F80780
F80780
7FFF80
3FFF00
1FFE00
07F800
ENDCHAR
STARTCHAR char353
ENCODING 353
SWIDTH 17 0
DWIDTH 16 0
BBX 14 22 1 0
BITMAP
3870
1CE0
0FE0
0FC0
0780
0000
0FC0
3FF0
7FF8
7C78
F83C
F800
7F00
7FF0
1FF8
03FC
007C
F03C
F87C
7FFC
3FF8
1FE0
ENDCHAR
STARTCHAR char354
ENCODING 354
SWIDTH 24 0
DWIDTH 18 0
BBX 18 29 0 -7
BITMAP
FFFFC0
FFFFC0
FFFFC0
FFFFC0
01E000
01E000
01E000
01E000
01E000
01E000
01E000
01E000
01E000
01E000
01E000
01E000
01E000
01E000
01E000
01E000
01E000
01E000
00C000
018000
01F000
003000
043000
07F000
03C000
ENDCHAR
STARTCHAR char355
ENCODING 355
SWIDTH 30 0
DWIDTH 10 0
BBX 9 27 0 -7
BITMAP
3E00
3E00
3E00
3E00
FF80
FF80
FF80
3E00
3E00
3E00
3E00
3E00
3E00
3E00
3E00
3E00
3E00
3F80
1F80
0F80
0C00
0C00
1F80
0380
2380
7F00
1E00
ENDCHAR
STARTCHAR char356
ENCODING 356
SWIDTH 24 0
DWIDTH 18 0
BBX 18 28 0 0
BITMAP
0E1C00
073800
03F000
01E000
000000
000000
FFFFC0
FFFFC0
FFFFC0
FFFFC0
01E000
01E000
01E000
01E000
01E000
01E000
01E000
01E000
01E000
01E000
01E000
01E000
01E000
01E000
01E000
01E000
01E000
01E000
ENDCHAR
STARTCHAR char357
ENCODING 357
SWIDTH 30 0
DWIDTH 10 0
BBX 11 24 0 0
BITMAP
01E0
01E0
01E0
0060
3E60
3EC0
3F80
3E00
FF80
FF80
FF80
3E00
3E00
3E00
3E00
3E00
3E00
3E00
3E00
3E00
3E00
3F80
1F80
0F80
ENDCHAR
STARTCHAR char360
ENCODING 360
SWIDTH 2 0
DWIDTH 21 0
BBX 17 27 2 0
BITMAP
0F8C00
0FF800
0CF800
000000
000000
F80780
F80780
F80780
F80780
F80780
F80780
F80780
F80780
F80780
F80780
F80780
F80780
F80780
F80780
F80780
F80780
F80F80
7C1F80
7FFF00
3FFE00
1FFC00
07F000
ENDCHAR
STARTCHAR char361
ENCODING 361
SWIDTH 24 0
DWIDTH 18 0
BBX 14 22 2 0
BITMAP
1E30
3FF0
33F0
3000
0000
0000
F03C
F03C
F03C
F03C
F03C
F03C
F03C
F03C
F03C
F03C
F03C
F07C
FDFC
FFFC
7FBC
3F3C
ENDCHAR
STARTCHAR char362
ENCODING 362
SWIDTH 2 0
DWIDTH 21 0
BBX 17 27 2 0
BITMAP
0FF800
0FF800
000000
000000
000000
F80780
F80780
F80780
F80780
F80780
F80780
F80780
F80780
F80780
F80780
F80780
F80780
F80780
F80780
F80780
F80780
F80F80
7C1F80
7FFF00
3FFE00
1FFC00
07F000
ENDCHAR
STARTCHAR char363
ENCODING 363
SWIDTH 24 0
DWIDTH 18 0
BBX 14 21 2 0
BITMAP
1FE0
1FE0
0000
0000
0000
F03C
F03C
F03C
F03C
F03C
F03C
F03C
F03C
F03C
F03C
F03C
F07C
FDFC
FFFC
7FBC
3F3C
ENDCHAR
STARTCHAR char364
ENCODING 364
SWIDTH 2 0
DWIDTH 21 0
BBX 17 27 2 0
BITMAP
1E3C00
0FF800
07F000
000000
000000
F80780
F80780
F80780
F80780
F80780
F80780
F80780
F80780
F80780
F80780
F80780
F80780
F80780
F80780
F80780
F80780
F80F80
7C1F80
7FFF00
3FFE00
1FFC00
07F000
ENDCHAR
STARTCHAR char365
ENCODING 365
SWIDTH 24 0
DWIDTH 18 0
BBX 14 22 2 0
BITMAP
3870
1FE0
1FC0
0780
0000
0000
F03C
F03C
F03C
F03C
F03C
F03C
F03C
F03C
F03C
F03C
F03C
F07C
FDFC
FFFC
7FBC
3F3C
ENDCHAR
STARTCHAR char366
ENCODING 366
SWIDTH 2 0
DWIDTH 21 0
BBX 17 28 2 0
BITMAP
01E000
036000
023000
032000
03E000
008000
F80780
F80780
F80780
F80780
F80780
F80780
F80780
F80780
F80780
F80780
F80780
F80780
F80780
F80780
F80780
F80780
F80F80
7C1F80
7FFF00
3FFE00
1FFC00
07F000
ENDCHAR
STARTCHAR char367
ENCODING 367
SWIDTH 24 0
DWIDTH 18 0
BBX 14 23 2 0
BITMAP
0780
0F80
0CC0
0CC0
0F80
0780
0000
F03C
F03C
F03C
F03C
F03C
F03C
F03C
F03C
F03C
F03C
F03C
F07C
FDFC
FFFC
7FBC
3F3C
ENDCHAR
STARTCHAR char368
ENCODING 368
SWIDTH 2 0
DWIDTH 21 0
BBX 17 28 2 0
BITMAP
03CF00
038E00
071C00
071800
0E3800
000000
F80780
F80780
F80780
F80780
F80780
F80780
F80780
F80780
F80780
F80780
F80780
F80780
F80780
F80780
F80780
F80780
F80F80
7C1F80
7FFF00
3FFE00
1FFC00
07F000
ENDCHAR
STARTCHAR char369
ENCODING 369
SWIDTH 24 0
DWIDTH 18 0
BBX 14 22 2 0
BITMAP
073C
0E38
0E38
1C70
1860
0000
F03C
F03C
F03C
F03C
F03C
F03C
F03C
F03C
F03C
F03C
F03C
F07C
FDFC
FFFC
7FBC
3F3C
ENDCHAR
STARTCHAR char370
ENCODING 370
SWIDTH 2 0
DWIDTH 21 0
BBX 17 29 2 -7
BITMAP
F80780
F80780
F80780
F80780
F80780
F80780
F80780
F80780
F80780
F80780
F80780
F80780
F80780
F80780
F80780
F80780
F80F80
7C1F80
7FFF00
3FFE00
1FFC00
07F000
006000
00C000
01C000
01C000
01F800
00F800
003800
ENDCHAR
STARTCHAR char371
ENCODING 371
SWIDTH 24 0
DWIDTH 18 0
BBX 14 23 2 -7
BITMAP
F03C
F03C
F03C
F03C
F03C
F03C
F03C
F03C
F03C
F03C
F03C
F07C
FDFC
FFFC
7FBC
3F3C
0070
00E0
00E0
00E0
00FC
007C
001C
ENDCHAR
STARTCHAR char372
ENCODING 372
SWIDTH 23 0
DWIDTH 28 0
BBX 26 28 1 0
BITMAP
001E0000
003F0000
00738000
00E1C000
00000000
00000000
F01E03C0
F03E07C0
F83F07C0
F83F0780
783F0780
783F0780
787F0F80
7C778F00
3C738F00
3C738F00
3C738F00
1CE39E00
1EE3DE00
1EE1DE00
1EE1DC00
0EE1DC00
0FC1FC00
0FC1FC00
0FC0F800
07C0F800
07C0F800
0780F800
ENDCHAR
STARTCHAR char373
ENCODING 373
SWIDTH 8 0
DWIDTH 23 0
BBX 22 22 0 0
BITMAP
007C00
00FC00
00EE00
01C700
000000
000000
F87C3C
787C3C
787C3C
787C78
78FC78
3CEE78
3CEE78
3CEE70
3DCEF0
1FCEF0
1FC7F0
1FC7E0
0FC7E0
0F87E0
0F87C0
0F83C0
ENDCHAR
STARTCHAR char374
ENCODING 374
SWIDTH 30 0
DWIDTH 20 0
BBX 18 28 1 0
BITMAP
01F000
03F000
073800
0E1C00
000000
000000
F807C0
780780
7C0F80
3C0F00
3E1F00
1E1E00
1F3E00
0F3C00
0FBC00
07F800
07F800
03F000
03F000
01E000
01E000
01E000
01E000
01E000
01E000
01E000
01E000
01E000
ENDCHAR
STARTCHAR char375
ENCODING 375
SWIDTH 17 0
DWIDTH 16 0
BBX 16 28 0 -6
BITMAP
03C0
07E0
0F70
0C38
0000
0000
F81F
781E
7C1E
3C1E
3C3C
3C3C
1E38
1E78
1E78
0F70
0F70
0FF0
07E0
07E0
07E0
03C0
03C0
03C0
0780
1F80
1F00
1E00
ENDCHAR
STARTCHAR char376
ENCODING 376
SWIDTH 30 0
DWIDTH 20 0
BBX 18 27 1 0
BITMAP
0F3C00
0F3C00
0F3C00
000000
000000
F807C0
780780
7C0F80
3C0F00
3E1F00
1E1E00
1F3E00
0F3C00
0FBC00
07F800
07F800
03F000
03F000
01E000
01E000
01E000
01E000
01E000
01E000
01E000
01E000
01E000
ENDCHAR
STARTCHAR char377
ENCODING 377
SWIDTH 24 0
DWIDTH 18 0
BBX 16 28 1 0
BITMAP
00F8
00F0
01E0
01C0
0000
0000
FFFF
FFFF
FFFF
FFFF
003E
007E
007C
00F8
01F0
03F0
03E0
07C0
0F80
1F80
1F00
3E00
7C00
FC00
FFFF
FFFF
FFFF
FFFF
ENDCHAR
STARTCHAR char378
ENCODING 378
SWIDTH 14 0
DWIDTH 15 0
BBX 13 22 1 0
BITMAP
01E0
03C0
0380
0780
0700
0000
FFF0
FFF0
FFF0
01F0
03E0
03E0
07C0
0F80
1F00
3E00
7E00
7C00
F800
FFF8
FFF8
FFF8
ENDCHAR
STARTCHAR char379
ENCODING 379
SWIDTH 24 0
DWIDTH 18 0
BBX 16 28 1 0
BITMAP
03C0
03C0
03C0
03C0
0000
0000
FFFF
FFFF
FFFF
FFFF
003E
007E
007C
00F8
01F0
03F0
03E0
07C0
0F80
1F80
1F00
3E00
7C00
FC00
FFFF
FFFF
FFFF
FFFF
ENDCHAR
STARTCHAR char380
ENCODING 380
SWIDTH 14 0
DWIDTH 15 0
BBX 13 22 1 0
BITMAP
0F00
0F00
0F00
0F00
0000
0000
FFF0
FFF0
FFF0
01F0
03E0
03E0
07C0
0F80
1F00
3E00
7E00
7C00
F800
FFF8
FFF8
FFF8
ENDCHAR
STARTCHAR char381
ENCODING 381
SWIDTH 24 0
DWIDTH 18 0
BBX 16 28 1 0
BITMAP
1C38
0E70
07E0
07C0
0000
0000
FFFF
FFFF
FFFF
FFFF
003E
007E
007C
00F8
01F0
03F0
03E0
07C0
0F80
1F80
1F00
3E00
7C00
FC00
FFFF
FFFF
FFFF
FFFF
ENDCHAR
STARTCHAR char382
ENCODING 382
SWIDTH 14 0
DWIDTH 15 0
BBX 13 22 1 0
BITMAP
38E0
3DC0
1F80
0F80
0000
0000
FFF0
FFF0
FFF0
01F0
03E0
03E0
07C0
0F80
1F00
3E00
7E00
7C00
F800
FFF8
FFF8
FFF8
ENDCHAR
STARTCHAR char383
ENCODING 383
SWIDTH 30 0
DWIDTH 10 0
BBX 6 22 3 0
BITMAP
7C
FC
FC
F0
F0
F0
F0
F0
F0
F0
F0
F0
F0
F0
F0
F0
F0
F0
F0
F0
F0
F0
ENDCHAR
STARTCHAR char398
ENCODING 398
SWIDTH 30 0
DWIDTH 20 0
BBX 16 22 2 0
BITMAP
7FFF
7FFF
7FFF
7FFF
000F
000F
000F
000F
000F
3FFF
3FFF
3FFF
3FFF
000F
000F
000F
000F
000F
FFFF
FFFF
FFFF
FFFF
ENDCHAR
STARTCHAR char402
ENCODING 402
SWIDTH 17 0
DWIDTH 16 0
BBX 15 28 1 -6
BITMAP
003E
00FE
01FC
01F4
01E0
01E0
03C0
03C0
3FFC
3FFC
3FFC
03C0
0780
0780
0780
0780
0780
0780
0F00
0F00
0F00
0F00
0F00
1F00
9E00
FE00
FC00
F800
ENDCHAR
STARTCHAR char416
ENCODING 416
SWIDTH 11 0
DWIDTH 24 0
BBX 22 25 1 0
BITMAP
00003C
00003C
00003C
01FC3C
07FF0C
0FFF8C
1FFFD8
3F07F8
7C03F0
7C01F0
7800F0
F800F0
F800F8
F800F8
F800F8
F800F8
F800F8
7800F0
7C01F0
7C01F0
3F07E0
3FFFC0
1FFFC0
07FF00
01FC00
ENDCHAR
STARTCHAR char417
ENCODING 417
SWIDTH 30 0
DWIDTH 20 0
BBX 18 20 1 0
BITMAP
0003C0
0003C0
0003C0
0003C0
07E0C0
1FF8C0
3FFDC0
7E7F80
783F00
F81E00
F01F00
F00F00
F00F00
F01F00
F81E00
783E00
7E7E00
3FFC00
1FF800
07E000
ENDCHAR
STARTCHAR char431
ENCODING 431
SWIDTH 11 0
DWIDTH 24 0
BBX 22 26 2 0
BITMAP
00003C
00003C
00003C
00003C
F8078C
F8079C
F80798
F807B8
F807F0
F807E0
F80780
F80780
F80780
F80780
F80780
F80780
F80780
F80780
F80780
F80780
F80F80
7C1F80
7FFF00
3FFE00
1FFC00
07F000
ENDCHAR
STARTCHAR char432
ENCODING 432
SWIDTH 2 0
DWIDTH 21 0
BBX 19 20 2 0
BITMAP
0001E0
0001E0
0001E0
0001E0
F03C60
F03CC0
F03CC0
F03D80
F03F80
F03E00
F03C00
F03C00
F03C00
F03C00
F03C00
F07C00
FDFC00
FFFC00
7FBC00
3E3C00
ENDCHAR
STARTCHAR char461
ENCODING 461
SWIDTH 2 0
DWIDTH 21 0
BBX 19 28 1 0
BITMAP
070E00
039C00
03F800
01F000
000000
000000
01F000
01F800
03F800
03F800
03FC00
07FC00
07BC00
07BE00
0F9E00
0F1E00
0F1F00
1F0F00
1E0F00
1E0F80
3FFF80
3FFF80
3FFFC0
7FFFC0
7803C0
7803E0
F801E0
F001E0
ENDCHAR
STARTCHAR char462
ENCODING 462
SWIDTH 17 0
DWIDTH 16 0
BBX 14 22 1 0
BITMAP
3870
1CE0
1FC0
0FC0
0780
0000
0FC0
3FF0
7FF8
7CF8
F078
0078
01F8
3FF8
7FF8
F878
F078
F078
F9F8
FFF8
7FFC
3E3C
ENDCHAR
STARTCHAR char463
ENCODING 463
SWIDTH 24 0
DWIDTH 8 0
BBX 10 28 -1 0
BITMAP
E1C0
7380
3F00
1E00
0000
0000
1E00
1E00
1E00
1E00
1E00
1E00
1E00
1E00
1E00
1E00
1E00
1E00
1E00
1E00
1E00
1E00
1E00
1E00
1E00
1E00
1E00
1E00
ENDCHAR
STARTCHAR char464
ENCODING 464
SWIDTH 24 0
DWIDTH 8 0
BBX 10 22 -1 0
BITMAP
E1C0
7380
3F00
1E00
0000
0000
1E00
1E00
1E00
1E00
1E00
1E00
1E00
1E00
1E00
1E00
1E00
1E00
1E00
1E00
1E00
1E00
ENDCHAR
STARTCHAR char465
ENCODING 465
SWIDTH 8 0
DWIDTH 23 0
BBX 21 27 1 0
BITMAP
070700
03DE00
01FC00
00F800
000000
01FC00
07FF00
0FFF80
1FFFC0
3F07E0
7C03E0
7C01F0
7800F0
F800F0
F800F8
F800F8
F800F8
F800F8
F800F8
7800F0
7C01F0
7C01F0
3F07E0
1FFFC0
0FFF80
07FF00
01FC00
ENDCHAR
STARTCHAR char466
ENCODING 466
SWIDTH 24 0
DWIDTH 18 0
BBX 16 22 1 0
BITMAP
1C38
0E70
07E0
07E0
03C0
0000
07E0
1FF8
3FFC
7E7E
783E
F81E
F01F
F01F
F00F
F01F
F81E
783E
7E7E
3FFC
1FF8
07E0
ENDCHAR
STARTCHAR char467
ENCODING 467
SWIDTH 2 0
DWIDTH 21 0
BBX 17 28 2 0
BITMAP
1C1C00
0F7800
07F000
03E000
000000
000000
F80780
F80780
F80780
F80780
F80780
F80780
F80780
F80780
F80780
F80780
F80780
F80780
F80780
F80780
F80780
F80780
F80F80
7C1F80
7FFF00
3FFE00
1FFC00
07F000
ENDCHAR
STARTCHAR char468
ENCODING 468
SWIDTH 24 0
DWIDTH 18 0
BBX 14 22 2 0
BITMAP
3870
1CE0
0FC0
0780
0000
0000
F03C
F03C
F03C
F03C
F03C
F03C
F03C
F03C
F03C
F03C
F03C
F07C
FDFC
FFFC
7FBC
3F3C
ENDCHAR
STARTCHAR char471
ENCODING 471
SWIDTH 2 0
DWIDTH 21 0
BBX 17 33 2 0
BITMAP
007C00
00F800
00F000
01E000
000000
000000
0F3800
0F3800
0F3800
000000
000000
F80780
F80780
F80780
F80780
F80780
F80780
F80780
F80780
F80780
F80780
F80780
F80780
F80780
F80780
F80780
F80780
F80F80
7C1F80
7FFF00
3FFE00
1FFC00
07F000
ENDCHAR
STARTCHAR char472
ENCODING 472
SWIDTH 24 0
DWIDTH 18 0
BBX 14 28 2 0
BITMAP
01F0
01E0
03C0
0380
0000
0000
3CF0
3CF0
3CF0
0000
0000
0000
F03C
F03C
F03C
F03C
F03C
F03C
F03C
F03C
F03C
F03C
F03C
F07C
FDFC
FFFC
7FBC
3F3C
ENDCHAR
STARTCHAR char473
ENCODING 473
SWIDTH 2 0
DWIDTH 21 0
BBX 17 33 2 0
BITMAP
1C1C00
0F7800
07F000
03E000
000000
000000
0F3800
0F3800
0F3800
000000
000000
F80780
F80780
F80780
F80780
F80780
F80780
F80780
F80780
F80780
F80780
F80780
F80780
F80780
F80780
F80780
F80780
F80F80
7C1F80
7FFF00
3FFE00
1FFC00
07F000
ENDCHAR
STARTCHAR char474
ENCODING 474
SWIDTH 24 0
DWIDTH 18 0
BBX 14 28 2 0
BITMAP
3870
1CE0
0FC0
0780
0000
0000
3CF0
3CF0
3CF0
0000
0000
0000
F03C
F03C
F03C
F03C
F03C
F03C
F03C
F03C
F03C
F03C
F03C
F07C
FDFC
FFFC
7FBC
3F3C
ENDCHAR
STARTCHAR char475
ENCODING 475
SWIDTH 2 0
DWIDTH 21 0
BBX 17 33 2 0
BITMAP
0F0000
078000
038000
03C000
000000
000000
0F3800
0F3800
0F3800
000000
000000
F80780
F80780
F80780
F80780
F80780
F80780
F80780
F80780
F80780
F80780
F80780
F80780
F80780
F80780
F80780
F80780
F80F80
7C1F80
7FFF00
3FFE00
1FFC00
07F000
ENDCHAR
STARTCHAR char476
ENCODING 476
SWIDTH 24 0
DWIDTH 18 0
BBX 14 28 2 0
BITMAP
3E00
1E00
0F00
0700
0000
0000
3CF0
3CF0
3CF0
0000
0000
0000
F03C
F03C
F03C
F03C
F03C
F03C
F03C
F03C
F03C
F03C
F03C
F07C
FDFC
FFFC
7FBC
3F3C
ENDCHAR
STARTCHAR char477
ENCODING 477
SWIDTH 17 0
DWIDTH 16 0
BBX 14 16 1 0
BITMAP
0FC0
3FF0
7FF8
F878
F03C
003C
003C
FFFC
FFFC
FFFC
F03C
F03C
7C78
7FF8
3FF0
0FC0
ENDCHAR
STARTCHAR char486
ENCODING 486
SWIDTH 8 0
DWIDTH 23 0
BBX 20 27 1 0
BITMAP
070700
03DE00
01FC00
00F800
000000
01FC00
07FF00
0FFFC0
1FFFC0
3F03E0
7C01E0
7C01F0
780000
F80000
F80000
F81FF0
F81FF0
F81FF0
F81FF0
7800F0
7C00F0
7E01F0
3F03F0
1FFFF0
0FFF70
07FE70
01F870
ENDCHAR
STARTCHAR char487
ENCODING 487
SWIDTH 24 0
DWIDTH 18 0
BBX 15 28 1 -6
BITMAP
1C38
0E70
07E0
07E0
03C0
0000
0F9E
1FDE
3FFE
7EFE
783E
F83E
F01E
F01E
F01E
F01E
F81E
F83E
7EFE
7FFE
3FDE
0F9E
001E
001E
F83C
7FFC
3FF8
0FE0
ENDCHAR
STARTCHAR char490
ENCODING 490
SWIDTH 8 0
DWIDTH 23 0
BBX 21 29 1 -7
BITMAP
01FC00
07FF00
0FFF80
1FFFC0
3F07E0
7C03E0
7C01F0
7800F0
F800F0
F800F8
F800F8
F800F8
F800F8
F800F8
7800F0
7C01F0
7C01F0
3F07E0
1FFFC0
0FFF80
07FF00
01FC00
003800
007000
007000
007000
007E00
003E00
000E00
ENDCHAR
STARTCHAR char491
ENCODING 491
SWIDTH 24 0
DWIDTH 18 0
BBX 16 23 1 -7
BITMAP
07E0
1FF8
3FFC
7E7E
783E
F81E
F01F
F01F
F00F
F01F
F81E
783E
7E7E
3FFC
1FF8
07E0
00C0
01C0
0180
01C0
01F8
01F8
0038
ENDCHAR
STARTCHAR char496
ENCODING 496
SWIDTH 24 0
DWIDTH 8 0
BBX 9 28 0 -6
BITMAP
C380
F700
7E00
3C00
0000
0000
3C00
3C00
3C00
3C00
3C00
3C00
3C00
3C00
3C00
3C00
3C00
3C00
3C00
3C00
3C00
3C00
3C00
3C00
3C00
FC00
FC00
F800
ENDCHAR
STARTCHAR char500
ENCODING 500
SWIDTH 8 0
DWIDTH 23 0
BBX 20 27 1 0
BITMAP
001F00
003E00
003C00
007800
000000
01FC00
07FF00
0FFFC0
1FFFC0
3F03E0
7C01E0
7C01F0
780000
F80000
F80000
F81FF0
F81FF0
F81FF0
F81FF0
7800F0
7C00F0
7E01F0
3F03F0
1FFFF0
0FFF70
07FE70
01F870
ENDCHAR
STARTCHAR char501
ENCODING 501
SWIDTH 24 0
DWIDTH 18 0
BBX 15 28 1 -6
BITMAP
00F8
00F0
01E0
01C0
0180
0000
0F9E
1FDE
3FFE
7EFE
783E
F83E
F01E
F01E
F01E
F01E
F81E
F83E
7EFE
7FFE
3FDE
0F9E
001E
001E
F83C
7FFC
3FF8
0FE0
ENDCHAR
STARTCHAR char506
ENCODING 506
SWIDTH 2 0
DWIDTH 21 0
BBX 19 33 1 0
BITMAP
003E00
003C00
007800
00F000
000000
00F000
019800
011800
019800
00F000
000000
01F000
01F800
03F800
03F800
03FC00
07FC00
07BC00
07BE00
0F9E00
0F1E00
0F1F00
1F0F00
1E0F00
1E0F80
3FFF80
3FFF80
3FFFC0
7FFFC0
7803C0
7803E0
F801E0
F001E0
ENDCHAR
STARTCHAR char507
ENCODING 507
SWIDTH 17 0
DWIDTH 16 0
BBX 14 27 1 0
BITMAP
01F0
01E0
03C0
0380
0000
0780
0CC0
0CC0
0CC0
0780
0000
0FC0
3FF0
7FF8
7CF8
F078
0078
01F8
3FF8
7FF8
F878
F078
F078
F9F8
FFF8
7FFC
3E3C
ENDCHAR
STARTCHAR char508
ENCODING 508
SWIDTH 26 0
DWIDTH 29 0
BBX 28 28 0 0
BITMAP
0001F000
0001E000
0003C000
00038000
00000000
00000000
00FFFFF0
01FFFFF0
01FFFFF0
01FFFFF0
03C78000
03C78000
07C78000
07878000
07878000
0F87FFE0
0F07FFE0
0F07FFE0
1F07FFE0
1E078000
1FFF8000
3FFF8000
3FFF8000
3FFF8000
7C07FFF0
7807FFF0
7807FFF0
F807FFF0
ENDCHAR
STARTCHAR char509
ENCODING 509
SWIDTH 17 0
DWIDTH 26 0
BBX 24 22 1 0
BITMAP
000F80
000F00
000E00
001C00
001C00
000000
0FC3E0
3FFFF8
7FFFFC
FCFE3E
F07C1E
007C0F
0FFFFF
3FFFFF
FFFFFF
F87C00
F07C00
F07C0F
F9FE3E
FFDFFE
7F8FF8
3E03E0
ENDCHAR
STARTCHAR char510
ENCODING 510
SWIDTH 8 0
DWIDTH 23 0
BBX 21 27 1 0
BITMAP
001E00
003C00
003800
007000
000000
01FC20
07FF70
0FFFF0
1FFFE0
3F07E0
7C03F0
7C07F0
780FF0
F81EF0
F83CF8
F878F8
F8F0F8
F9E0F8
FBC0F8
7F80F0
7F01F0
7E01F0
3F07E0
3FFFC0
7FFF80
77FF00
21FC00
ENDCHAR
STARTCHAR char511
ENCODING 511
SWIDTH 24 0
DWIDTH 18 0
BBX 16 22 1 0
BITMAP
00F8
00F0
01E0
01C0
0180
0000
07E4
1FFE
3FFE
7E7E
783E
F87E
F0FF
F1CF
F38F
F71F
FE1E
7C3E
7E7E
7FFC
7FF8
07E0
ENDCHAR
STARTCHAR char512
ENCODING 512
SWIDTH 2 0
DWIDTH 21 0
BBX 19 28 1 0
BITMAP
1C7000
0E7800
0E3800
071C00
000000
000000
01F000
01F800
03F800
03F800
03FC00
07FC00
07BC00
07BE00
0F9E00
0F1E00
0F1F00
1F0F00
1E0F00
1E0F80
3FFF80
3FFF80
3FFFC0
7FFFC0
7803C0
7803E0
F801E0
F001E0
ENDCHAR
STARTCHAR char513
ENCODING 513
SWIDTH 17 0
DWIDTH 16 0
BBX 14 22 1 0
BITMAP
E380
F3C0
71C0
38C0
38E0
0000
0FC0
3FF0
7FF8
7CF8
F078
0078
01F8
3FF8
7FF8
F878
F078
F078
F9F8
FFF8
7FFC
3E3C
ENDCHAR
STARTCHAR char516
ENCODING 516
SWIDTH 30 0
DWIDTH 20 0
BBX 16 28 2 0
BITMAP
79C0
38E0
1CE0
1C70
0000
0000
FFFF
FFFF
FFFF
FFFF
F800
F800
F800
F800
F800
FFFE
FFFE
FFFE
FFFE
F800
F800
F800
F800
F800
FFFF
FFFF
FFFF
FFFF
ENDCHAR
STARTCHAR char517
ENCODING 517
SWIDTH 17 0
DWIDTH 16 0
BBX 14 22 1 0
BITMAP
E380
73C0
71C0
38E0
38E0
0000
0FC0
3FF0
7FF8
78F8
F03C
F03C
FFFC
FFFC
FFFC
F000
F000
F03C
787C
7FF8
3FF0
0FC0
ENDCHAR
STARTCHAR char520
ENCODING 520
SWIDTH 24 0
DWIDTH 8 0
BBX 11 28 -3 0
BITMAP
F380
71C0
39C0
38E0
0000
0000
0780
0780
0780
0780
0780
0780
0780
0780
0780
0780
0780
0780
0780
0780
0780
0780
0780
0780
0780
0780
0780
0780
ENDCHAR
STARTCHAR char521
ENCODING 521
SWIDTH 24 0
DWIDTH 8 0
BBX 11 22 -3 0
BITMAP
F380
71C0
39C0
38E0
0000
0000
0780
0780
0780
0780
0780
0780
0780
0780
0780
0780
0780
0780
0780
0780
0780
0780
ENDCHAR
STARTCHAR char524
ENCODING 524
SWIDTH 8 0
DWIDTH 23 0
BBX 21 28 1 0
BITMAP
1E7800
0E3800
073C00
071C00
038C00
000000
01FC00
07FF00
0FFF80
1FFFC0
3F07E0
7C03E0
7C01F0
7800F0
F800F0
F800F8
F800F8
F800F8
F800F8
F800F8
7800F0
7C01F0
7C01F0
3F07E0
1FFFC0
0FFF80
07FF00
01FC00
ENDCHAR
STARTCHAR char525
ENCODING 525
SWIDTH 24 0
DWIDTH 18 0
BBX 16 22 1 0
BITMAP
71C0
79E0
38E0
1C60
1C70
0000
07E0
1FF8
3FFC
7E7E
783E
F81E
F01F
F01F
F00F
F01F
F81E
783E
7E7E
3FFC
1FF8
07E0
ENDCHAR
STARTCHAR char528
ENCODING 528
SWIDTH 2 0
DWIDTH 21 0
BBX 18 28 2 0
BITMAP
39E000
3CE000
1C7000
0E3000
000000
000000
FFFC00
FFFF00
FFFF80
FFFF80
F80F80
F807C0
F807C0
F80780
F80780
FFFF00
FFFF00
FFFC00
FFFF00
F80F00
F80F80
F80F80
F80F80
F80F80
F80F80
F80F80
F80780
F807C0
ENDCHAR
STARTCHAR char529
ENCODING 529
SWIDTH 2 0
DWIDTH 11 0
BBX 12 22 -1 0
BITMAP
E380
F3C0
71C0
38C0
38E0
0000
1E70
1EF0
1FF0
1FF0
1F00
1E00
1E00
1E00
1E00
1E00
1E00
1E00
1E00
1E00
1E00
1E00
ENDCHAR
STARTCHAR char532
ENCODING 532
SWIDTH 2 0
DWIDTH 21 0
BBX 17 28 2 0
BITMAP
39E000
3CE000
1C7000
0E3000
000000
000000
F80780
F80780
F80780
F80780
F80780
F80780
F80780
F80780
F80780
F80780
F80780
F80780
F80780
F80780
F80780
F80780
F80F80
7C1F80
7FFF00
3FFE00
1FFC00
07F000
ENDCHAR
STARTCHAR char533
ENCODING 533
SWIDTH 24 0
DWIDTH 18 0
BBX 14 22 2 0
BITMAP
E380
71C0
39C0
38E0
0000
0000
F03C
F03C
F03C
F03C
F03C
F03C
F03C
F03C
F03C
F03C
F03C
F07C
FDFC
FFFC
7FBC
3F3C
ENDCHAR
STARTCHAR char536
ENCODING 536
SWIDTH 30 0
DWIDTH 20 0
BBX 18 31 1 -9
BITMAP
07F000
1FFC00
3FFE00
7FFF00
780F00
F80F80
F80780
F80000
7E0000
7FE000
3FFE00
0FFF00
00FF80
000F80
0007C0
F007C0
F80780
F80780
7FFF80
3FFF00
1FFE00
07F800
000000
000000
01C000
01C000
01C000
004000
00C000
018000
010000
ENDCHAR
STARTCHAR char537
ENCODING 537
SWIDTH 17 0
DWIDTH 16 0
BBX 14 25 1 -9
BITMAP
0FC0
3FF0
7FF8
7C78
F83C
F800
7F00
7FF0
1FF8
03FC
007C
F03C
F87C
7FFC
3FF8
1FE0
0000
0000
0780
0780
0780
0180
0100
0300
0600
ENDCHAR
STARTCHAR char538
ENCODING 538
SWIDTH 24 0
DWIDTH 18 0
BBX 18 31 0 -9
BITMAP
FFFFC0
FFFFC0
FFFFC0
FFFFC0
01E000
01E000
01E000
01E000
01E000
01E000
01E000
01E000
01E000
01E000
01E000
01E000
01E000
01E000
01E000
01E000
01E000
01E000
000000
000000
01E000
01E000
01E000
006000
004000
01C000
018000
ENDCHAR
STARTCHAR char539
ENCODING 539
SWIDTH 30 0
DWIDTH 10 0
BBX 9 29 0 -9
BITMAP
3E00
3E00
3E00
3E00
FF80
FF80
FF80
3E00
3E00
3E00
3E00
3E00
3E00
3E00
3E00
3E00
3E00
3F80
1F80
0F80
0000
0000
1E00
1E00
1E00
0400
0400
1C00
1800
ENDCHAR
STARTCHAR char567
ENCODING 567
SWIDTH 24 0
DWIDTH 8 0
BBX 6 22 0 -6
BITMAP
3C
3C
3C
3C
3C
3C
3C
3C
3C
3C
3C
3C
3C
3C
3C
3C
3C
3C
3C
FC
FC
F8
ENDCHAR
STARTCHAR char600
ENCODING 600
SWIDTH 17 0
DWIDTH 16 0
BBX 14 16 1 0
BITMAP
0FC0
3FF0
7FF8
7C78
F03C
F03C
FFFC
FFFC
FFFC
003C
003C
F03C
F878
7FF8
3FF0
0FC0
ENDCHAR
STARTCHAR char601
ENCODING 601
SWIDTH 17 0
DWIDTH 16 0
BBX 14 16 1 0
BITMAP
0FC0
3FF0
7FF8
F878
F03C
003C
003C
FFFC
FFFC
FFFC
F03C
F03C
7C78
7FF8
3FF0
0FC0
ENDCHAR
STARTCHAR char702
ENCODING 702
SWIDTH 11 0
DWIDTH 14 0
BBX 10 12 2 9
BITMAP
3E00
7F00
FF80
E380
03C0
01C0
01C0
E3C0
E380
FF80
7F00
1C00
ENDCHAR
STARTCHAR char703
ENCODING 703
SWIDTH 11 0
DWIDTH 14 0
BBX 10 12 2 9
BITMAP
1E00
7F80
FF80
E3C0
E1C0
E000
E000
E1C0
F3C0
7F80
7F00
0C00
ENDCHAR
STARTCHAR char710
ENCODING 710
SWIDTH 30 0
DWIDTH 10 0
BBX 9 4 0 18
BITMAP
1E00
3F00
7780
E180
ENDCHAR
STARTCHAR char711
ENCODING 711
SWIDTH 30 0
DWIDTH 10 0
BBX 9 4 0 18
BITMAP
E180
7380
3F00
1E00
ENDCHAR
STARTCHAR char728
ENCODING 728
SWIDTH 30 0
DWIDTH 10 0
BBX 10 5 0 17
BITMAP
C1C0
E180
7F80
3F00
0800
ENDCHAR
STARTCHAR char729
ENCODING 729
SWIDTH 30 0
DWIDTH 10 0
BBX 4 4 3 18
BITMAP
F0
F0
F0
F0
ENDCHAR
STARTCHAR char730
ENCODING 730
SWIDTH 30 0
DWIDTH 10 0
BBX 6 6 2 17
BITMAP
20
78
CC
CC
F8
78
ENDCHAR
STARTCHAR char731
ENCODING 731
SWIDTH 30 0
DWIDTH 10 0
BBX 6 7 2 -7
BITMAP
38
60
E0
E0
FC
7C
1C
ENDCHAR
STARTCHAR char732
ENCODING 732
SWIDTH 30 0
DWIDTH 10 0
BBX 10 4 0 18
BITMAP
78C0
FFC0
CF80
C000
ENDCHAR
STARTCHAR char733
ENCODING 733
SWIDTH 30 0
DWIDTH 10 0
BBX 11 5 1 17
BITMAP
39E0
71C0
73C0
E380
C300
ENDCHAR
STARTCHAR char768
ENCODING 768
SWIDTH 0 0
DWIDTH 0 0
BBX 6 5 -13 17
BITMAP
F0
78
38
1C
1C
ENDCHAR
STARTCHAR char769
ENCODING 769
SWIDTH 0 0
DWIDTH 0 0
BBX 7 5 -10 17
BITMAP
3E
3C
78
70
E0
ENDCHAR
STARTCHAR char770
ENCODING 770
SWIDTH 0 0
DWIDTH 0 0
BBX 9 4 -13 18
BITMAP
1E00
3F00
7780
E180
ENDCHAR
STARTCHAR char771
ENCODING 771
SWIDTH 0 0
DWIDTH 0 0
BBX 10 4 -13 18
BITMAP
78C0
FFC0
CF80
C000
ENDCHAR
STARTCHAR char772
ENCODING 772
SWIDTH 0 0
DWIDTH 0 0
BBX 9 2 -13 19
BITMAP
FF80
FF80
ENDCHAR
STARTCHAR char774
ENCODING 774
SWIDTH 0 0
DWIDTH 0 0
BBX 10 5 -13 17
BITMAP
C1C0
E180
7F80
3F00
0800
ENDCHAR
STARTCHAR char775
ENCODING 775
SWIDTH 0 0
DWIDTH 0 0
BBX 4 4 -10 18
BITMAP
F0
F0
F0
F0
ENDCHAR
STARTCHAR char776
ENCODING 776
SWIDTH 0 0
DWIDTH 0 0
BBX 10 3 -13 19
BITMAP
F3C0
F3C0
F3C0
ENDCHAR
STARTCHAR char777
ENCODING 777
SWIDTH 0 0
DWIDTH 0 0
BBX 6 7 -11 17
BITMAP
20
FC
CC
CC
1C
38
30
ENDCHAR
STARTCHAR char778
ENCODING 778
SWIDTH 0 0
DWIDTH 0 0
BBX 6 5 -11 18
BITMAP
78
CC
CC
F8
78
ENDCHAR
STARTCHAR char779
ENCODING 779
SWIDTH 0 0
DWIDTH 0 0
BBX 11 5 -12 17
BITMAP
39E0
71C0
7380
E380
C300
ENDCHAR
STARTCHAR char780
ENCODING 780
SWIDTH 0 0
DWIDTH 0 0
BBX 9 4 -13 18
BITMAP
E180
7780
3F00
1E00
ENDCHAR
STARTCHAR char783
ENCODING 783
SWIDTH 0 0
DWIDTH 0 0
BBX 11 4 -15 18
BITMAP
E380
73C0
71C0
38E0
ENDCHAR
STARTCHAR char785
ENCODING 785
SWIDTH 0 0
DWIDTH 0 0
BBX 9 4 -13 18
BITMAP
1E00
7F00
FF80
E180
ENDCHAR
STARTCHAR char803
ENCODING 803
SWIDTH 0 0
DWIDTH 0 0
BBX 4 4 -10 -6
BITMAP
F0
F0
F0
F0
ENDCHAR
STARTCHAR char806
ENCODING 806
SWIDTH 0 0
DWIDTH 0 0
BBX 4 7 -10 -9
BITMAP
F0
F0
F0
30
20
E0
C0
ENDCHAR
STARTCHAR char814
ENCODING 814
SWIDTH 0 0
DWIDTH 0 0
BBX 10 4 -13 -6
BITMAP
C0C0
F3C0
FF80
3F00
ENDCHAR
STARTCHAR char815
ENCODING 815
SWIDTH 0 0
DWIDTH 0 0
BBX 10 4 -13 -6
BITMAP
3F00
FF80
F7C0
C0C0
ENDCHAR
STARTCHAR char816
ENCODING 816
SWIDTH 0 0
DWIDTH 0 0
BBX 10 4 -13 -6
BITMAP
70C0
FCC0
CFC0
C380
ENDCHAR
STARTCHAR char817
ENCODING 817
SWIDTH 0 0
DWIDTH 0 0
BBX 9 2 -13 -5
BITMAP
FF80
FF80
ENDCHAR
STARTCHAR char818
ENCODING 818
SWIDTH 0 0
DWIDTH 0 0
BBX 9 2 -13 -5
BITMAP
FF80
FF80
ENDCHAR
STARTCHAR char913
ENCODING 913
SWIDTH 2 0
DWIDTH 21 0
BBX 19 22 1 0
BITMAP
01F000
01F800
03F800
03F800
03FC00
07FC00
07BC00
07BE00
0F9E00
0F1E00
0F1F00
1F0F00
1E0F00
1E0F80
3FFF80
3FFF80
3FFFC0
7FFFC0
7803C0
7803E0
F801E0
F001E0
ENDCHAR
STARTCHAR char914
ENCODING 914
SWIDTH 2 0
DWIDTH 21 0
BBX 18 22 2 0
BITMAP
FFF800
FFFE00
FFFF00
FFFF00
F80F80
F80F80
F80780
F80F80
F80F00
FFFE00
FFFC00
FFFF00
FFFF00
F80F80
F80780
F807C0
F80780
F80780
FFFF80
FFFF00
FFFE00
FFF800
ENDCHAR
STARTCHAR char915
ENCODING 915
SWIDTH 24 0
DWIDTH 18 0
BBX 15 22 2 0
BITMAP
FFFE
FFFE
FFFE
FFFE
F800
F800
F800
F800
F800
F800
F800
F800
F800
F800
F800
F800
F800
F800
F800
F800
F800
F800
ENDCHAR
STARTCHAR char916
ENCODING 916
SWIDTH 2 0
DWIDTH 21 0
BBX 21 21 0 0
BITMAP
007800
00F800
00FC00
01FC00
01FE00
03FE00
03FE00
03DF00
07CF00
078F80
0F8780
0F07C0
1F07C0
1F03C0
1E03E0
3E01E0
3C01F0
7FFFF0
7FFFF8
FFFFF8
FFFFF8
ENDCHAR
STARTCHAR char917
ENCODING 917
SWIDTH 30 0
DWIDTH 20 0
BBX 16 22 2 0
BITMAP
FFFF
FFFF
FFFF
FFFF
F800
F800
F800
F800
F800
FFFE
FFFE
FFFE
FFFE
F800
F800
F800
F800
F800
FFFF
FFFF
FFFF
FFFF
ENDCHAR
STARTCHAR char918
ENCODING 918
SWIDTH 24 0
DWIDTH 18 0
BBX 16 22 1 0
BITMAP
FFFF
FFFF
FFFF
FFFF
003E
007E
007C
00F8
01F0
03F0
03E0
07C0
0F80
1F80
1F00
3E00
7C00
FC00
FFFF
FFFF
FFFF
FFFF
ENDCHAR
STARTCHAR char919
ENCODING 919
SWIDTH 2 0
DWIDTH 21 0
BBX 17 22 2 0
BITMAP
F00780
F00780
F00780
F00780
F00780
F00780
F00780
F00780
FFFF80
FFFF80
FFFF80
FFFF80
F00780
F00780
F00780
F00780
F00780
F00780
F00780
F00780
F00780
F00780
ENDCHAR
STARTCHAR char920
ENCODING 920
SWIDTH 8 0
DWIDTH 23 0
BBX 21 22 1 0
BITMAP
01FC00
07FF00
0FFF80
1FFFC0
3F07E0
7C03E0
7C01F0
7800F0
F800F0
F9FCF8
F9FCF8
F9FCF8
F9FCF8
F800F8
7800F0
7C01F0
7C01F0
3F07E0
1FFFC0
0FFF80
07FF00
01FC00
ENDCHAR
STARTCHAR char921
ENCODING 921
SWIDTH 24 0
DWIDTH 8 0
BBX 4 22 2 0
BITMAP
F0
F0
F0
F0
F0
F0
F0
F0
F0
F0
F0
F0
F0
F0
F0
F0
F0
F0
F0
F0
F0
F0
ENDCHAR
STARTCHAR char922
ENCODING 922
SWIDTH 2 0
DWIDTH 21 0
BBX 19 22 2 0
BITMAP
F80FC0
F80F80
F81F00
F83E00
F87C00
F8F800
F9F000
FBE000
FBC000
FFC000
FFC000
FFE000
FFF000
FCF800
F8F800
F87C00
F83E00
F83F00
F81F00
F80F80
F807C0
F807E0
ENDCHAR
STARTCHAR char923
ENCODING 923
SWIDTH 2 0
DWIDTH 21 0
BBX 19 22 1 0
BITMAP
01F000
01F800
03F800
03F800
03FC00
07FC00
07BC00
07BE00
0F9E00
0F1E00
0F1F00
1F0F00
1E0F00
1E0F80
3E0780
3C0780
3C07C0
7C03C0
7803C0
7803E0
F801E0
F001E0
ENDCHAR
STARTCHAR char924
ENCODING 924
SWIDTH 11 0
DWIDTH 24 0
BBX 21 22 2 0
BITMAP
FE03F8
FE03F8
FE03F8
FE07F8
FF07F8
FF07F8
F707F8
F707F8
F70FF8
F78EF8
F38EF8
F38EF8
F39EF8
F3DCF8
F3DCF8
F1DCF8
F1DCF8
F1FCF8
F1F8F8
F0F8F8
F0F8F8
F0F8F8
ENDCHAR
STARTCHAR char925
ENCODING 925
SWIDTH 2 0
DWIDTH 21 0
BBX 17 22 2 0
BITMAP
F80780
F80780
FC0780
FC0780
FE0780
FF0780
FF0780
F78780
F78780
F3C780
F3C780
F1E780
F0F780
F0F780
F07F80
F07F80
F03F80
F03F80
F01F80
F00F80
F00F80
F00780
ENDCHAR
STARTCHAR char926
ENCODING 926
SWIDTH 2 0
DWIDTH 21 0
BBX 17 22 2 0
BITMAP
FFFF80
FFFF80
FFFF80
FFFF80
000000
000000
000000
000000
000000
07F800
07F800
07F800
07F800
000000
000000
000000
000000
000000
FFFF80
FFFF80
FFFF80
FFFF80
ENDCHAR
STARTCHAR char927
ENCODING 927
SWIDTH 8 0
DWIDTH 23 0
BBX 21 22 1 0
BITMAP
01FC00
07FF00
0FFF80
1FFFC0
3F07E0
7C03E0
7C01F0
7800F0
F800F0
F800F8
F800F8
F800F8
F800F8
F800F8
7800F0
7C01F0
7C01F0
3F07E0
1FFFC0
0FFF80
07FF00
01FC00
ENDCHAR
STARTCHAR char928
ENCODING 928
SWIDTH 27 0
DWIDTH 19 0
BBX 17 22 1 0
BITMAP
FFFF80
FFFF80
FFFF80
FFFF80
F00780
F00780
F00780
F00780
F00780
F00780
F00780
F00780
F00780
F00780
F00780
F00780
F00780
F00780
F00780
F00780
F00780
F00780
ENDCHAR
STARTCHAR char929
ENCODING 929
SWIDTH 30 0
DWIDTH 20 0
BBX 17 22 2 0
BITMAP
FFF800
FFFE00
FFFE00
FFFF00
F81F00
F80F00
F80F80
F80F80
F80F00
F81F00
FFFF00
FFFE00
FFFC00
FFF800
F80000
F80000
F80000
F80000
F80000
F80000
F80000
F80000
ENDCHAR
STARTCHAR char931
ENCODING 931
SWIDTH 24 0
DWIDTH 18 0
BBX 16 22 1 0
BITMAP
FFFF
FFFF
FFFF
FFFF
7C00
7E00
3F00
1F80
0FC0
07E0
03E0
03E0
07C0
0FC0
1F80
3F00
7E00
7C00
FFFF
FFFF
FFFF
FFFF
ENDCHAR
STARTCHAR char932
ENCODING 932
SWIDTH 24 0
DWIDTH 18 0
BBX 18 22 0 0
BITMAP
FFFFC0
FFFFC0
FFFFC0
FFFFC0
01E000
01E000
01E000
01E000
01E000
01E000
01E000
01E000
01E000
01E000
01E000
01E000
01E000
01E000
01E000
01E000
01E000
01E000
ENDCHAR
STARTCHAR char933
ENCODING 933
SWIDTH 30 0
DWIDTH 20 0
BBX 18 22 1 0
BITMAP
F807C0
780780
7C0F80
3C0F00
3E1F00
1E1E00
1F3E00
0F3C00
0FBC00
07F800
07F800
03F000
03F000
01E000
01E000
01E000
01E000
01E000
01E000
01E000
01E000
01E000
ENDCHAR
STARTCHAR char934
ENCODING 934
SWIDTH 5 0
DWIDTH 22 0
BBX 19 22 2 0
BITMAP
01E000
01E000
01E000
01E000
07F800
1FFE00
3FFF80
7FFF80
F9E7C0
F1E3C0
F1E3E0
F1E3E0
F1E3C0
F9E7C0
7FFF80
3FFF80
1FFE00
07F800
01E000
01E000
01E000
01E000
ENDCHAR
STARTCHAR char935
ENCODING 935
SWIDTH 30 0
DWIDTH 20 0
BBX 18 22 1 0
BITMAP
F807C0
7C0F80
7C1F00
3E1F00
1E3E00
1F3E00
0F7C00
0FF800
07F800
03F000
03E000
03F000
07F000
07F800
0FFC00
0F7C00
1F3E00
3E3E00
3E1F00
7C0F80
7C0F80
F807C0
ENDCHAR
STARTCHAR char936
ENCODING 936
SWIDTH 5 0
DWIDTH 22 0
BBX 18 22 2 0
BITMAP
F1E3C0
F1E3C0
F1E3C0
F1E3C0
F1E3C0
F1E3C0
F1E3C0
F1E3C0
F1E7C0
F9E780
7DEF80
7FFF00
3FFF00
1FFE00
07F800
01E000
01E000
01E000
01E000
01E000
01E000
01E000
ENDCHAR
STARTCHAR char937
ENCODING 937
SWIDTH 8 0
DWIDTH 23 0
BBX 21 22 1 0
BITMAP
01F800
07FE00
0FFF80
1FFFC0
3F07C0
3E03E0
7C03E0
7C01E0
7801E0
7801F0
7C01E0
7C01E0
3C03E0
3E03E0
3F0FC0
1F8F80
0F8F00
0F8F00
FF8FF8
FF8FF8
FF8FF8
FF8FF8
ENDCHAR
STARTCHAR char945
ENCODING 945
SWIDTH 8 0
DWIDTH 23 0
BBX 19 18 2 -1
BITMAP
000100
03C1C0
0FF1E0
1FFBC0
3FFFC0
7C3FC0
F81F80
F00F80
F00F80
F00780
F00F80
F00F80
F81F80
7FFFC0
3FFFC0
1FFBE0
03E1C0
000180
ENDCHAR
STARTCHAR char946
ENCODING 946
SWIDTH 30 0
DWIDTH 20 0
BBX 15 28 3 -6
BITMAP
0FC0
3FF0
7FF8
FCF8
F07C
F07C
F078
F078
F3F0
F3F0
F3FC
F07C
F03E
F01E
F01E
F01E
F03E
F83C
FFFC
FFFC
FFF8
F7E0
F000
F000
F000
F000
F000
F000
ENDCHAR
STARTCHAR char947
ENCODING 947
SWIDTH 30 0
DWIDTH 20 0
BBX 16 23 2 -7
BITMAP
F00F
F81F
781E
781E
7C3E
3C3C
3E7C
1E78
1E78
1FF8
0FF0
0FF0
0FF0
07E0
07E0
03C0
03C0
03C0
03C0
03C0
03C0
03C0
03C0
ENDCHAR
STARTCHAR char948
ENCODING 948
SWIDTH 24 0
DWIDTH 18 0
BBX 16 22 1 0
BITMAP
03F0
0FFC
1FFC
3F38
3C00
3C00
3E00
1F80
1FE0
0FF8
1FFC
7FFE
7FFE
F81F
F81F
F01F
F81F
FC3E
7FFE
3FFC
1FF8
07E0
ENDCHAR
STARTCHAR char949
ENCODING 949
SWIDTH 17 0
DWIDTH 16 0
BBX 13 18 2 -1
BITMAP
0780
3FF0
7FF0
FFF0
F000
F000
F800
7F80
3F80
7F80
F800
F000
F000
F000
FCF0
7FF0
3FF8
0FC0
ENDCHAR
STARTCHAR char950
ENCODING 950
SWIDTH 21 0
DWIDTH 17 0
BBX 14 27 2 -6
BITMAP
FFFC
FFFC
FFFC
0F80
1F00
3E00
3C00
7800
7800
F000
F000
F000
F000
F000
F000
F800
7800
7FC0
3FF0
1FF8
03FC
003C
003C
003C
007C
0078
0070
ENDCHAR
STARTCHAR char951
ENCODING 951
SWIDTH 24 0
DWIDTH 18 0
BBX 14 22 2 -6
BITMAP
F3E0
F7F8
FFF8
FFFC
F87C
F03C
F03C
F03C
F03C
F03C
F03C
F03C
F03C
F03C
F03C
F03C
003C
003C
003C
003C
003C
003C
ENDCHAR
STARTCHAR char952
ENCODING 952
SWIDTH 21 0
DWIDTH 17 0
BBX 13 21 2 0
BITMAP
0F80
3FC0
3FE0
79E0
78F0
F0F0
F0F0
F078
F078
F078
FFF8
FFF8
FFF8
F078
F070
F0F0
78F0
7FE0
3FE0
1FC0
0F00
ENDCHAR
STARTCHAR char953
ENCODING 953
SWIDTH 8 0
DWIDTH 13 0
BBX 7 16 4 0
BITMAP
F0
F0
F0
F0
F0
F0
F0
F0
F0
F0
F0
F0
FE
FE
3E
06
ENDCHAR
STARTCHAR char954
ENCODING 954
SWIDTH 17 0
DWIDTH 16 0
BBX 14 16 2 0
BITMAP
F078
F0F0
F1E0
F3E0
F7C0
FF80
FF80
FF80
FFC0
FBC0
F3E0
F1E0
F1F0
F0F8
F0F8
F07C
ENDCHAR
STARTCHAR char955
ENCODING 955
SWIDTH 5 0
DWIDTH 22 0
BBX 18 21 2 0
BITMAP
0E0000
0F8000
0FC000
03E000
01F000
00F000
00F800
00F800
01F800
01FC00
03FC00
07FE00
079E00
0F9E00
0F1F00
1F0F00
3E0F80
3C0780
7C0780
7807C0
F803C0
ENDCHAR
STARTCHAR char956
ENCODING 956
SWIDTH 2 0
DWIDTH 21 0
BBX 14 23 4 -7
BITMAP
F03C
F03C
F03C
F03C
F03C
F03C
F03C
F03C
F03C
F03C
F03C
F07C
FDFC
FFFC
FFFC
FFBC
F000
F000
F000
F000
F000
F000
F000
ENDCHAR
STARTCHAR char957
ENCODING 957
SWIDTH 24 0
DWIDTH 18 0
BBX 16 17 1 -1
BITMAP
F00F
F80F
780F
7C0F
3C0F
3C0F
3E0F
1E0F
1E0F
1F1F
0F3E
0FFE
07FC
07F8
07F0
03E0
01C0
ENDCHAR
STARTCHAR char958
ENCODING 958
SWIDTH 24 0
DWIDTH 18 0
BBX 14 27 2 -6
BITMAP
FFFC
FFFC
FFFC
F800
F000
F000
F800
7E00
7F80
3F80
7F80
F800
F000
F000
F000
F000
F800
7FC0
3FF0
1FF8
03FC
003C
003C
003C
007C
0078
0070
ENDCHAR
STARTCHAR char959
ENCODING 959
SWIDTH 24 0
DWIDTH 18 0
BBX 16 16 1 0
BITMAP
07E0
1FF8
3FFC
7E7E
783E
F81E
F01F
F01F
F00F
F01F
F81E
783E
7E7E
3FFC
1FF8
07E0
ENDCHAR
STARTCHAR char960
ENCODING 960
SWIDTH 5 0
DWIDTH 22 0
BBX 20 16 1 0
BITMAP
1FFFF0
3FFFF0
7FFFF0
FF8780
F78780
E78780
E78780
078780
078780
078780
078780
078780
078780
078780
078780
078780
ENDCHAR
STARTCHAR char961
ENCODING 961
SWIDTH 30 0
DWIDTH 20 0
BBX 16 22 2 -7
BITMAP
0FF0
3FF8
7FFC
7C3E
F81E
F01F
F00F
F00F
F00F
F01F
F01E
FC7E
FFFC
FFF8
F7E0
F000
F000
F000
F000
F000
F000
F000
ENDCHAR
STARTCHAR char962
ENCODING 962
SWIDTH 24 0
DWIDTH 18 0
BBX 14 22 2 -6
BITMAP
0380
1FE0
3FF0
7FF8
787C
F030
F000
F000
F000
F000
F800
7800
7FC0
3FF0
1FF8
03FC
003C
003C
003C
007C
0078
0070
ENDCHAR
STARTCHAR char963
ENCODING 963
SWIDTH 2 0
DWIDTH 21 0
BBX 18 18 2 0
BITMAP
000100
000780
0FFF80
1FFFC0
7FFE00
7EFC00
F83E00
F01E00
F01E00
F01E00
F01E00
F01E00
F01E00
F83E00
7EFC00
7FFC00
1FF800
0FE000
ENDCHAR
STARTCHAR char964
ENCODING 964
SWIDTH 11 0
DWIDTH 14 0
BBX 10 15 2 0
BITMAP
FFC0
FFC0
FFC0
1E00
1E00
1E00
1E00
1E00
1E00
1E00
1E00
1FC0
0FC0
07C0
01C0
ENDCHAR
STARTCHAR char965
ENCODING 965
SWIDTH 24 0
DWIDTH 18 0
BBX 14 16 2 0
BITMAP
F03C
F03C
F03C
F03C
F03C
F03C
F03C
F03C
F03C
F03C
F03C
F078
FFF8
7FF0
3FE0
0F80
ENDCHAR
STARTCHAR char966
ENCODING 966
SWIDTH 17 0
DWIDTH 26 0
BBX 23 22 2 -7
BITMAP
0C07E0
1E1FF0
3E1FF8
783C7C
F83C3C
F0783C
F0783E
F0783E
F0783C
F8783C
7C787C
7F7BF8
3FFFF0
0FFFC0
03FF00
007800
007800
007800
007800
007800
007800
007800
ENDCHAR
STARTCHAR char967
ENCODING 967
SWIDTH 30 0
DWIDTH 20 0
BBX 16 23 2 -7
BITMAP
F00F
781F
7C1E
3C3E
3E3C
1E78
1FF8
0FF0
0FF0
07E0
07E0
03C0
07E0
07E0
0FF0
0FF0
1FF8
1E7C
3E3C
3C3E
7C1E
781F
F00F
ENDCHAR
STARTCHAR char968
ENCODING 968
SWIDTH 8 0
DWIDTH 23 0
BBX 19 29 2 -7
BITMAP
01E000
01E000
01E000
01E000
01E000
01E000
F1E1E0
F1E1E0
F1E1E0
F1E1E0
F1E1E0
F1E1E0
F1E1E0
F1E1E0
F1E1E0
F1E1E0
F1E1E0
F1E1E0
FFFFE0
7FFFC0
3FFF80
07FC00
01E000
01E000
01E000
01E000
01E000
01E000
01E000
ENDCHAR
STARTCHAR char969
ENCODING 969
SWIDTH 8 0
DWIDTH 23 0
BBX 19 16 2 0
BITMAP
3C0780
3803C0
7803C0
F001E0
F001E0
F0F1E0
F0F1E0
F0F1E0
F0F1E0
F0F1E0
F0F1E0
F1F1E0
7BFBC0
7FFFC0
3FBF80
0F1F00
ENDCHAR
STARTCHAR char977
ENCODING 977
SWIDTH 30 0
DWIDTH 20 0
BBX 16 23 2 0
BITMAP
0FC0
1FE0
3FF0
7878
707C
F03C
F03C
783C
7FBC
3FFF
07FF
003C
F03C
F03C
F03C
F03C
F03C
F03C
F87C
FFFC
7FF8
3FF0
0FC0
ENDCHAR
STARTCHAR char981
ENCODING 981
SWIDTH 2 0
DWIDTH 21 0
BBX 18 29 2 -7
BITMAP
01E000
01E000
01E000
01E000
01E000
01E000
0FF800
1FFE00
3FFF00
7FFF00
FDEF80
F9E780
F1E7C0
F1E7C0
F1E7C0
F1E780
F9EF80
7DFF80
7FFF00
3FFE00
1FFC00
07F800
01E000
01E000
01E000
01E000
01E000
01E000
01E000
ENDCHAR
STARTCHAR char982
ENCODING 982
SWIDTH 8 0
DWIDTH 23 0
BBX 19 22 2 0
BITMAP
03F800
0FFE00
1F8F00
180780
000380
0003C0
3C01C0
3801E0
7801E0
F001E0
F001E0
F0F1E0
F0F1E0
F0F1E0
F0F1E0
F0F1E0
F0F1E0
F1F1E0
7BFBC0
7FFFC0
3FBF80
0F1F00
ENDCHAR
STARTCHAR char1009
ENCODING 1009
SWIDTH 27 0
DWIDTH 19 0
BBX 15 23 2 -7
BITMAP
0FE0
1FF8
7FFC
7EFC
F83E
F01E
F01E
F01E
F01E
F01E
F01E
F83E
FEFC
FFFC
FFF8
FFE0
F800
7800
7FF8
3FFC
1F7E
001E
001E
ENDCHAR
STARTCHAR char1013
ENCODING 1013
SWIDTH 17 0
DWIDTH 16 0
BBX 14 16 1 0
BITMAP
0FC0
1FF0
3FF8
7EFC
7800
F800
F000
FFC0
FFC0
FFC0
F000
F800
7C7C
7FF8
3FF0
0FC0
ENDCHAR
STARTCHAR char3647
ENCODING 3647
SWIDTH 2 0
DWIDTH 21 0
BBX 18 26 2 -2
BITMAP
01C000
01C000
FFF800
FFFE00
FFFF00
FFFF00
F9CF80
F9C780
F9C780
F9CF80
F9CF00
FFFE00
FFFC00
FFFF00
FFFF00
F9C780
F9C780
F9C7C0
F9C780
F9C780
FFFF80
FFFF00
FFFE00
FFF800
01C000
01C000
ENDCHAR
STARTCHAR char7692
ENCODING 7692
SWIDTH 2 0
DWIDTH 21 0
BBX 18 28 2 -6
BITMAP
FFF000
FFFC00
FFFE00
FFFF00
F81F80
F80F80
F80780
F807C0
F807C0
F807C0
F803C0
F803C0
F807C0
F807C0
F807C0
F80780
F80F80
F81F80
FFFF00
FFFE00
FFFC00
FFF000
000000
000000
01E000
01E000
01E000
01E000
ENDCHAR
STARTCHAR char7693
ENCODING 7693
SWIDTH 24 0
DWIDTH 18 0
BBX 15 28 1 -6
BITMAP
001E
001E
001E
001E
001E
001E
0F9E
1FDE
3FFE
7EFE
F83E
F03E
F01E
F01E
F01E
F01E
F03E
F83E
7EFE
7FFE
3FDE
0F9E
0000
0000
03C0
03C0
03C0
03C0
ENDCHAR
STARTCHAR char7694
ENCODING 7694
SWIDTH 2 0
DWIDTH 21 0
BBX 18 27 2 -5
BITMAP
FFF000
FFFC00
FFFE00
FFFF00
F81F80
F80F80
F80780
F807C0
F807C0
F807C0
F803C0
F803C0
F807C0
F807C0
F807C0
F80780
F80F80
F81F80
FFFF00
FFFE00
FFFC00
FFF000
000000
000000
000000
0FF800
0FF800
ENDCHAR
STARTCHAR char7695
ENCODING 7695
SWIDTH 24 0
DWIDTH 18 0
BBX 15 27 1 -5
BITMAP
001E
001E
001E
001E
001E
001E
0F9E
1FDE
3FFE
7EFE
F83E
F03E
F01E
F01E
F01E
F01E
F03E
F83E
7EFE
7FFE
3FDE
0F9E
0000
0000
0000
0FF0
0FF0
ENDCHAR
STARTCHAR char7716
ENCODING 7716
SWIDTH 2 0
DWIDTH 21 0
BBX 17 28 2 -6
BITMAP
F00780
F00780
F00780
F00780
F00780
F00780
F00780
F00780
FFFF80
FFFF80
FFFF80
FFFF80
F00780
F00780
F00780
F00780
F00780
F00780
F00780
F00780
F00780
F00780
000000
000000
01E000
01E000
01E000
01E000
ENDCHAR
STARTCHAR char7717
ENCODING 7717
SWIDTH 24 0
DWIDTH 18 0
BBX 14 28 2 -6
BITMAP
F000
F000
F000
F000
F000
F000
F3E0
F7F8
FFF8
FFFC
F87C
F03C
F03C
F03C
F03C
F03C
F03C
F03C
F03C
F03C
F03C
F03C
0000
0000
0780
0780
0780
0780
ENDCHAR
STARTCHAR char7718
ENCODING 7718
SWIDTH 2 0
DWIDTH 21 0
BBX 17 27 2 0
BITMAP
0F3800
0F3800
0F3800
000000
000000
F00780
F00780
F00780
F00780
F00780
F00780
F00780
F00780
FFFF80
FFFF80
FFFF80
FFFF80
F00780
F00780
F00780
F00780
F00780
F00780
F00780
F00780
F00780
F00780
ENDCHAR
STARTCHAR char7719
ENCODING 7719
SWIDTH 24 0
DWIDTH 18 0
BBX 14 27 2 0
BITMAP
3CF0
3CF0
3CF0
0000
0000
F000
F000
F000
F000
F000
F000
F3E0
F7F8
FFF8
FFFC
F87C
F03C
F03C
F03C
F03C
F03C
F03C
F03C
F03C
F03C
F03C
F03C
ENDCHAR
STARTCHAR char7722
ENCODING 7722
SWIDTH 2 0
DWIDTH 21 0
BBX 17 28 2 -6
BITMAP
F00780
F00780
F00780
F00780
F00780
F00780
F00780
F00780
FFFF80
FFFF80
FFFF80
FFFF80
F00780
F00780
F00780
F00780
F00780
F00780
F00780
F00780
F00780
F00780
000000
000000
1C0C00
0F7C00
0FF800
03F000
ENDCHAR
STARTCHAR char7723
ENCODING 7723
SWIDTH 24 0
DWIDTH 18 0
BBX 14 28 2 -6
BITMAP
F000
F000
F000
F000
F000
F000
F3E0
F7F8
FFF8
FFFC
F87C
F03C
F03C
F03C
F03C
F03C
F03C
F03C
F03C
F03C
F03C
F03C
0000
0000
3030
3CF0
3FE0
0FC0
ENDCHAR
STARTCHAR char7726
ENCODING 7726
SWIDTH 24 0
DWIDTH 8 0
BBX 10 33 -1 0
BITMAP
07C0
0780
0F00
0E00
0000
0000
F3C0
F3C0
F3C0
0000
0000
1E00
1E00
1E00
1E00
1E00
1E00
1E00
1E00
1E00
1E00
1E00
1E00
1E00
1E00
1E00
1E00
1E00
1E00
1E00
1E00
1E00
1E00
ENDCHAR
STARTCHAR char7727
ENCODING 7727
SWIDTH 24 0
DWIDTH 8 0
BBX 10 28 -1 0
BITMAP
07C0
0780
0F00
0E00
0000
0000
F3C0
F3C0
F3C0
0000
0000
0000
1E00
1E00
1E00
1E00
1E00
1E00
1E00
1E00
1E00
1E00
1E00
1E00
1E00
1E00
1E00
1E00
ENDCHAR
STARTCHAR char7734
ENCODING 7734
SWIDTH 24 0
DWIDTH 18 0
BBX 15 28 2 -6
BITMAP
F800
F800
F800
F800
F800
F800
F800
F800
F800
F800
F800
F800
F800
F800
F800
F800
F800
F800
FFFE
FFFE
FFFE
FFFE
0000
0000
03C0
03C0
03C0
03C0
ENDCHAR
STARTCHAR char7735
ENCODING 7735
SWIDTH 24 0
DWIDTH 8 0
BBX 4 28 2 -6
BITMAP
F0
F0
F0
F0
F0
F0
F0
F0
F0
F0
F0
F0
F0
F0
F0
F0
F0
F0
F0
F0
F0
F0
00
00
F0
F0
F0
F0
ENDCHAR
STARTCHAR char7736
ENCODING 7736
SWIDTH 24 0
DWIDTH 18 0
BBX 17 33 0 -6
BITMAP
FF8000
FF8000
000000
000000
000000
3E0000
3E0000
3E0000
3E0000
3E0000
3E0000
3E0000
3E0000
3E0000
3E0000
3E0000
3E0000
3E0000
3E0000
3E0000
3E0000
3E0000
3E0000
3FFF80
3FFF80
3FFF80
3FFF80
000000
000000
00F000
00F000
00F000
00F000
ENDCHAR
STARTCHAR char7737
ENCODING 7737
SWIDTH 24 0
DWIDTH 8 0
BBX 8 33 0 -6
BITMAP
FF
FF
00
00
00
3C
3C
3C
3C
3C
3C
3C
3C
3C
3C
3C
3C
3C
3C
3C
3C
3C
3C
3C
3C
3C
3C
00
00
3C
3C
3C
3C
ENDCHAR
STARTCHAR char7746
ENCODING 7746
SWIDTH 11 0
DWIDTH 24 0
BBX 21 28 2 -6
BITMAP
FE03F8
FE03F8
FE03F8
FE07F8
FF07F8
FF07F8
F707F8
F707F8
F70FF8
F78EF8
F38EF8
F38EF8
F39EF8
F3DCF8
F3DCF8
F1DCF8
F1DCF8
F1FCF8
F1F8F8
F0F8F8
F0F8F8
F0F8F8
000000
000000
00F000
00F000
00F000
00F000
ENDCHAR
STARTCHAR char7747
ENCODING 7747
SWIDTH 17 0
DWIDTH 26 0
BBX 22 22 2 -6
BITMAP
F3E1F0
FFF7F8
FFFFFC
FFFFFC
F07C3C
F0783C
F0783C
F0783C
F0783C
F0783C
F0783C
F0783C
F0783C
F0783C
F0783C
F0783C
000000
000000
007800
007800
007800
007800
ENDCHAR
STARTCHAR char7748
ENCODING 7748
SWIDTH 2 0
DWIDTH 21 0
BBX 17 28 2 0
BITMAP
01E000
01E000
01E000
01E000
000000
000000
F80780
F80780
FC0780
FC0780
FE0780
FF0780
FF0780
F78780
F78780
F3C780
F3C780
F1E780
F0F780
F0F780
F07F80
F07F80
F03F80
F03F80
F01F80
F00F80
F00F80
F00780
ENDCHAR
STARTCHAR char7749
ENCODING 7749
SWIDTH 24 0
DWIDTH 18 0
BBX 14 22 2 0
BITMAP
0780
0780
0780
0780
0000
0000
F3E0
F7F8
FFF8
FFFC
F87C
F03C
F03C
F03C
F03C
F03C
F03C
F03C
F03C
F03C
F03C
F03C
ENDCHAR
STARTCHAR char7750
ENCODING 7750
SWIDTH 2 0
DWIDTH 21 0
BBX 17 28 2 -6
BITMAP
F80780
F80780
FC0780
FC0780
FE0780
FF0780
FF0780
F78780
F78780
F3C780
F3C780
F1E780
F0F780
F0F780
F07F80
F07F80
F03F80
F03F80
F01F80
F00F80
F00F80
F00780
000000
000000
01E000
01E000
01E000
01E000
ENDCHAR
STARTCHAR char7751
ENCODING 7751
SWIDTH 24 0
DWIDTH 18 0
BBX 14 22 2 -6
BITMAP
F3E0
F7F8
FFF8
FFFC
F87C
F03C
F03C
F03C
F03C
F03C
F03C
F03C
F03C
F03C
F03C
F03C
0000
0000
0780
0780
0780
0780
ENDCHAR
STARTCHAR char7768
ENCODING 7768
SWIDTH 2 0
DWIDTH 21 0
BBX 18 28 2 0
BITMAP
01E000
01E000
01E000
01E000
000000
000000
FFFC00
FFFF00
FFFF80
FFFF80
F80F80
F807C0
F807C0
F80780
F80780
FFFF00
FFFF00
FFFC00
FFFF00
F80F00
F80F80
F80F80
F80F80
F80F80
F80F80
F80F80
F80780
F807C0
ENDCHAR
STARTCHAR char7769
ENCODING 7769
SWIDTH 2 0
DWIDTH 11 0
BBX 9 22 2 0
BITMAP
3C00
3C00
3C00
3C00
0000
0000
F380
F780
FF80
FF80
F800
F000
F000
F000
F000
F000
F000
F000
F000
F000
F000
F000
ENDCHAR
STARTCHAR char7770
ENCODING 7770
SWIDTH 2 0
DWIDTH 21 0
BBX 18 28 2 -6
BITMAP
FFFC00
FFFF00
FFFF80
FFFF80
F80F80
F807C0
F807C0
F80780
F80780
FFFF00
FFFF00
FFFC00
FFFF00
F80F00
F80F80
F80F80
F80F80
F80F80
F80F80
F80F80
F80780
F807C0
000000
000000
01E000
01E000
01E000
01E000
ENDCHAR
STARTCHAR char7771
ENCODING 7771
SWIDTH 2 0
DWIDTH 11 0
BBX 9 22 2 -6
BITMAP
F380
F780
FF80
FF80
F800
F000
F000
F000
F000
F000
F000
F000
F000
F000
F000
F000
0000
0000
F000
F000
F000
F000
ENDCHAR
STARTCHAR char7772
ENCODING 7772
SWIDTH 2 0
DWIDTH 21 0
BBX 18 33 2 -6
BITMAP
0FF800
0FF800
000000
000000
000000
FFFC00
FFFF00
FFFF80
FFFF80
F80F80
F807C0
F807C0
F80780
F80780
FFFF00
FFFF00
FFFC00
FFFF00
F80F00
F80F80
F80F80
F80F80
F80F80
F80F80
F80F80
F80780
F807C0
000000
000000
01E000
01E000
01E000
01E000
ENDCHAR
STARTCHAR char7773
ENCODING 7773
SWIDTH 2 0
DWIDTH 11 0
BBX 9 27 2 -6
BITMAP
FF00
FF00
0000
0000
0000
F380
F780
FF80
FF80
F800
F000
F000
F000
F000
F000
F000
F000
F000
F000
F000
F000
0000
0000
F000
F000
F000
F000
ENDCHAR
STARTCHAR char7778
ENCODING 7778
SWIDTH 30 0
DWIDTH 20 0
BBX 18 28 1 -6
BITMAP
07F000
1FFC00
3FFE00
7FFF00
780F00
F80F80
F80780
F80000
7E0000
7FE000
3FFE00
0FFF00
00FF80
000F80
0007C0
F007C0
F80780
F80780
7FFF80
3FFF00
1FFE00
07F800
000000
000000
01E000
01E000
01E000
01E000
ENDCHAR
STARTCHAR char7779
ENCODING 7779
SWIDTH 17 0
DWIDTH 16 0
BBX 14 22 1 -6
BITMAP
0FC0
3FF0
7FF8
7C78
F83C
F800
7F00
7FF0
1FF8
03FC
007C
F03C
F87C
7FFC
3FF8
1FE0
0000
0000
0780
0780
0780
0780
ENDCHAR
STARTCHAR char7788
ENCODING 7788
SWIDTH 24 0
DWIDTH 18 0
BBX 18 28 0 -6
BITMAP
FFFFC0
FFFFC0
FFFFC0
FFFFC0
01E000
01E000
01E000
01E000
01E000
01E000
01E000
01E000
01E000
01E000
01E000
01E000
01E000
01E000
01E000
01E000
01E000
01E000
000000
000000
01E000
01E000
01E000
01E000
ENDCHAR
STARTCHAR char7789
ENCODING 7789
SWIDTH 30 0
DWIDTH 10 0
BBX 9 26 0 -6
BITMAP
3E00
3E00
3E00
3E00
FF80
FF80
FF80
3E00
3E00
3E00
3E00
3E00
3E00
3E00
3E00
3E00
3E00
3F80
1F80
0F80
0000
0000
1E00
1E00
1E00
1E00
ENDCHAR
STARTCHAR char7790
ENCODING 7790
SWIDTH 24 0
DWIDTH 18 0
BBX 18 27 0 -5
BITMAP
FFFFC0
FFFFC0
FFFFC0
FFFFC0
01E000
01E000
01E000
01E000
01E000
01E000
01E000
01E000
01E000
01E000
01E000
01E000
01E000
01E000
01E000
01E000
01E000
01E000
000000
000000
000000
07F800
07F800
ENDCHAR
STARTCHAR char7791
ENCODING 7791
SWIDTH 30 0
DWIDTH 10 0
BBX 9 25 0 -5
BITMAP
3E00
3E00
3E00
3E00
FF80
FF80
FF80
3E00
3E00
3E00
3E00
3E00
3E00
3E00
3E00
3E00
3E00
3F80
1F80
0F80
0000
0000
0000
FF80
FF80
ENDCHAR
STARTCHAR char7808
ENCODING 7808
SWIDTH 23 0
DWIDTH 28 0
BBX 26 28 1 0
BITMAP
00F00000
00780000
003C0000
001C0000
00000000
00000000
F01E03C0
F03E07C0
F83F07C0
F83F0780
783F0780
783F0780
787F0F80
7C778F00
3C738F00
3C738F00
3C738F00
1CE39E00
1EE3DE00
1EE1DE00
1EE1DC00
0EE1DC00
0FC1FC00
0FC1FC00
0FC0F800
07C0F800
07C0F800
0780F800
ENDCHAR
STARTCHAR char7809
ENCODING 7809
SWIDTH 8 0
DWIDTH 23 0
BBX 22 22 0 0
BITMAP
01E000
01F000
00F000
007000
003800
000000
F87C3C
787C3C
787C3C
787C78
78FC78
3CEE78
3CEE78
3CEE70
3DCEF0
1FCEF0
1FC7F0
1FC7E0
0FC7E0
0F87E0
0F87C0
0F83C0
ENDCHAR
STARTCHAR char7810
ENCODING 7810
SWIDTH 23 0
DWIDTH 28 0
BBX 26 28 1 0
BITMAP
0007C000
00078000
000F0000
000E0000
00000000
00000000
F01E03C0
F03E07C0
F83F07C0
F83F0780
783F0780
783F0780
787F0F80
7C778F00
3C738F00
3C738F00
3C738F00
1CE39E00
1EE3DE00
1EE1DE00
1EE1DC00
0EE1DC00
0FC1FC00
0FC1FC00
0FC0F800
07C0F800
07C0F800
0780F800
ENDCHAR
STARTCHAR char7811
ENCODING 7811
SWIDTH 8 0
DWIDTH 23 0
BBX 22 22 0 0
BITMAP
000F00
001E00
001E00
003C00
003800
000000
F87C3C
787C3C
787C3C
787C78
78FC78
3CEE78
3CEE78
3CEE70
3DCEF0
1FCEF0
1FC7F0
1FC7E0
0FC7E0
0F87E0
0F87C0
0F83C0
ENDCHAR
STARTCHAR char7812
ENCODING 7812
SWIDTH 23 0
DWIDTH 28 0
BBX 26 27 1 0
BITMAP
00F3C000
00F3C000
00F3C000
00000000
00000000
F01E03C0
F03E07C0
F83F07C0
F83F0780
783F0780
783F0780
787F0F80
7C778F00
3C738F00
3C738F00
3C738F00
1CE39E00
1EE3DE00
1EE1DE00
1EE1DC00
0EE1DC00
0FC1FC00
0FC1FC00
0FC0F800
07C0F800
07C0F800
0780F800
ENDCHAR
STARTCHAR char7813
ENCODING 7813
SWIDTH 8 0
DWIDTH 23 0
BBX 22 22 0 0
BITMAP
01CF00
01CF00
01CF00
000000
000000
000000
F87C3C
787C3C
787C3C
787C78
78FC78
3CEE78
3CEE78
3CEE70
3DCEF0
1FCEF0
1FC7F0
1FC7E0
0FC7E0
0F87E0
0F87C0
0F83C0
ENDCHAR
STARTCHAR char7826
ENCODING 7826
SWIDTH 24 0
DWIDTH 18 0
BBX 16 28 1 -6
BITMAP
FFFF
FFFF
FFFF
FFFF
003E
007E
007C
00F8
01F0
03F0
03E0
07C0
0F80
1F80
1F00
3E00
7C00
FC00
FFFF
FFFF
FFFF
FFFF
0000
0000
03C0
03C0
03C0
03C0
ENDCHAR
STARTCHAR char7827
ENCODING 7827
SWIDTH 14 0
DWIDTH 15 0
BBX 13 22 1 -6
BITMAP
FFF0
FFF0
FFF0
01F0
03E0
03E0
07C0
0F80
1F00
3E00
7E00
7C00
F800
FFF8
FFF8
FFF8
0000
0000
0F00
0F00
0F00
0F00
ENDCHAR
STARTCHAR char7831
ENCODING 7831
SWIDTH 30 0
DWIDTH 10 0
BBX 9 25 0 0
BITMAP
E780
E780
E780
0000
0000
3E00
3E00
3E00
3E00
FF80
FF80
FF80
3E00
3E00
3E00
3E00
3E00
3E00
3E00
3E00
3E00
3E00
3F80
1F80
0F80
ENDCHAR
STARTCHAR char7840
ENCODING 7840
SWIDTH 2 0
DWIDTH 21 0
BBX 19 28 1 -6
BITMAP
01F000
01F800
03F800
03F800
03FC00
07FC00
07BC00
07BE00
0F9E00
0F1E00
0F1F00
1F0F00
1E0F00
1E0F80
3FFF80
3FFF80
3FFFC0
7FFFC0
7803C0
7803E0
F801E0
F001E0
000000
000000
00F000
00F000
00F000
00F000
ENDCHAR
STARTCHAR char7841
ENCODING 7841
SWIDTH 17 0
DWIDTH 16 0
BBX 14 22 1 -6
BITMAP
0FC0
3FF0
7FF8
7CF8
F078
0078
01F8
3FF8
7FF8
F878
F078
F078
F9F8
FFF8
7FFC
3E3C
0000
0000
0780
0780
0780
0780
ENDCHAR
STARTCHAR char7842
ENCODING 7842
SWIDTH 2 0
DWIDTH 21 0
BBX 19 30 1 0
BITMAP
004000
01F000
019800
001800
007000
006000
000000
000000
01F000
01F800
03F800
03F800
03FC00
07FC00
07BC00
07BE00
0F9E00
0F1E00
0F1F00
1F0F00
1E0F00
1E0F80
3FFF80
3FFF80
3FFFC0
7FFFC0
7803C0
7803E0
F801E0
F001E0
ENDCHAR
STARTCHAR char7843
ENCODING 7843
SWIDTH 17 0
DWIDTH 16 0
BBX 14 23 1 0
BITMAP
0780
0FC0
0CC0
00C0
0380
0300
0000
0FC0
3FF0
7FF8
7CF8
F078
0078
01F8
3FF8
7FF8
F878
F078
F078
F9F8
FFF8
7FFC
3E3C
ENDCHAR
STARTCHAR char7844
ENCODING 7844
SWIDTH 2 0
DWIDTH 21 0
BBX 19 32 1 0
BITMAP
003E00
003C00
007800
00F000
000000
01F000
03FC00
070E00
000000
000000
01F000
01F800
03F800
03F800
03FC00
07FC00
07BC00
07BE00
0F9E00
0F1E00
0F1F00
1F0F00
1E0F00
1E0F80
3FFF80
3FFF80
3FFFC0
7FFFC0
7803C0
7803E0
F801E0
F001E0
ENDCHAR
STARTCHAR char7845
ENCODING 7845
SWIDTH 17 0
DWIDTH 16 0
BBX 14 27 1 0
BITMAP
01F0
01E0
03C0
0380
0000
0780
0FC0
1CE0
3870
0000
0000
0FC0
3FF0
7FF8
7CF8
F078
0078
01F8
3FF8
7FF8
F878
F078
F078
F9F8
FFF8
7FFC
3E3C
ENDCHAR
STARTCHAR char7846
ENCODING 7846
SWIDTH 2 0
DWIDTH 21 0
BBX 19 32 1 0
BITMAP
078000
03C000
01E000
00E000
000000
01F000
03FC00
070E00
000000
000000
01F000
01F800
03F800
03F800
03FC00
07FC00
07BC00
07BE00
0F9E00
0F1E00
0F1F00
1F0F00
1E0F00
1E0F80
3FFF80
3FFF80
3FFFC0
7FFFC0
7803C0
7803E0
F801E0
F001E0
ENDCHAR
STARTCHAR char7847
ENCODING 7847
SWIDTH 17 0
DWIDTH 16 0
BBX 14 27 1 0
BITMAP
3E00
1E00
0F00
0700
0000
0780
0FC0
1CE0
3870
0000
0000
0FC0
3FF0
7FF8
7CF8
F078
0078
01F8
3FF8
7FF8
F878
F078
F078
F9F8
FFF8
7FFC
3E3C
ENDCHAR
STARTCHAR char7848
ENCODING 7848
SWIDTH 2 0
DWIDTH 21 0
BBX 19 33 1 0
BITMAP
007E00
006600
000600
000C00
001800
000000
01F000
03FC00
070E00
000000
000000
01F000
01F800
03F800
03F800
03FC00
07FC00
07BC00
07BE00
0F9E00
0F1E00
0F1F00
1F0F00
1E0F00
1E0F80
3FFF80
3FFF80
3FFFC0
7FFFC0
7803C0
7803E0
F801E0
F001E0
ENDCHAR
STARTCHAR char7849
ENCODING 7849
SWIDTH 17 0
DWIDTH 16 0
BBX 14 28 1 0
BITMAP
01E0
03B0
0338
0070
00C0
0000
0780
0FC0
1CE0
3870
0000
0000
0FC0
3FF0
7FF8
7CF8
F078
0078
01F8
3FF8
7FF8
F878
F078
F078
F9F8
FFF8
7FFC
3E3C
ENDCHAR
STARTCHAR char7850
ENCODING 7850
SWIDTH 2 0
DWIDTH 21 0
BBX 19 33 1 0
BITMAP
010600
07E600
07FE00
063C00
000000
00F000
01F800
039C00
070E00
000000
000000
01F000
01F800
03F800
03F800
03FC00
07FC00
07BC00
07BE00
0F9E00
0F1E00
0F1F00
1F0F00
1E0F00
1E0F80
3FFF80
3FFF80
3FFFC0
7FFFC0
7803C0
7803E0
F801E0
F001E0
ENDCHAR
STARTCHAR char7851
ENCODING 7851
SWIDTH 17 0
DWIDTH 16 0
BBX 14 27 1 0
BITMAP
0830
1F30
3FF0
31E0
0000
0780
0FC0
1CE0
3870
0000
0000
0FC0
3FF0
7FF8
7CF8
F078
0078
01F8
3FF8
7FF8
F878
F078
F078
F9F8
FFF8
7FFC
3E3C
ENDCHAR
STARTCHAR char7852
ENCODING 7852
SWIDTH 2 0
DWIDTH 21 0
BBX 19 34 1 -6
BITMAP
00F000
01F800
039C00
070E00
000000
000000
01F000
01F800
03F800
03F800
03FC00
07FC00
07BC00
07BE00
0F9E00
0F1E00
0F1F00
1F0F00
1E0F00
1E0F80
3FFF80
3FFF80
3FFFC0
7FFFC0
7803C0
7803E0
F801E0
F001E0
000000
000000
00F000
00F000
00F000
00F000
ENDCHAR
STARTCHAR char7853
ENCODING 7853
SWIDTH 17 0
DWIDTH 16 0
BBX 14 28 1 -6
BITMAP
0780
0FC0
0FC0
1CE0
3870
0000
0FC0
3FF0
7FF8
7CF8
F078
0078
01F8
3FF8
7FF8
F878
F078
F078
F9F8
FFF8
7FFC
3E3C
0000
0000
0780
0780
0780
0780
ENDCHAR
STARTCHAR char7854
ENCODING 7854
SWIDTH 2 0
DWIDTH 21 0
BBX 19 32 1 0
BITMAP
003E00
003C00
007800
00F000
000000
071E00
07FC00
01F800
000000
000000
01F000
01F800
03F800
03F800
03FC00
07FC00
07BC00
07BE00
0F9E00
0F1E00
0F1F00
1F0F00
1E0F00
1E0F80
3FFF80
3FFF80
3FFFC0
7FFFC0
7803C0
7803E0
F801E0
F001E0
ENDCHAR
STARTCHAR char7855
ENCODING 7855
SWIDTH 17 0
DWIDTH 16 0
BBX 14 26 1 0
BITMAP
01F0
01E0
03C0
0380
0000
3030
3FF0
1FE0
0000
0000
0FC0
3FF0
7FF8
7CF8
F078
0078
01F8
3FF8
7FF8
F878
F078
F078
F9F8
FFF8
7FFC
3E3C
ENDCHAR
STARTCHAR char7856
ENCODING 7856
SWIDTH 2 0
DWIDTH 21 0
BBX 19 32 1 0
BITMAP
078000
03C000
01E000
00E000
000000
071E00
07FC00
01F800
000000
000000
01F000
01F800
03F800
03F800
03FC00
07FC00
07BC00
07BE00
0F9E00
0F1E00
0F1F00
1F0F00
1E0F00
1E0F80
3FFF80
3FFF80
3FFFC0
7FFFC0
7803C0
7803E0
F801E0
F001E0
ENDCHAR
STARTCHAR char7857
ENCODING 7857
SWIDTH 17 0
DWIDTH 16 0
BBX 14 26 1 0
BITMAP
3E00
1E00
0F00
0700
0000
3030
3FF0
1FE0
0000
0000
0FC0
3FF0
7FF8
7CF8
F078
0078
01F8
3FF8
7FF8
F878
F078
F078
F9F8
FFF8
7FFC
3E3C
ENDCHAR
STARTCHAR char7858
ENCODING 7858
SWIDTH 2 0
DWIDTH 21 0
BBX 19 32 1 0
BITMAP
00F000
01B800
031800
003800
006000
071E00
07FC00
01F800
000000
000000
01F000
01F800
03F800
03F800
03FC00
07FC00
07BC00
07BE00
0F9E00
0F1E00
0F1F00
1F0F00
1E0F00
1E0F80
3FFF80
3FFF80
3FFFC0
7FFFC0
7803C0
7803E0
F801E0
F001E0
ENDCHAR
STARTCHAR char7859
ENCODING 7859
SWIDTH 17 0
DWIDTH 16 0
BBX 14 26 1 0
BITMAP
0780
0DC0
0CC0
01C0
0300
3030
3FF0
1FE0
0000
0000
0FC0
3FF0
7FF8
7CF8
F078
0078
01F8
3FF8
7FF8
F878
F078
F078
F9F8
FFF8
7FFC
3E3C
ENDCHAR
STARTCHAR char7860
ENCODING 7860
SWIDTH 2 0
DWIDTH 21 0
BBX 19 32 1 0
BITMAP
038600
07FE00
07FC00
061C00
000000
071E00
07FC00
01F800
000000
000000
01F000
01F800
03F800
03F800
03FC00
07FC00
07BC00
07BE00
0F9E00
0F1E00
0F1F00
1F0F00
1E0F00
1E0F80
3FFF80
3FFF80
3FFFC0
7FFFC0
7803C0
7803E0
F801E0
F001E0
ENDCHAR
STARTCHAR char7861
ENCODING 7861
SWIDTH 17 0
DWIDTH 16 0
BBX 14 26 1 0
BITMAP
1C30
3FF0
3FF0
30E0
0000
3030
3FF0
1FE0
0000
0000
0FC0
3FF0
7FF8
7CF8
F078
0078
01F8
3FF8
7FF8
F878
F078
F078
F9F8
FFF8
7FFC
3E3C
ENDCHAR
STARTCHAR char7862
ENCODING 7862
SWIDTH 2 0
DWIDTH 21 0
BBX 19 33 1 -6
BITMAP
071E00
07FC00
01F800
000000
000000
01F000
01F800
03F800
03F800
03FC00
07FC00
07BC00
07BE00
0F9E00
0F1E00
0F1F00
1F0F00
1E0F00
1E0F80
3FFF80
3FFF80
3FFFC0
7FFFC0
7803C0
7803E0
F801E0
F001E0
000000
000000
00F000
00F000
00F000
00F000
ENDCHAR
STARTCHAR char7863
ENCODING 7863
SWIDTH 17 0
DWIDTH 16 0
BBX 14 28 1 -6
BITMAP
3070
3860
1FE0
0FC0
0000
0000
0FC0
3FF0
7FF8
7CF8
F078
0078
01F8
3FF8
7FF8
F878
F078
F078
F9F8
FFF8
7FFC
3E3C
0000
0000
0780
0780
0780
0780
ENDCHAR
STARTCHAR char7864
ENCODING 7864
SWIDTH 30 0
DWIDTH 20 0
BBX 16 28 2 -6
BITMAP
FFFF
FFFF
FFFF
FFFF
F800
F800
F800
F800
F800
FFFE
FFFE
FFFE
FFFE
F800
F800
F800
F800
F800
FFFF
FFFF
FFFF
FFFF
0000
0000
03C0
03C0
03C0
03C0
ENDCHAR
STARTCHAR char7865
ENCODING 7865
SWIDTH 17 0
DWIDTH 16 0
BBX 14 22 1 -6
BITMAP
0FC0
3FF0
7FF8
78F8
F03C
F03C
FFFC
FFFC
FFFC
F000
F000
F03C
787C
7FF8
3FF0
0FC0
0000
0000
0780
0780
0780
0780
ENDCHAR
STARTCHAR char7866
ENCODING 7866
SWIDTH 30 0
DWIDTH 20 0
BBX 16 30 2 0
BITMAP
0080
07E0
0660
0060
00C0
0180
0000
0000
FFFF
FFFF
FFFF
FFFF
F800
F800
F800
F800
F800
FFFE
FFFE
FFFE
FFFE
F800
F800
F800
F800
F800
FFFF
FFFF
FFFF
FFFF
ENDCHAR
STARTCHAR char7867
ENCODING 7867
SWIDTH 17 0
DWIDTH 16 0
BBX 14 23 1 0
BITMAP
0780
0FC0
0CC0
00C0
0380
0300
0000
0FC0
3FF0
7FF8
78F8
F03C
F03C
FFFC
FFFC
FFFC
F000
F000
F03C
787C
7FF8
3FF0
0FC0
ENDCHAR
STARTCHAR char7868
ENCODING 7868
SWIDTH 30 0
DWIDTH 20 0
BBX 16 27 2 0
BITMAP
0F18
1FF8
18F0
0000
0000
FFFF
FFFF
FFFF
FFFF
F800
F800
F800
F800
F800
FFFE
FFFE
FFFE
FFFE
F800
F800
F800
F800
F800
FFFF
FFFF
FFFF
FFFF
ENDCHAR
STARTCHAR char7869
ENCODING 7869
SWIDTH 17 0
DWIDTH 16 0
BBX 14 22 1 0
BITMAP
1E30
3FF0
33F0
3000
0000
0000
0FC0
3FF0
7FF8
78F8
F03C
F03C
FFFC
FFFC
FFFC
F000
F000
F03C
787C
7FF8
3FF0
0FC0
ENDCHAR
STARTCHAR char7870
ENCODING 7870
SWIDTH 30 0
DWIDTH 20 0
BBX 16 32 2 0
BITMAP
00F8
00F0
01E0
01C0
0000
03E0
0FF0
1C38
0000
0000
FFFF
FFFF
FFFF
FFFF
F800
F800
F800
F800
F800
FFFE
FFFE
FFFE
FFFE
F800
F800
F800
F800
F800
FFFF
FFFF
FFFF
FFFF
ENDCHAR
STARTCHAR char7871
ENCODING 7871
SWIDTH 17 0
DWIDTH 16 0
BBX 14 27 1 0
BITMAP
01F0
01E0
03C0
0380
0000
0780
0FC0
1CE0
3870
0000
0000
0FC0
3FF0
7FF8
78F8
F03C
F03C
FFFC
FFFC
FFFC
F000
F000
F03C
787C
7FF8
3FF0
0FC0
ENDCHAR
STARTCHAR char7872
ENCODING 7872
SWIDTH 30 0
DWIDTH 20 0
BBX 16 32 2 0
BITMAP
1F00
0F00
0780
0380
0000
03E0
0FF0
1C38
0000
0000
FFFF
FFFF
FFFF
FFFF
F800
F800
F800
F800
F800
FFFE
FFFE
FFFE
FFFE
F800
F800
F800
F800
F800
FFFF
FFFF
FFFF
FFFF
ENDCHAR
STARTCHAR char7873
ENCODING 7873
SWIDTH 17 0
DWIDTH 16 0
BBX 14 27 1 0
BITMAP
3E00
1E00
0F00
0700
0000
0780
0FC0
1CE0
3870
0000
0000
0FC0
3FF0
7FF8
78F8
F03C
F03C
FFFC
FFFC
FFFC
F000
F000
F03C
787C
7FF8
3FF0
0FC0
ENDCHAR
STARTCHAR char7874
ENCODING 7874
SWIDTH 30 0
DWIDTH 20 0
BBX 16 33 2 0
BITMAP
00F8
019C
001C
0038
0060
0000
03E0
0FF0
1C38
0000
0000
FFFF
FFFF
FFFF
FFFF
F800
F800
F800
F800
F800
FFFE
FFFE
FFFE
FFFE
F800
F800
F800
F800
F800
FFFF
FFFF
FFFF
FFFF
ENDCHAR
STARTCHAR char7875
ENCODING 7875
SWIDTH 17 0
DWIDTH 16 0
BBX 14 28 1 0
BITMAP
01E0
03B0
0338
0070
00C0
0000
0780
0FC0
1CE0
3870
0000
0000
0FC0
3FF0
7FF8
78F8
F03C
F03C
FFFC
FFFC
FFFC
F000
F000
F03C
787C
7FF8
3FF0
0FC0
ENDCHAR
STARTCHAR char7876
ENCODING 7876
SWIDTH 30 0
DWIDTH 20 0
BBX 16 33 2 0
BITMAP
0418
0F98
1FF8
18F0
0000
03E0
07E0
0E70
1C38
0000
0000
FFFF
FFFF
FFFF
FFFF
F800
F800
F800
F800
F800
FFFE
FFFE
FFFE
FFFE
F800
F800
F800
F800
F800
FFFF
FFFF
FFFF
FFFF
ENDCHAR
STARTCHAR char7877
ENCODING 7877
SWIDTH 17 0
DWIDTH 16 0
BBX 14 27 1 0
BITMAP
0030
1F30
3FF0
31E0
0000
0780
0FC0
1CE0
3870
0000
0000
0FC0
3FF0
7FF8
78F8
F03C
F03C
FFFC
FFFC
FFFC
F000
F000
F03C
787C
7FF8
3FF0
0FC0
ENDCHAR
STARTCHAR char7878
ENCODING 7878
SWIDTH 30 0
DWIDTH 20 0
BBX 16 34 2 -6
BITMAP
03C0
07E0
0E70
1C38
0000
0000
FFFF
FFFF
FFFF
FFFF
F800
F800
F800
F800
F800
FFFE
FFFE
FFFE
FFFE
F800
F800
F800
F800
F800
FFFF
FFFF
FFFF
FFFF
0000
0000
03C0
03C0
03C0
03C0
ENDCHAR
STARTCHAR char7879
ENCODING 7879
SWIDTH 17 0
DWIDTH 16 0
BBX 14 28 1 -6
BITMAP
0780
0FC0
0FC0
1CE0
3870
0000
0FC0
3FF0
7FF8
78F8
F03C
F03C
FFFC
FFFC
FFFC
F000
F000
F03C
787C
7FF8
3FF0
0FC0
0000
0000
0780
0780
0780
0780
ENDCHAR
STARTCHAR char7880
ENCODING 7880
SWIDTH 24 0
DWIDTH 8 0
BBX 6 30 1 0
BITMAP
10
FC
CC
0C
18
30
00
00
78
78
78
78
78
78
78
78
78
78
78
78
78
78
78
78
78
78
78
78
78
78
ENDCHAR
STARTCHAR char7881
ENCODING 7881
SWIDTH 24 0
DWIDTH 8 0
BBX 6 24 1 0
BITMAP
10
FC
CC
0C
18
30
00
00
78
78
78
78
78
78
78
78
78
78
78
78
78
78
78
78
ENDCHAR
STARTCHAR char7882
ENCODING 7882
SWIDTH 24 0
DWIDTH 8 0
BBX 4 28 2 -6
BITMAP
F0
F0
F0
F0
F0
F0
F0
F0
F0
F0
F0
F0
F0
F0
F0
F0
F0
F0
F0
F0
F0
F0
00
00
F0
F0
F0
F0
ENDCHAR
STARTCHAR char7883
ENCODING 7883
SWIDTH 24 0
DWIDTH 8 0
BBX 4 28 2 -6
BITMAP
F0
F0
F0
F0
00
00
F0
F0
F0
F0
F0
F0
F0
F0
F0
F0
F0
F0
F0
F0
F0
F0
00
00
F0
F0
F0
F0
ENDCHAR
STARTCHAR char7884
ENCODING 7884
SWIDTH 8 0
DWIDTH 23 0
BBX 21 28 1 -6
BITMAP
01FC00
07FF00
0FFF80
1FFFC0
3F07E0
7C03E0
7C01F0
7800F0
F800F0
F800F8
F800F8
F800F8
F800F8
F800F8
7800F0
7C01F0
7C01F0
3F07E0
1FFFC0
0FFF80
07FF00
01FC00
000000
000000
00F000
00F000
00F000
00F000
ENDCHAR
STARTCHAR char7885
ENCODING 7885
SWIDTH 24 0
DWIDTH 18 0
BBX 16 22 1 -6
BITMAP
07E0
1FF8
3FFC
7E7E
783E
F81E
F01F
F01F
F00F
F01F
F81E
783E
7E7E
3FFC
1FF8
07E0
0000
0000
03C0
03C0
03C0
03C0
ENDCHAR
STARTCHAR char7886
ENCODING 7886
SWIDTH 8 0
DWIDTH 23 0
BBX 21 29 1 0
BITMAP
00F000
01F800
018C00
001C00
003000
006000
000000
01FC00
07FF00
0FFF80
1FFFC0
3F07E0
7C03E0
7C01F0
7800F0
F800F0
F800F8
F800F8
F800F8
F800F8
F800F8
7800F0
7C01F0
7C01F0
3F07E0
1FFFC0
0FFF80
07FF00
01FC00
ENDCHAR
STARTCHAR char7887
ENCODING 7887
SWIDTH 24 0
DWIDTH 18 0
BBX 16 23 1 0
BITMAP
03C0
07E0
0660
0060
01C0
0180
0000
07E0
1FF8
3FFC
7E7E
783E
F81E
F01F
F01F
F00F
F01F
F81E
783E
7E7E
3FFC
1FF8
07E0
ENDCHAR
STARTCHAR char7888
ENCODING 7888
SWIDTH 8 0
DWIDTH 23 0
BBX 21 32 1 0
BITMAP
001E00
003C00
003800
007000
000000
00F800
01FC00
03DE00
070700
000000
01FC00
07FF00
0FFF80
1FFFC0
3F07E0
7C03E0
7C01F0
7800F0
F800F0
F800F8
F800F8
F800F8
F800F8
F800F8
7800F0
7C01F0
7C01F0
3F07E0
1FFFC0
0FFF80
07FF00
01FC00
ENDCHAR
STARTCHAR char7889
ENCODING 7889
SWIDTH 24 0
DWIDTH 18 0
BBX 16 27 1 0
BITMAP
00F8
00F0
01E0
01C0
0000
03C0
07E0
0E70
1C38
0000
0000
07E0
1FF8
3FFC
7E7E
783E
F81E
F01F
F01F
F00F
F01F
F81E
783E
7E7E
3FFC
1FF8
07E0
ENDCHAR
STARTCHAR char7890
ENCODING 7890
SWIDTH 8 0
DWIDTH 23 0
BBX 21 32 1 0
BITMAP
07C000
03E000
01E000
00F000
000000
00F800
01FC00
03DE00
070700
000000
01FC00
07FF00
0FFF80
1FFFC0
3F07E0
7C03E0
7C01F0
7800F0
F800F0
F800F8
F800F8
F800F8
F800F8
F800F8
7800F0
7C01F0
7C01F0
3F07E0
1FFFC0
0FFF80
07FF00
01FC00
ENDCHAR
STARTCHAR char7891
ENCODING 7891
SWIDTH 24 0
DWIDTH 18 0
BBX 16 27 1 0
BITMAP
1F00
0F00
0780
0380
0000
03C0
07E0
0E70
1C38
0000
0000
07E0
1FF8
3FFC
7E7E
783E
F81E
F01F
F01F
F00F
F01F
F81E
783E
7E7E
3FFC
1FF8
07E0
ENDCHAR
STARTCHAR char7892
ENCODING 7892
SWIDTH 8 0
DWIDTH 23 0
BBX 21 33 1 0
BITMAP
003E00
003300
000300
000E00
000C00
000000
00F800
01FC00
03DE00
070700
000000
01FC00
07FF00
0FFF80
1FFFC0
3F07E0
7C03E0
7C01F0
7800F0
F800F0
F800F8
F800F8
F800F8
F800F8
F800F8
7800F0
7C01F0
7C01F0
3F07E0
1FFFC0
0FFF80
07FF00
01FC00
ENDCHAR
STARTCHAR char7893
ENCODING 7893
SWIDTH 24 0
DWIDTH 18 0
BBX 16 28 1 0
BITMAP
00F0
01D8
019C
0038
0060
0000
03C0
07E0
0E70
1C38
0000
0000
07E0
1FF8
3FFC
7E7E
783E
F81E
F01F
F01F
F00F
F01F
F81E
783E
7E7E
3FFC
1FF8
07E0
ENDCHAR
STARTCHAR char7894
ENCODING 7894
SWIDTH 8 0
DWIDTH 23 0
BBX 21 32 1 0
BITMAP
000300
03E700
03FE00
061E00
000000
00F800
01FC00
03DE00
070700
000000
01FC00
07FF00
0FFF80
1FFFC0
3F07E0
7C03E0
7C01F0
7800F0
F800F0
F800F8
F800F8
F800F8
F800F8
F800F8
7800F0
7C01F0
7C01F0
3F07E0
1FFFC0
0FFF80
07FF00
01FC00
ENDCHAR
STARTCHAR char7895
ENCODING 7895
SWIDTH 24 0
DWIDTH 18 0
BBX 16 27 1 0
BITMAP
0418
0F98
1FF8
18F0
0000
03C0
07E0
0E70
1C38
0000
0000
07E0
1FF8
3FFC
7E7E
783E
F81E
F01F
F01F
F00F
F01F
F81E
783E
7E7E
3FFC
1FF8
07E0
ENDCHAR
STARTCHAR char7896
ENCODING 7896
SWIDTH 8 0
DWIDTH 23 0
BBX 21 33 1 -6
BITMAP
00F800
01FC00
03DE00
070700
000000
01FC00
07FF00
0FFF80
1FFFC0
3F07E0
7C03E0
7C01F0
7800F0
F800F0
F800F8
F800F8
F800F8
F800F8
F800F8
7800F0
7C01F0
7C01F0
3F07E0
1FFFC0
0FFF80
07FF00
01FC00
000000
000000
00F000
00F000
00F000
00F000
ENDCHAR
STARTCHAR char7897
ENCODING 7897
SWIDTH 24 0
DWIDTH 18 0
BBX 16 28 1 -6
BITMAP
03C0
07E0
07E0
0E70
1C38
0000
07E0
1FF8
3FFC
7E7E
783E
F81E
F01F
F01F
F00F
F01F
F81E
783E
7E7E
3FFC
1FF8
07E0
0000
0000
03C0
03C0
03C0
03C0
ENDCHAR
STARTCHAR char7898
ENCODING 7898
SWIDTH 11 0
DWIDTH 24 0
BBX 22 27 1 0
BITMAP
001E00
003C00
00383C
00703C
00003C
01FC3C
07FF0C
0FFF8C
1FFFD8
3F07F8
7C03F0
7C01F0
7800F0
F800F0
F800F8
F800F8
F800F8
F800F8
F800F8
7800F0
7C01F0
7C01F0
3F07E0
3FFFC0
1FFFC0
07FF00
01FC00
ENDCHAR
STARTCHAR char7899
ENCODING 7899
SWIDTH 30 0
DWIDTH 20 0
BBX 18 22 1 0
BITMAP
00F800
00F000
01E3C0
01C3C0
0383C0
0003C0
07E0C0
1FF8C0
3FFDC0
7E7F80
783F00
F81E00
F01F00
F00F00
F00F00
F01F00
F81E00
783E00
7E7E00
3FFC00
1FF800
07E000
ENDCHAR
STARTCHAR char7900
ENCODING 7900
SWIDTH 11 0
DWIDTH 24 0
BBX 22 27 1 0
BITMAP
07C000
03E000
01E03C
00F03C
00003C
01FC3C
07FF0C
0FFF8C
1FFFD8
3F07F8
7C03F0
7C01F0
7800F0
F800F0
F800F8
F800F8
F800F8
F800F8
F800F8
7800F0
7C01F0
7C01F0
3F07E0
3FFFC0
1FFFC0
07FF00
01FC00
ENDCHAR
STARTCHAR char7901
ENCODING 7901
SWIDTH 30 0
DWIDTH 20 0
BBX 18 22 1 0
BITMAP
1F0000
0F0000
0703C0
0383C0
0383C0
0003C0
07E0C0
1FF8C0
3FFDC0
7E7F80
783F00
F81E00
F01F00
F00F00
F00F00
F01F00
F81E00
783E00
7E7E00
3FFC00
1FF800
07E000
ENDCHAR
STARTCHAR char7902
ENCODING 7902
SWIDTH 11 0
DWIDTH 24 0
BBX 22 29 1 0
BITMAP
00F000
01F800
018C00
001C00
00303C
00603C
00003C
01FC3C
07FF0C
0FFF8C
1FFFD8
3F07F8
7C03F0
7C01F0
7800F0
F800F0
F800F8
F800F8
F800F8
F800F8
F800F8
7800F0
7C01F0
7C01F0
3F07E0
3FFFC0
1FFFC0
07FF00
01FC00
ENDCHAR
STARTCHAR char7903
ENCODING 7903
SWIDTH 30 0
DWIDTH 20 0
BBX 18 23 1 0
BITMAP
03C000
07E000
066000
00E3C0
01C3C0
0183C0
0003C0
07E0C0
1FF8C0
3FFDC0
7E7F80
783F00
F81E00
F01F00
F00F00
F00F00
F01F00
F81E00
783E00
7E7E00
3FFC00
1FF800
07E000
ENDCHAR
STARTCHAR char7904
ENCODING 7904
SWIDTH 11 0
DWIDTH 24 0
BBX 22 27 1 0
BITMAP
01E300
03FE00
077E3C
06003C
00003C
01FC3C
07FF0C
0FFF8C
1FFFD8
3F07F8
7C03F0
7C01F0
7800F0
F800F0
F800F8
F800F8
F800F8
F800F8
F800F8
7800F0
7C01F0
7C01F0
3F07E0
3FFFC0
1FFFC0
07FF00
01FC00
ENDCHAR
STARTCHAR char7905
ENCODING 7905
SWIDTH 30 0
DWIDTH 20 0
BBX 18 22 1 0
BITMAP
0F1800
1FF800
19F3C0
1803C0
0003C0
0003C0
07E0C0
1FF8C0
3FFDC0
7E7F80
783F00
F81E00
F01F00
F00F00
F00F00
F01F00
F81E00
783E00
7E7E00
3FFC00
1FF800
07E000
ENDCHAR
STARTCHAR char7906
ENCODING 7906
SWIDTH 11 0
DWIDTH 24 0
BBX 22 31 1 -6
BITMAP
00003C
00003C
00003C
01FC3C
07FF0C
0FFF8C
1FFFD8
3F07F8
7C03F0
7C01F0
7800F0
F800F0
F800F8
F800F8
F800F8
F800F8
F800F8
7800F0
7C01F0
7C01F0
3F07E0
3FFFC0
1FFFC0
07FF00
01FC00
000000
000000
00F800
00F800
00F800
00F800
ENDCHAR
STARTCHAR char7907
ENCODING 7907
SWIDTH 30 0
DWIDTH 20 0
BBX 18 26 1 -6
BITMAP
0003C0
0003C0
0003C0
0003C0
07E0C0
1FF8C0
3FFDC0
7E7F80
783F00
F81E00
F01F00
F00F00
F00F00
F01F00
F81E00
783E00
7E7E00
3FFC00
1FF800
07E000
000000
000000
03C000
03C000
03C000
03C000
ENDCHAR
STARTCHAR char7908
ENCODING 7908
SWIDTH 2 0
DWIDTH 21 0
BBX 17 28 2 -6
BITMAP
F80780
F80780
F80780
F80780
F80780
F80780
F80780
F80780
F80780
F80780
F80780
F80780
F80780
F80780
F80780
F80780
F80F80
7C1F80
7FFF00
3FFE00
1FFC00
07F000
000000
000000
01E000
01E000
01E000
01E000
ENDCHAR
STARTCHAR char7909
ENCODING 7909
SWIDTH 24 0
DWIDTH 18 0
BBX 14 22 2 -6
BITMAP
F03C
F03C
F03C
F03C
F03C
F03C
F03C
F03C
F03C
F03C
F03C
F07C
FDFC
FFFC
7FBC
3F3C
0000
0000
0780
0780
0780
0780
ENDCHAR
STARTCHAR char7910
ENCODING 7910
SWIDTH 2 0
DWIDTH 21 0
BBX 17 30 2 0
BITMAP
008000
03E000
063000
003000
00E000
008000
000000
000000
F80780
F80780
F80780
F80780
F80780
F80780
F80780
F80780
F80780
F80780
F80780
F80780
F80780
F80780
F80780
F80780
F80F80
7C1F80
7FFF00
3FFE00
1FFC00
07F000
ENDCHAR
STARTCHAR char7911
ENCODING 7911
SWIDTH 24 0
DWIDTH 18 0
BBX 14 23 2 1
BITMAP
0FC0
0CC0
00C0
0180
0300
0000
0000
F03C
F03C
F03C
F03C
F03C
F03C
F03C
F03C
F03C
F03C
F03C
F07C
FDFC
FFFC
7FBC
3F3C
ENDCHAR
STARTCHAR char7912
ENCODING 7912
SWIDTH 11 0
DWIDTH 24 0
BBX 22 28 2 0
BITMAP
007C00
007800
00F03C
01E03C
00003C
00003C
F8078C
F8079C
F80798
F807B8
F807F0
F807E0
F80780
F80780
F80780
F80780
F80780
F80780
F80780
F80780
F80780
F80780
F80F80
7C1F80
7FFF00
3FFE00
1FFC00
07F000
ENDCHAR
STARTCHAR char7913
ENCODING 7913
SWIDTH 2 0
DWIDTH 21 0
BBX 19 23 2 0
BITMAP
01F000
01E000
03C000
0381E0
0381E0
0001E0
0001E0
F03C60
F03CC0
F03CC0
F03D80
F03F80
F03E00
F03C00
F03C00
F03C00
F03C00
F03C00
F07C00
FDFC00
FFFC00
7FBC00
3E3C00
ENDCHAR
STARTCHAR char7914
ENCODING 7914
SWIDTH 11 0
DWIDTH 24 0
BBX 22 28 2 0
BITMAP
0F0000
078000
03803C
01C03C
00003C
00003C
F8078C
F8079C
F80798
F807B8
F807F0
F807E0
F80780
F80780
F80780
F80780
F80780
F80780
F80780
F80780
F80780
F80780
F80F80
7C1F80
7FFF00
3FFE00
1FFC00
07F000
ENDCHAR
STARTCHAR char7915
ENCODING 7915
SWIDTH 2 0
DWIDTH 21 0
BBX 19 22 2 0
BITMAP
3C0000
1E0000
0E01E0
0F01E0
0701E0
0001E0
F03C60
F03CC0
F03CC0
F03D80
F03F80
F03E00
F03C00
F03C00
F03C00
F03C00
F03C00
F07C00
FDFC00
FFFC00
7FBC00
3E3C00
ENDCHAR
STARTCHAR char7916
ENCODING 7916
SWIDTH 11 0
DWIDTH 24 0
BBX 22 30 2 0
BITMAP
008000
03E000
073000
063000
00603C
00C03C
00003C
00003C
F8078C
F8079C
F80798
F807B8
F807F0
F807E0
F80780
F80780
F80780
F80780
F80780
F80780
F80780
F80780
F80780
F80780
F80F80
7C1F80
7FFF00
3FFE00
1FFC00
07F000
ENDCHAR
STARTCHAR char7917
ENCODING 7917
SWIDTH 2 0
DWIDTH 21 0
BBX 19 24 2 0
BITMAP
020000
0F8000
0CC000
18C000
0181E0
0301E0
0001E0
0001E0
F03C60
F03CC0
F03CC0
F03D80
F03F80
F03E00
F03C00
F03C00
F03C00
F03C00
F03C00
F07C00
FDFC00
FFFC00
7FBC00
3E3C00
ENDCHAR
STARTCHAR char7918
ENCODING 7918
SWIDTH 11 0
DWIDTH 24 0
BBX 22 27 2 0
BITMAP
0F8C00
0FFC3C
0CF83C
00003C
00003C
F8078C
F8079C
F80798
F807B8
F807F0
F807E0
F80780
F80780
F80780
F80780
F80780
F80780
F80780
F80780
F80780
F80780
F80F80
7C1F80
7FFF00
3FFE00
1FFC00
07F000
ENDCHAR
STARTCHAR char7919
ENCODING 7919
SWIDTH 2 0
DWIDTH 21 0
BBX 19 22 2 0
BITMAP
1E3000
3FF000
33E1E0
2001E0
0001E0
0001E0
F03CC0
F03CC0
F03CC0
F03F80
F03F00
F03E00
F03C00
F03C00
F03C00
F03C00
F03C00
F07C00
FDFC00
FFFC00
7FBC00
3E3C00
ENDCHAR
STARTCHAR char7920
ENCODING 7920
SWIDTH 11 0
DWIDTH 24 0
BBX 22 32 2 -6
BITMAP
00003C
00003C
00003C
00003C
F8078C
F8079C
F80798
F807B8
F807F0
F807E0
F80780
F80780
F80780
F80780
F80780
F80780
F80780
F80780
F80780
F80780
F80F80
7C1F80
7FFF00
3FFE00
1FFC00
07F000
000000
000000
01E000
01E000
01E000
01E000
ENDCHAR
STARTCHAR char7921
ENCODING 7921
SWIDTH 2 0
DWIDTH 21 0
BBX 19 26 2 -6
BITMAP
0001E0
0001E0
0001E0
0001E0
F03C60
F03CC0
F03CC0
F03D80
F03F80
F03E00
F03C00
F03C00
F03C00
F03C00
F03C00
F07C00
FDFC00
FFFC00
7FBC00
3E3C00
000000
000000
078000
078000
078000
078000
ENDCHAR
STARTCHAR char7922
ENCODING 7922
SWIDTH 30 0
DWIDTH 20 0
BBX 18 28 1 0
BITMAP
0F8000
078000
03C000
01C000
000000
000000
F807C0
780780
7C0F80
3C0F00
3E1F00
1E1E00
1F3E00
0F3C00
0FBC00
07F800
07F800
03F000
03F000
01E000
01E000
01E000
01E000
01E000
01E000
01E000
01E000
01E000
ENDCHAR
STARTCHAR char7923
ENCODING 7923
SWIDTH 17 0
DWIDTH 16 0
BBX 16 28 0 -6
BITMAP
1F00
0F00
0780
0380
01C0
0000
F81F
781E
7C1E
3C1E
3C3C
3C3C
1E38
1E78
1E78
0F70
0F70
0FF0
07E0
07E0
07E0
03C0
03C0
03C0
0780
1F80
1F00
1E00
ENDCHAR
STARTCHAR char7924
ENCODING 7924
SWIDTH 30 0
DWIDTH 20 0
BBX 18 28 1 -6
BITMAP
F807C0
780780
7C0F80
3C0F00
3E1F00
1E1E00
1F3E00
0F3C00
0FBC00
07F800
07F800
03F000
03F000
01E000
01E000
01E000
01E000
01E000
01E000
01E000
01E000
01E000
000000
000000
01E000
01E000
01E000
01E000
ENDCHAR
STARTCHAR char7925
ENCODING 7925
SWIDTH 17 0
DWIDTH 16 0
BBX 16 22 0 -6
BITMAP
F81F
781E
7C1E
3C1E
3C3C
3C3C
1E38
1E78
1E78
0F70
0F70
0FF0
07E0
07E0
07E0
03C0
03C0
03C0
079E
1F9E
1F1E
1E1E
ENDCHAR
STARTCHAR char7926
ENCODING 7926
SWIDTH 30 0
DWIDTH 20 0
BBX 18 30 1 0
BITMAP
004000
03F000
033000
003000
006000
00C000
000000
000000
F807C0
780780
7C0F80
3C0F00
3E1F00
1E1E00
1F3E00
0F3C00
0FBC00
07F800
07F800
03F000
03F000
01E000
01E000
01E000
01E000
01E000
01E000
01E000
01E000
01E000
ENDCHAR
STARTCHAR char7927
ENCODING 7927
SWIDTH 17 0
DWIDTH 16 0
BBX 16 30 0 -6
BITMAP
0080
07E0
0660
0060
00C0
0180
0000
0000
F81F
781E
7C1E
3C1E
3C3C
3C3C
1E38
1E78
1E78
0F70
0F70
0FF0
07E0
07E0
07E0
03C0
03C0
03C0
0780
1F80
1F00
1E00
ENDCHAR
STARTCHAR char7928
ENCODING 7928
SWIDTH 30 0
DWIDTH 20 0
BBX 18 27 1 0
BITMAP
07CC00
0FFC00
0C7800
000000
000000
F807C0
780780
7C0F80
3C0F00
3E1F00
1E1E00
1F3E00
0F3C00
0FBC00
07F800
07F800
03F000
03F000
01E000
01E000
01E000
01E000
01E000
01E000
01E000
01E000
01E000
ENDCHAR
STARTCHAR char7929
ENCODING 7929
SWIDTH 17 0
DWIDTH 16 0
BBX 16 28 0 -6
BITMAP
0F98
1FF8
1DF8
1800
0000
0000
F81F
781E
7C1E
3C1E
3C3C
3C3C
1E38
1E78
1E78
0F70
0F70
0FF0
07E0
07E0
07E0
03C0
03C0
03C0
0780
1F80
1F00
1E00
ENDCHAR
STARTCHAR char8208
ENCODING 8208
SWIDTH 30 0
DWIDTH 10 0
BBX 8 4 1 6
BITMAP
FF
FF
FF
FF
ENDCHAR
STARTCHAR char8209
ENCODING 8209
SWIDTH 30 0
DWIDTH 10 0
BBX 8 4 1 6
BITMAP
FF
FF
FF
FF
ENDCHAR
STARTCHAR char8211
ENCODING 8211
SWIDTH 17 0
DWIDTH 16 0
BBX 16 3 0 6
BITMAP
FFFF
FFFF
FFFF
ENDCHAR
STARTCHAR char8212
ENCODING 8212
SWIDTH 26 0
DWIDTH 29 0
BBX 29 3 0 6
BITMAP
FFFFFFF8
FFFFFFF8
FFFFFFF8
ENDCHAR
STARTCHAR char8214
ENCODING 8214
SWIDTH 21 0
DWIDTH 17 0
BBX 9 28 4 -6
BITMAP
E380
E380
E380
E380
E380
E380
E380
E380
E380
E380
E380
E380
E380
E380
E380
E380
E380
E380
E380
E380
E380
E380
E380
E380
E380
E380
E380
E380
ENDCHAR
STARTCHAR char8216
ENCODING 8216
SWIDTH 24 0
DWIDTH 8 0
BBX 4 8 2 14
BITMAP
30
70
C0
C0
F0
F0
F0
F0
ENDCHAR
STARTCHAR char8217
ENCODING 8217
SWIDTH 24 0
DWIDTH 8 0
BBX 4 8 2 14
BITMAP
F0
F0
F0
F0
30
30
E0
C0
ENDCHAR
STARTCHAR char8218
ENCODING 8218
SWIDTH 24 0
DWIDTH 8 0
BBX 4 8 2 -4
BITMAP
F0
F0
F0
F0
30
30
E0
C0
ENDCHAR
STARTCHAR char8220
ENCODING 8220
SWIDTH 14 0
DWIDTH 15 0
BBX 11 8 2 14
BITMAP
3060
70C0
C180
C100
F1E0
F1E0
F1E0
F1E0
ENDCHAR
STARTCHAR char8221
ENCODING 8221
SWIDTH 14 0
DWIDTH 15 0
BBX 11 8 2 14
BITMAP
F1E0
F1E0
F1E0
F1E0
3060
3060
E1C0
C180
ENDCHAR
STARTCHAR char8222
ENCODING 8222
SWIDTH 14 0
DWIDTH 15 0
BBX 11 8 2 -4
BITMAP
F1E0
F1E0
F1E0
F1E0
3060
3040
61C0
C180
ENDCHAR
STARTCHAR char8224
ENCODING 8224
SWIDTH 17 0
DWIDTH 16 0
BBX 14 27 1 -6
BITMAP
0780
0780
0780
0780
0780
0780
0780
FFFC
FFFC
FFFC
0780
0780
0780
0780
0780
0780
0780
0780
0780
0780
0780
0780
0780
0780
0780
0780
0780
ENDCHAR
STARTCHAR char8225
ENCODING 8225
SWIDTH 17 0
DWIDTH 16 0
BBX 14 27 1 -6
BITMAP
0780
0780
0780
0780
0780
0780
0780
FFFC
FFFC
FFFC
0780
0780
0780
0780
0780
0780
0780
FFFC
FFFC
FFFC
0780
0780
0780
0780
0780
0780
0780
ENDCHAR
STARTCHAR char8226
ENCODING 8226
SWIDTH 30 0
DWIDTH 10 0
BBX 8 7 1 5
BITMAP
3C
7E
7F
FF
7F
7E
3C
ENDCHAR
STARTCHAR char8230
ENCODING 8230
SWIDTH 26 0
DWIDTH 29 0
BBX 24 4 3 0
BITMAP
F07C1F
F07C1F
F07C1F
F07C1F
ENDCHAR
STARTCHAR char8240
ENCODING 8240
SWIDTH 26 0
DWIDTH 29 0
BBX 29 22 0 0
BITMAP
1E038000
7F070000
77860000
E18E0000
E19C0000
639C0000
7F380000
3E380000
00700000
00600000
00E00000
00C00000
01C00000
03800000
039F03E0
073F87F0
0731CE38
0E70CE18
0C70CE18
1C39C738
383F87F0
380F01E0
ENDCHAR
STARTCHAR char8241
ENCODING 8241
SWIDTH 29 0
DWIDTH 40 0
BBX 40 22 0 0
BITMAP
1E03800000
7F07000000
7786000000
E18E000000
E19C000000
639C000000
7F38000000
3E38000000
0070000000
0060000000
00E0000000
00C0000000
01C0000000
0380000000
039F03E07C
073F87F0FE
0731CE39C7
0E70CE1987
0C70CE19C7
1C39C739CE
383F87F0FE
380F01E078
ENDCHAR
STARTCHAR char8249
ENCODING 8249
SWIDTH 30 0
DWIDTH 10 0
BBX 5 12 2 2
BITMAP
08
08
18
78
F0
E0
E0
F0
78
38
08
08
ENDCHAR
STARTCHAR char8250
ENCODING 8250
SWIDTH 30 0
DWIDTH 10 0
BBX 5 12 2 2
BITMAP
80
C0
E0
F0
38
18
18
38
F0
E0
C0
80
ENDCHAR
STARTCHAR char8251
ENCODING 8251
SWIDTH 21 0
DWIDTH 17 0
BBX 17 16 0 -1
BITMAP
01C000
03E000
0BE800
1DDC00
1E3C00
0F7800
77F700
FBEF80
FBE780
77F700
0F7800
1E3C00
0DD800
03E000
03E000
01C000
ENDCHAR
STARTCHAR char8253
ENCODING 8253
SWIDTH 24 0
DWIDTH 18 0
BBX 14 23 2 0
BITMAP
0780
0780
3FE0
7FF0
7FF8
FFFC
F7BC
F7BC
F7BC
07BC
07FC
07F8
03F0
03E0
07C0
0780
0780
0000
0000
0780
0780
0780
0780
ENDCHAR
STARTCHAR char8255
ENCODING 8255
SWIDTH 24 0
DWIDTH 18 0
BBX 16 4 1 -6
BITMAP
F00F
FFFF
7FFE
1FF8
ENDCHAR
STARTCHAR char8256
ENCODING 8256
SWIDTH 24 0
DWIDTH 18 0
BBX 16 5 1 17
BITMAP
0FF0
3FFC
7FFE
F81F
E007
ENDCHAR
STARTCHAR char8260
ENCODING 8260
SWIDTH 15 0
DWIDTH 5 0
BBX 15 22 -5 -1
BITMAP
000E
001C
0018
0038
0030
0070
0060
00E0
00C0
01C0
0380
0300
0700
0600
0E00
0C00
1C00
3800
3000
7000
6000
E000
ENDCHAR
STARTCHAR char8261
ENCODING 8261
SWIDTH 5 0
DWIDTH 12 0
BBX 8 27 2 -6
BITMAP
0F
3F
7F
FE
F0
F0
F0
F0
F0
F0
F0
FC
7F
7F
7F
F8
F0
F0
F0
F0
F0
F0
F0
FE
7F
3F
0F
ENDCHAR
STARTCHAR char8262
ENCODING 8262
SWIDTH 5 0
DWIDTH 12 0
BBX 8 27 2 -6
BITMAP
E0
FC
FE
7F
0F
0F
0F
0F
0F
0F
0F
7F
FE
FC
FE
1F
0F
0F
0F
0F
0F
0F
0F
7F
FE
FC
E0
ENDCHAR
STARTCHAR char8274
ENCODING 8274
SWIDTH 17 0
DWIDTH 16 0
BBX 14 22 1 0
BITMAP
003C
003C
7078
F878
FCF0
FCF0
79E0
21E0
03C0
03C0
0380
0780
0700
0F00
0E00
1E7C
1C7C
3C7C
387C
7838
7000
F000
ENDCHAR
STARTCHAR char8276
ENCODING 8276
SWIDTH 24 0
DWIDTH 18 0
BBX 16 4 1 -6
BITMAP
1FF8
7FFE
FFFF
E00F
ENDCHAR
STARTCHAR char8353
ENCODING 8353
SWIDTH 2 0
DWIDTH 21 0
BBX 19 26 1 -2
BITMAP
006000
006000
01F800
07FF00
1FFF80
3FFFC0
3E67C0
7C63E0
7C63E0
7861E0
F86000
F86000
F86000
F86000
F86000
F86000
7861E0
7C61E0
7C63E0
3E67C0
3FFFC0
1FFF80
0FFF00
01F800
006000
006000
ENDCHAR
STARTCHAR char8356
ENCODING 8356
SWIDTH 17 0
DWIDTH 16 0
BBX 15 21 1 0
BITMAP
0FC0
3FF0
7FF8
7CFC
F83C
F03C
F03C
F800
FFC0
FFC0
3C00
FFC0
FFC0
1E00
1E00
1C00
3804
FFFC
FFFC
7FFE
41F8
ENDCHAR
STARTCHAR char8358
ENCODING 8358
SWIDTH 2 0
DWIDTH 21 0
BBX 22 22 0 0
BITMAP
3E01E0
3E01E0
3F01E0
3F01E0
3F81E0
3FC1E0
FFFFFC
FFFFFC
3DE1E0
3CF1E0
3CF1E0
3C79E0
FFFFFC
FFFFFC
3C1FE0
3C1FE0
3C0FE0
3C0FE0
3C07E0
3C03E0
3C03E0
3C01E0
ENDCHAR
STARTCHAR char8361
ENCODING 8361
SWIDTH 23 0
DWIDTH 28 0
BBX 27 22 0 0
BITMAP
780F01E0
781F03E0
7C1F83E0
7C1F83C0
3C1F83C0
3C1F83C0
FFFFFFE0
FFFFFFE0
1E39C780
1E39C780
1E39C780
1E79CF00
FFFFFFE0
FFFFFFE0
0F70EE00
0770EE00
07F0FE00
07E0FE00
07E07C00
03E07C00
03E07C00
03C07C00
ENDCHAR
STARTCHAR char8363
ENCODING 8363
SWIDTH 24 0
DWIDTH 18 0
BBX 14 25 2 -3
BITMAP
0078
0078
03FC
0078
0078
3F78
7FF8
7FF8
F0F8
F078
E078
E078
E078
F078
F0F8
7DF8
7FF8
3F78
0600
0000
0000
0000
FFFC
FFFC
FFFC
ENDCHAR
STARTCHAR char8364
ENCODING 8364
SWIDTH 17 0
DWIDTH 16 0
BBX 16 22 0 -1
BITMAP
00F8
03FE
07FF
0FFF
0F86
1F02
1E00
3E00
7FFC
FFF8
3C00
3C00
7FF0
FFF0
3E00
1E00
1F02
1F8E
0FFF
07FF
03FE
0070
ENDCHAR
STARTCHAR char8369
ENCODING 8369
SWIDTH 30 0
DWIDTH 20 0
BBX 19 22 0 0
BITMAP
3FFE00
3FFF80
3FFF80
3FFFC0
3E07C0
3E03C0
3E03E0
3E03E0
3E03C0
3E07C0
3FFFC0
3FFF80
3FFF00
3FFE00
3E0000
3E0000
FFC000
FFC000
3E0000
3E0000
3E0000
3E0000
ENDCHAR
STARTCHAR char8451
ENCODING 8451
SWIDTH 10 0
DWIDTH 34 0
BBX 29 22 2 0
BITMAP
0000FE00
3C03FF80
7E07FFC0
C30FFFE0
831F81F0
831F00F0
C33E00F0
7E3E0000
3C3E0000
003C0000
003C0000
003C0000
003C0000
003C0000
003E00F8
003E00F0
001F00F0
001F81F0
000FFFE0
0007FFC0
0003FF80
0000FE00
ENDCHAR
STARTCHAR char8467
ENCODING 8467
SWIDTH 14 0
DWIDTH 15 0
BBX 13 22 1 0
BITMAP
03C0
0FE0
0FF0
1FF0
1E70
1E70
1EF0
1EE0
1FE0
1FC0
1FC0
1F80
1F00
1E00
3E00
7E00
FE00
5E00
1F20
0FF8
0FF0
03C0
ENDCHAR
STARTCHAR char8470
ENCODING 8470
SWIDTH 1 0
DWIDTH 31 0
BBX 28 22 1 0
BITMAP
F80F0000
F80F0000
FC0F0000
FC0F0000
FE0F0000
FE0F0000
FF0F07C0
FF0F1FE0
FF8F1CF0
FB8F3870
FBCF3830
F9CF3830
F9EF3830
F8EF3870
F8EF1CF0
F87F1FE0
F87F07C0
F83F0000
F83F3FF0
F81F3FF0
F81F3FF0
F80F3FF0
ENDCHAR
STARTCHAR char8471
ENCODING 8471
SWIDTH 5 0
DWIDTH 22 0
BBX 20 21 1 0
BITMAP
00F000
07FE00
1E0700
380180
3000C0
63FC60
C3FE60
C38E30
C38730
838E30
83FE30
83FC30
C3F030
C38030
C38060
638060
7000C0
380180
1C0700
07FE00
01F800
ENDCHAR
STARTCHAR char8472
ENCODING 8472
SWIDTH 2 0
DWIDTH 21 0
BBX 17 23 2 -6
BITMAP
100000
387800
3CFE00
79FE00
73CF00
F7CF00
F78780
FF8780
FF0780
FF0780
FE0780
FE0780
7C0F00
7C7F00
7CFE00
7CFC00
7C7800
7E0000
FE0000
EE0000
EE0000
FE0000
7C0000
ENDCHAR
STARTCHAR char8478
ENCODING 8478
SWIDTH 2 0
DWIDTH 21 0
BBX 20 22 2 0
BITMAP
FFFC00
FFFF00
FFFF80
FFFF80
F80F80
F807C0
F807C0
F80780
F80780
FFFF00
FFFE00
FFFE00
FFFF00
F80F80
F80FB0
F80FF0
F80FC0
F80F80
F80F80
F83F80
F81780
F807C0
ENDCHAR
STARTCHAR char8480
ENCODING 8480
SWIDTH 29 0
DWIDTH 30 0
BBX 26 13 2 9
BITMAP
04000000
7F87C3C0
FFC7C7C0
E1C7C7C0
E1E7E7C0
FE07E7C0
7FC76FC0
0FE76FC0
E0E77DC0
E0E77DC0
FFE73DC0
7FC73DC0
0E0739C0
ENDCHAR
STARTCHAR char8482
ENCODING 8482
SWIDTH 26 0
DWIDTH 29 0
BBX 26 12 2 9
BITMAP
FFEF87C0
FFEF87C0
0E0FCFC0
0E0FCFC0
0E0FCFC0
0E0FCFC0
0E0FFFC0
0E0FFFC0
0E0F7BC0
0E0F7BC0
0E0F7BC0
0E0F7BC0
ENDCHAR
STARTCHAR char8486
ENCODING 8486
SWIDTH 8 0
DWIDTH 23 0
BBX 21 22 1 0
BITMAP
01F800
07FE00
0FFF80
1FFFC0
3F07C0
3E03E0
7C03E0
7C01E0
7801E0
7801F0
7C01E0
7C01E0
3C03E0
3E03E0
3F0FC0
1F8F80
0F8F00
0F8F00
FF8FF8
FF8FF8
FF8FF8
FF8FF8
ENDCHAR
STARTCHAR char8487
ENCODING 8487
SWIDTH 8 0
DWIDTH 23 0
BBX 21 22 1 0
BITMAP
FF8FF8
FF8FF8
FF8FF8
FF8FF8
0F8F00
0F8F00
1F8F80
1F0FC0
3E03E0
3C03E0
7C01E0
7C01E0
7801F0
7801E0
7C01E0
7C03E0
3E03E0
3F07C0
1FFFC0
0FFF80
07FE00
01F800
ENDCHAR
STARTCHAR char8494
ENCODING 8494
SWIDTH 14 0
DWIDTH 25 0
BBX 21 19 2 0
BITMAP
01FC00
060300
1800C0
300060
700070
700070
F00078
F00078
F00078
FFFFF8
F00000
F00000
F00000
700000
700000
300060
1800C0
040300
03FC00
ENDCHAR
STARTCHAR char8592
ENCODING 8592
SWIDTH 26 0
DWIDTH 29 0
BBX 23 15 3 0
BITMAP
080000
0E0000
1C0000
3C0000
380000
780000
7FFFFE
FFFFFE
7FFFFE
780000
380000
3C0000
1C0000
0E0000
080000
ENDCHAR
STARTCHAR char8593
ENCODING 8593
SWIDTH 5 0
DWIDTH 22 0
BBX 14 23 4 -4
BITMAP
0300
0F80
1FE0
7FF0
FFFC
F73C
4708
0700
0700
0700
0700
0700
0700
0700
0700
0700
0700
0700
0700
0700
0700
0700
0700
ENDCHAR
STARTCHAR char8594
ENCODING 8594
SWIDTH 26 0
DWIDTH 29 0
BBX 22 15 4 0
BITMAP
000040
0001E0
0000E0
0000F0
000078
000038
FFFFFC
FFFFFC
FFFFFC
000038
000078
0000F0
0000E0
0001E0
000040
ENDCHAR
STARTCHAR char8595
ENCODING 8595
SWIDTH 5 0
DWIDTH 22 0
BBX 14 22 4 -4
BITMAP
0700
0700
0700
0700
0700
0700
0700
0700
0700
0700
0700
0700
0700
0700
0700
4708
E71C
FF7C
7FF8
1FE0
0F80
0300
ENDCHAR
STARTCHAR char8706
ENCODING 8706
SWIDTH 11 0
DWIDTH 14 0
BBX 13 21 1 0
BITMAP
3F00
7F80
33C0
01E0
00E0
00F0
00F0
00F0
0078
1F78
3FF8
79F8
F0F8
F0F0
F0F0
F0F0
F0E0
F1E0
F3C0
7F80
1E00
ENDCHAR
STARTCHAR char8721
ENCODING 8721
SWIDTH 2 0
DWIDTH 21 0
BBX 15 25 3 -3
BITMAP
FFFE
FFFE
FFFE
FFFE
F800
F800
7C00
7C00
3E00
3E00
1F00
1F00
0F80
1F00
1E00
3E00
3C00
7C00
7800
F800
F000
FFFE
FFFE
FFFE
FFFE
ENDCHAR
STARTCHAR char8722
ENCODING 8722
SWIDTH 21 0
DWIDTH 17 0
BBX 13 3 2 6
BITMAP
FFF8
FFF8
FFF8
ENDCHAR
STARTCHAR char8723
ENCODING 8723
SWIDTH 21 0
DWIDTH 17 0
BBX 13 17 2 -2
BITMAP
FFF8
FFF8
FFF8
0000
0000
0000
0700
0700
0700
FFF8
FFF8
FFF8
0700
0700
0700
0700
0700
ENDCHAR
STARTCHAR char8725
ENCODING 8725
SWIDTH 0 0
DWIDTH 0 0
BBX 14 22 -7 -1
BITMAP
000C
001C
0018
0038
0070
0060
00E0
00C0
01C0
0180
0380
0700
0600
0E00
0C00
1C00
1800
3800
7000
6000
E000
C000
ENDCHAR
STARTCHAR char8727
ENCODING 8727
SWIDTH 14 0
DWIDTH 15 0
BBX 11 11 2 2
BITMAP
0E00
0E00
0E00
EEE0
FFE0
7FC0
1F00
1F80
3B80
71C0
1080
ENDCHAR
STARTCHAR char8730
ENCODING 8730
SWIDTH 17 0
DWIDTH 16 0
BBX 14 27 1 -2
BITMAP
000C
000C
000C
001C
0018
0018
0018
0018
0038
0030
0030
7030
F030
7070
1860
1860
1C60
0C60
0EE0
06C0
07C0
03C0
03C0
01C0
01C0
0080
0080
ENDCHAR
STARTCHAR char8734
ENCODING 8734
SWIDTH 8 0
DWIDTH 23 0
BBX 21 12 1 2
BITMAP
1E07C0
3F8FE0
7FDFF0
FFFFF0
F1FC78
E0F838
E0F878
F1FC78
FFFFF0
7FDFF0
3F8FE0
1F07C0
ENDCHAR
STARTCHAR char8738
ENCODING 8738
SWIDTH 21 0
DWIDTH 17 0
BBX 11 17 3 -1
BITMAP
0400
0700
0FC0
03E0
07E0
1FC0
7FC0
FCE0
F0E0
FCE0
7FC0
1FC0
07E0
03E0
0FC0
0700
0600
ENDCHAR
STARTCHAR char8776
ENCODING 8776
SWIDTH 21 0
DWIDTH 17 0
BBX 13 10 3 3
BITMAP
7C00
FE18
E7B8
C3F0
01F0
7C00
FE18
EF38
C3F8
01F0
ENDCHAR
STARTCHAR char8800
ENCODING 8800
SWIDTH 21 0
DWIDTH 17 0
BBX 13 18 2 -2
BITMAP
0060
0070
00E0
01E0
FFF8
FFF8
FFF8
0780
0700
0F00
FFF8
FFF8
FFF8
1C00
3800
3800
7000
1000
ENDCHAR
STARTCHAR char8804
ENCODING 8804
SWIDTH 21 0
DWIDTH 17 0
BBX 11 24 3 -1
BITMAP
0020
0060
00E0
03E0
07C0
0F00
1E00
7C00
F800
F000
E000
F800
7C00
3E00
0F00
0780
03E0
01E0
00E0
0020
0000
7FE0
7FE0
7FE0
ENDCHAR
STARTCHAR char8805
ENCODING 8805
SWIDTH 21 0
DWIDTH 17 0
BBX 11 24 4 -1
BITMAP
8000
8000
E000
F000
F800
3C00
1E00
0F80
07C0
01E0
01E0
03C0
0F80
1F00
3E00
7800
F000
E000
C000
8000
0000
FFC0
FFC0
FFC0
ENDCHAR
STARTCHAR char8902
ENCODING 8902
SWIDTH 17 0
DWIDTH 16 0
BBX 15 14 1 1
BITMAP
0300
0300
0300
0300
C30C
FB7E
FFFC
1FE0
07C0
0FC0
1CE0
3C70
3878
1020
ENDCHAR
STARTCHAR char8960
ENCODING 8960
SWIDTH 21 0
DWIDTH 17 0
BBX 15 14 1 0
BITMAP
07CC
1FFE
3FFC
3C78
78FC
71FC
73DC
7F9C
7F1C
3E78
7FF8
FFF0
77C0
2000
ENDCHAR
STARTCHAR char9001
ENCODING 9001
SWIDTH 5 0
DWIDTH 12 0
BBX 8 28 2 -6
BITMAP
07
07
0E
0E
1E
1C
1C
38
38
78
70
70
F0
E0
E0
F0
70
70
78
38
38
1C
1C
1E
0E
0E
07
07
ENDCHAR
STARTCHAR char9002
ENCODING 9002
SWIDTH 5 0
DWIDTH 12 0
BBX 8 28 2 -6
BITMAP
E0
F0
70
70
78
38
38
1C
1C
1E
0E
0E
07
07
07
07
0E
0E
1E
1C
1C
38
38
78
70
70
F0
E0
ENDCHAR
STARTCHAR char9250
ENCODING 9250
SWIDTH 24 0
DWIDTH 18 0
BBX 17 22 0 0
BITMAP
3C0000
3C0000
3D8000
3F8000
7F8000
FC0000
FCF800
3FFC00
3FFE00
3FBF00
3E0F00
3C0F80
3C0780
3C0780
3C0780
3C0780
3C0F80
3E0F00
3FBF00
3FFE00
3FFC00
3CF800
ENDCHAR
STARTCHAR char9251
ENCODING 9251
SWIDTH 14 0
DWIDTH 15 0
BBX 11 9 2 -3
BITMAP
E0E0
E0E0
E0E0
E0E0
E0E0
E0E0
FFE0
FFE0
FFE0
ENDCHAR
STARTCHAR char9674
ENCODING 9674
SWIDTH 11 0
DWIDTH 14 0
BBX 14 23 0 -1
BITMAP
0380
0780
07C0
0FC0
1FE0
1CE0
3C70
3870
7838
7038
F01C
E01C
F01C
7038
7838
3870
3C70
1CE0
1EE0
0FC0
07C0
0780
0380
ENDCHAR
STARTCHAR char9702
ENCODING 9702
SWIDTH 30 0
DWIDTH 10 0
BBX 8 7 1 5
BITMAP
3C
7E
7F
E7
7F
7E
3C
ENDCHAR
STARTCHAR char9834
ENCODING 9834
SWIDTH 30 0
DWIDTH 20 0
BBX 15 22 3 0
BITMAP
03C0
03C0
03C0
03E0
03E0
03F0
03F0
03F8
03FC
03FC
03DC
03DE
03CE
03CE
03C0
3FC0
7FC0
FFC0
FFC0
FFC0
7F80
3E00
ENDCHAR
STARTCHAR char9901
ENCODING 9901
SWIDTH 17 0
DWIDTH 16 0
BBX 21 16 -2 -1
BITMAP
0FFF80
1FFFC0
7FFFE0
7BFCF0
F39E70
E38E78
E70E38
E70E38
E70E38
E78E78
E39E78
73FCF0
7DFFE0
3FFFE0
0FFF80
018E00
ENDCHAR
STARTCHAR char9902
ENCODING 9902
SWIDTH 17 0
DWIDTH 16 0
BBX 29 32 -6 -9
BITMAP
00070000
00070000
00070000
00070000
00070000
00070000
00070000
00070000
1F070780
3F871FC0
7FC73FE0
71C738F0
E0E77870
E0E77070
E0E77038
C0E77038
C0E77038
E0E77038
E0E77070
E0E77870
71C738F0
7FC73FE0
3F871FC0
1F070780
00070000
00070000
00070000
00070000
00070000
00070000
00070000
00070000
ENDCHAR
STARTCHAR char10214
ENCODING 10214
SWIDTH 14 0
DWIDTH 15 0
BBX 11 28 2 -6
BITMAP
FFE0
FFE0
FFE0
FFE0
E380
E380
E380
E380
E380
E380
E380
E380
E380
E380
E380
E380
E380
E380
E380
E380
E380
E380
E380
E380
FFE0
FFE0
FFE0
FFE0
ENDCHAR
STARTCHAR char10215
ENCODING 10215
SWIDTH 14 0
DWIDTH 15 0
BBX 11 28 2 -6
BITMAP
FFE0
FFE0
FFE0
FFE0
1C60
1C60
1C60
1C60
1C60
1C60
1C60
1C60
1C60
1C60
1C60
1C60
1C60
1C60
1C60
1C60
1C60
1C60
1C60
1C60
FFE0
FFE0
FFE0
FFE0
ENDCHAR
STARTCHAR char10877
ENCODING 10877
SWIDTH 21 0
DWIDTH 17 0
BBX 11 29 3 -6
BITMAP
0020
0060
00E0
03E0
07C0
0F80
1E00
3C00
7800
F000
E000
F000
7800
3C00
1F00
0F80
07C0
41E0
60E0
7060
7820
3C00
1E00
0F80
07C0
03E0
00E0
0060
0020
ENDCHAR
STARTCHAR char10878
ENCODING 10878
SWIDTH 21 0
DWIDTH 17 0
BBX 11 29 3 -6
BITMAP
8000
8000
E000
F000
F800
3C00
1E00
0F00
07C0
03E0
01E0
03E0
07C0
0F00
1E00
7C00
F800
F040
C1C0
83C0
07C0
0F00
1E00
3C00
F800
F000
E000
8000
8000
ENDCHAR
STARTCHAR char57344
ENCODING 57344
SWIDTH 24 0
DWIDTH 18 0
BBX 16 26 1 0
BITMAP
0078
00F0
01E0
01C0
0000
1C38
1FF8
07E0
0000
0000
03E0
07E0
07E0
07F0
0FF0
0FF0
0F78
1E78
1E7C
3E3C
3FFC
3FFE
7FFE
781E
F80F
F00F
ENDCHAR
STARTCHAR char57345
ENCODING 57345
SWIDTH 24 0
DWIDTH 18 0
BBX 16 28 1 -6
BITMAP
1C38
0FF0
07F0
03C0
0000
0000
03E0
07E0
07E0
07F0
0FF0
0FF0
0F78
1E78
1E7C
3E3C
3FFC
3FFE
7FFE
781E
F80F
F00F
0000
0000
03C0
03C0
03C0
03C0
ENDCHAR
STARTCHAR char57346
ENCODING 57346
SWIDTH 24 0
DWIDTH 18 0
BBX 16 26 1 0
BITMAP
1F00
0F00
0780
0380
0000
1C38
1FF8
07E0
0000
0000
03E0
07E0
07E0
07F0
0FF0
0FF0
0F78
1E78
1E7C
3E3C
3FFC
3FFE
7FFE
781E
F80F
F00F
ENDCHAR
STARTCHAR char57347
ENCODING 57347
SWIDTH 24 0
DWIDTH 18 0
BBX 16 26 1 0
BITMAP
03C0
0760
0660
00E0
0180
1C38
1FF8
07E0
0000
0000
03E0
07E0
07E0
07F0
0FF0
0FF0
0F78
1E78
1E7C
3E3C
3FFC
3FFE
7FFE
781E
F80F
F00F
ENDCHAR
STARTCHAR char57348
ENCODING 57348
SWIDTH 24 0
DWIDTH 18 0
BBX 16 26 1 0
BITMAP
0608
0FF8
1FF8
1870
0000
1C38
1FF8
07E0
0000
0000
03E0
07E0
07E0
07F0
0FF0
0FF0
0F78
1E78
1E7C
3E3C
3FFC
3FFE
7FFE
781E
F80F
F00F
ENDCHAR
STARTCHAR char57349
ENCODING 57349
SWIDTH 24 0
DWIDTH 18 0
BBX 16 22 1 0
BITMAP
0C38
0F70
07E0
03C0
0000
0000
03E0
07E0
07E0
07F0
0FF0
0FF0
0F78
1E78
1E7C
3E3C
3FFC
3FFE
7FFE
781E
F80F
F00F
ENDCHAR
STARTCHAR char57350
ENCODING 57350
SWIDTH 24 0
DWIDTH 18 0
BBX 16 27 1 0
BITMAP
0078
00F0
01E0
01C0
0000
03E0
07F0
0E70
1C38
0000
0000
03E0
07E0
07E0
07F0
0FF0
0FF0
0F78
1E78
1E7C
3E3C
3FFC
3FFE
7FFE
781E
F80F
F00F
ENDCHAR
STARTCHAR char57351
ENCODING 57351
SWIDTH 24 0
DWIDTH 18 0
BBX 16 28 1 -6
BITMAP
03E0
07E0
0F70
0C38
0000
0000
03E0
07E0
07E0
07F0
0FF0
0FF0
0F78
1E78
1E7C
3E3C
3FFC
3FFE
7FFE
781E
F80F
F00F
0000
0000
03C0
03C0
03C0
03C0
ENDCHAR
STARTCHAR char57352
ENCODING 57352
SWIDTH 24 0
DWIDTH 18 0
BBX 16 27 1 0
BITMAP
1F00
0F00
0780
0380
0000
03E0
07F0
0E70
1C38
0000
0000
03E0
07E0
07E0
07F0
0FF0
0FF0
0F78
1E78
1E7C
3E3C
3FFC
3FFE
7FFE
781E
F80F
F00F
ENDCHAR
STARTCHAR char57353
ENCODING 57353
SWIDTH 24 0
DWIDTH 18 0
BBX 16 28 1 0
BITMAP
00F8
01DC
018C
0038
0020
0000
03E0
07F0
0E70
1C38
0000
0000
03E0
07E0
07E0
07F0
0FF0
0FF0
0F78
1E78
1E7C
3E3C
3FFC
3FFE
7FFE
781E
F80F
F00F
ENDCHAR
STARTCHAR char57354
ENCODING 57354
SWIDTH 24 0
DWIDTH 18 0
BBX 16 27 1 0
BITMAP
0008
0F98
1FF8
18F0
0000
03E0
07F0
0E70
1C38
0000
0000
03E0
07E0
07E0
07F0
0FF0
0FF0
0F78
1E78
1E7C
3E3C
3FFC
3FFE
7FFE
781E
F80F
F00F
ENDCHAR
STARTCHAR char57355
ENCODING 57355
SWIDTH 24 0
DWIDTH 18 0
BBX 16 22 1 0
BITMAP
79E0
38E0
1C70
0C70
0000
0000
03E0
07E0
07E0
07F0
0FF0
0FF0
0F78
1E78
1E7C
3E3C
3FFC
3FFE
7FFE
781E
F80F
F00F
ENDCHAR
STARTCHAR char57356
ENCODING 57356
SWIDTH 24 0
DWIDTH 18 0
BBX 16 22 1 -6
BITMAP
03E0
07E0
07E0
07F0
0FF0
0FF0
0F78
1E78
1E7C
3E3C
3FFC
3FFE
7FFE
781E
F80F
F00F
0000
0000
03C0
03C0
03C0
03C0
ENDCHAR
STARTCHAR char57357
ENCODING 57357
SWIDTH 24 0
DWIDTH 18 0
BBX 16 23 1 1
BITMAP
07E0
0660
0060
00E0
0180
0000
0000
03E0
07E0
07E0
07F0
0FF0
0FF0
0F78
1E78
1E7C
3E3C
3FFC
3FFE
7FFE
781E
F80F
F00F
ENDCHAR
STARTCHAR char57359
ENCODING 57359
SWIDTH 24 0
DWIDTH 18 0
BBX 16 29 1 -7
BITMAP
00F8
00F0
00E0
01C0
01C0
0000
03E0
07E0
07E0
07F0
0FF0
0FF0
0F78
1E78
1E7C
3E3C
3FFC
3FFE
7FFE
781E
F80F
F00F
000C
0018
0038
0038
003F
001F
0007
ENDCHAR
STARTCHAR char57360
ENCODING 57360
SWIDTH 24 0
DWIDTH 18 0
BBX 16 27 1 0
BITMAP
0078
00F0
01E0
01C0
0000
03C0
0660
0620
0660
03C0
0000
03E0
07E0
07E0
07F0
0FF0
0FF0
0F78
1E78
1E7C
3E3C
3FFC
3FFE
7FFE
781E
F80F
F00F
ENDCHAR
STARTCHAR char57361
ENCODING 57361
SWIDTH 24 0
DWIDTH 18 0
BBX 17 16 0 0
BITMAP
3FF800
3FFC00
3FFE00
3C3F00
3C0F00
3C0F00
3C0780
FFC780
FFC780
3C0780
3C0F00
3C0F00
3C3F00
3FFE00
3FFC00
3FF800
ENDCHAR
STARTCHAR char57362
ENCODING 57362
SWIDTH 24 0
DWIDTH 18 0
BBX 15 22 2 -6
BITMAP
FFE0
FFF0
FFF8
F0FC
F03C
F03C
F03E
F01E
F01E
F03E
F03C
F03C
F0FC
FFF8
FFF0
FFE0
0000
0000
0780
0780
0780
0780
ENDCHAR
STARTCHAR char57363
ENCODING 57363
SWIDTH 24 0
DWIDTH 18 0
BBX 15 21 2 -5
BITMAP
FFE0
FFF0
FFF8
F0FC
F03C
F03C
F03E
F01E
F01E
F03E
F03C
F03C
F0FC
FFF8
FFF0
FFE0
0000
0000
0000
1FE0
1FE0
ENDCHAR
STARTCHAR char57364
ENCODING 57364
SWIDTH 24 0
DWIDTH 8 0
BBX 4 16 2 0
BITMAP
F0
F0
F0
F0
F0
F0
F0
F0
F0
F0
F0
F0
F0
F0
F0
F0
ENDCHAR
STARTCHAR char57365
ENCODING 57365
SWIDTH 11 0
DWIDTH 14 0
BBX 11 16 1 0
BITMAP
01E0
01E0
01E0
01E0
01E0
01E0
01E0
01E0
01E0
F1E0
F1E0
F1E0
FBE0
7FE0
7FC0
1F80
ENDCHAR
STARTCHAR char57366
ENCODING 57366
SWIDTH 17 0
DWIDTH 16 0
BBX 13 27 2 0
BITMAP
01F0
03E0
03C0
0780
0000
0F80
1FC0
3DE0
3070
0000
0000
FFF8
FFF8
FFF8
F000
F000
F000
FFF0
FFF0
FFF0
F000
F000
F000
F000
FFF8
FFF8
FFF8
ENDCHAR
STARTCHAR char57367
ENCODING 57367
SWIDTH 17 0
DWIDTH 16 0
BBX 13 28 2 -6
BITMAP
0F80
0FC0
1DC0
38E0
0000
0000
FFF8
FFF8
FFF8
F000
F000
F000
FFF0
FFF0
FFF0
F000
F000
F000
F000
FFF8
FFF8
FFF8
0000
0000
0F00
0F00
0F00
0F00
ENDCHAR
STARTCHAR char57368
ENCODING 57368
SWIDTH 17 0
DWIDTH 16 0
BBX 13 27 2 0
BITMAP
3C00
1E00
0E00
0700
0000
0F80
1FC0
3DE0
3070
0000
0000
FFF8
FFF8
FFF8
F000
F000
F000
FFF0
FFF0
FFF0
F000
F000
F000
F000
FFF8
FFF8
FFF8
ENDCHAR
STARTCHAR char57369
ENCODING 57369
SWIDTH 17 0
DWIDTH 16 0
BBX 13 28 2 0
BITMAP
01E0
03F0
0330
0070
00C0
0000
0F80
1FC0
3DE0
3070
0000
0000
FFF8
FFF8
FFF8
F000
F000
F000
FFF0
FFF0
FFF0
F000
F000
F000
F000
FFF8
FFF8
FFF8
ENDCHAR
STARTCHAR char57370
ENCODING 57370
SWIDTH 17 0
DWIDTH 16 0
BBX 13 27 2 0
BITMAP
0830
3F30
3FE0
21E0
0000
0F80
1FC0
3DE0
3070
0000
0000
FFF8
FFF8
FFF8
F000
F000
F000
FFF0
FFF0
FFF0
F000
F000
F000
F000
FFF8
FFF8
FFF8
ENDCHAR
STARTCHAR char57371
ENCODING 57371
SWIDTH 17 0
DWIDTH 16 0
BBX 13 22 2 0
BITMAP
E780
F380
71C0
38E0
0000
0000
FFF8
FFF8
FFF8
F000
F000
F000
FFF0
FFF0
FFF0
F000
F000
F000
F000
FFF8
FFF8
FFF8
ENDCHAR
STARTCHAR char57372
ENCODING 57372
SWIDTH 17 0
DWIDTH 16 0
BBX 13 22 2 -6
BITMAP
FFF8
FFF8
FFF8
F000
F000
F000
FFF0
FFF0
FFF0
F000
F000
F000
F000
FFF8
FFF8
FFF8
0000
0000
0F00
0F00
0F00
0F00
ENDCHAR
STARTCHAR char57373
ENCODING 57373
SWIDTH 17 0
DWIDTH 16 0
BBX 13 24 2 0
BITMAP
0200
0F80
1CC0
00C0
0380
0300
0000
0000
FFF8
FFF8
FFF8
F000
F000
F000
FFF0
FFF0
FFF0
F000
F000
F000
F000
FFF8
FFF8
FFF8
ENDCHAR
STARTCHAR char57374
ENCODING 57374
SWIDTH 17 0
DWIDTH 16 0
BBX 13 29 2 -7
BITMAP
01E0
03C0
0380
0780
0700
0000
FFF8
FFF8
FFF8
F000
F000
F000
FFF0
FFF0
FFF0
F000
F000
F000
F000
FFF8
FFF8
FFF8
0070
00C0
01C0
01C0
01F8
00F8
0038
ENDCHAR
STARTCHAR char57375
ENCODING 57375
SWIDTH 17 0
DWIDTH 16 0
BBX 13 16 2 0
BITMAP
7FF8
7FF8
7FF8
0078
0078
0078
7FF8
7FF8
7FF8
0078
0078
0078
0078
FFF8
FFF8
FFF8
ENDCHAR
STARTCHAR char57376
ENCODING 57376
SWIDTH 17 0
DWIDTH 16 0
BBX 13 22 2 0
BITMAP
1E30
3FF0
37E0
6000
0000
0000
FFF8
FFF8
FFF8
F000
F000
F000
FFF0
FFF0
FFF0
F000
F000
F000
F000
FFF8
FFF8
FFF8
ENDCHAR
STARTCHAR char57377
ENCODING 57377
SWIDTH 17 0
DWIDTH 16 0
BBX 13 16 2 0
BITMAP
FFF8
FFF8
FFF8
0078
0078
0078
0078
7FF8
7FF8
7FF8
0078
0078
0078
7FF8
7FF8
7FF8
ENDCHAR
STARTCHAR char57378
ENCODING 57378
SWIDTH 27 0
DWIDTH 19 0
BBX 16 22 1 0
BITMAP
0078
00F0
00F0
00E0
01C0
0000
07F0
1FFC
3FFE
7F3F
780F
F80F
F000
F07F
F07F
F07F
F80F
7C0F
7F3F
3FFF
1FFF
07E7
ENDCHAR
STARTCHAR char57379
ENCODING 57379
SWIDTH 27 0
DWIDTH 19 0
BBX 16 22 1 0
BITMAP
0E38
0F78
07F0
03E0
03E0
0000
07F0
1FFC
3FFE
7F3F
780F
F80F
F000
F07F
F07F
F07F
F80F
7C0F
7F3F
3FFF
1FFF
07E7
ENDCHAR
STARTCHAR char57380
ENCODING 57380
SWIDTH 14 0
DWIDTH 35 0
BBX 31 16 2 0
BITMAP
1FC00FE0
3FF03FF8
7FF87FF8
F8F8787C
F03C783C
F03C7800
FF007F80
7FF07FF8
3FF81FFC
07FC01FE
F03CF01E
F03CF81E
F87C7C3C
7FF87FFC
3FF83FF8
0FE00FE0
ENDCHAR
STARTCHAR char57381
ENCODING 57381
SWIDTH 24 0
DWIDTH 18 0
BBX 14 22 2 0
BITMAP
1C30
3F30
3BF0
30E0
0000
0000
F03C
F03C
F03C
F03C
F03C
F03C
FFFC
FFFC
FFFC
F03C
F03C
F03C
F03C
F03C
F03C
F03C
ENDCHAR
STARTCHAR char57382
ENCODING 57382
SWIDTH 24 0
DWIDTH 18 0
BBX 14 22 2 -6
BITMAP
F03C
F03C
F03C
F03C
F03C
F03C
FFFC
FFFC
FFFC
F03C
F03C
F03C
F03C
F03C
F03C
F03C
0000
0000
3030
3CF0
1FE0
0FC0
ENDCHAR
STARTCHAR char57383
ENCODING 57383
SWIDTH 24 0
DWIDTH 18 0
BBX 14 21 2 0
BITMAP
3CF0
3CF0
3CF0
0000
0000
F03C
F03C
F03C
F03C
F03C
F03C
FFFC
FFFC
FFFC
F03C
F03C
F03C
F03C
F03C
F03C
F03C
ENDCHAR
STARTCHAR char57384
ENCODING 57384
SWIDTH 24 0
DWIDTH 8 0
BBX 9 22 -1 0
BITMAP
E180
7380
3F00
1E00
0000
0000
1E00
1E00
1E00
1E00
1E00
1E00
1E00
1E00
1E00
1E00
1E00
1E00
1E00
1E00
1E00
1E00
ENDCHAR
STARTCHAR char57385
ENCODING 57385
SWIDTH 24 0
DWIDTH 8 0
BBX 11 22 -3 0
BITMAP
E380
71C0
39C0
38E0
0000
0000
0780
0780
0780
0780
0780
0780
0780
0780
0780
0780
0780
0780
0780
0780
0780
0780
ENDCHAR
STARTCHAR char57386
ENCODING 57386
SWIDTH 24 0
DWIDTH 8 0
BBX 10 28 -1 0
BITMAP
07C0
0780
0F00
0E00
0000
0000
F3C0
F3C0
F3C0
0000
0000
0000
1E00
1E00
1E00
1E00
1E00
1E00
1E00
1E00
1E00
1E00
1E00
1E00
1E00
1E00
1E00
1E00
ENDCHAR
STARTCHAR char57388
ENCODING 57388
SWIDTH 24 0
DWIDTH 8 0
BBX 4 22 2 -6
BITMAP
F0
F0
F0
F0
F0
F0
F0
F0
F0
F0
F0
F0
F0
F0
F0
F0
00
00
F0
F0
F0
F0
ENDCHAR
STARTCHAR char57389
ENCODING 57389
SWIDTH 24 0
DWIDTH 8 0
BBX 6 24 1 0
BITMAP
20
FC
CC
0C
38
30
00
00
78
78
78
78
78
78
78
78
78
78
78
78
78
78
78
78
ENDCHAR
STARTCHAR char57390
ENCODING 57390
SWIDTH 24 0
DWIDTH 8 0
BBX 6 21 1 0
BITMAP
FC
FC
00
00
00
78
78
78
78
78
78
78
78
78
78
78
78
78
78
78
78
ENDCHAR
STARTCHAR char57391
ENCODING 57391
SWIDTH 24 0
DWIDTH 8 0
BBX 8 29 0 -7
BITMAP
0F
1E
1C
3C
38
00
3C
3C
3C
3C
3C
3C
3C
3C
3C
3C
3C
3C
3C
3C
3C
3C
38
70
60
E0
7E
7E
1E
ENDCHAR
STARTCHAR char57392
ENCODING 57392
SWIDTH 11 0
DWIDTH 14 0
BBX 13 22 1 0
BITMAP
0078
0078
00F0
00E0
01C0
0000
01E0
01E0
01E0
01E0
01E0
01E0
01E0
01E0
01E0
F1E0
F1E0
F1E0
FBE0
7FE0
7FC0
1F80
ENDCHAR
STARTCHAR char57393
ENCODING 57393
SWIDTH 14 0
DWIDTH 15 0
BBX 15 22 -1 0
BITMAP
7CC0
7FC0
EFC0
C000
0000
0000
1E00
1E00
1E00
1E00
1E00
1E00
1E00
1E00
1E00
1E00
1E00
1E00
1E00
1FFE
1FFE
1FFE
ENDCHAR
STARTCHAR char57394
ENCODING 57394
SWIDTH 24 0
DWIDTH 18 0
BBX 15 16 1 0
BITMAP
1E00
1E00
1E00
1E10
1E30
1EF0
1FF0
1FE0
3F80
FE00
FE00
FE00
9E00
1FFE
1FFE
1FFE
ENDCHAR
STARTCHAR char57395
ENCODING 57395
SWIDTH 27 0
DWIDTH 19 0
BBX 17 22 1 0
BITMAP
0E3800
0E7000
07F000
03E000
03E000
000000
07F000
1FFC00
3FFE00
7F7E00
781F00
F80F00
F00780
F00780
F00780
F00780
F80F00
781F00
7E7F00
3FFE00
1FFC00
07F000
ENDCHAR
STARTCHAR char57396
ENCODING 57396
SWIDTH 27 0
DWIDTH 19 0
BBX 17 27 1 0
BITMAP
007800
00F000
00E000
01C000
000000
03E000
07F000
0F7800
1C1C00
000000
000000
07F000
1FFC00
3FFE00
7F7E00
781F00
F80F00
F00780
F00780
F00780
F00780
F80F00
781F00
7E7F00
3FFE00
1FFC00
07F000
ENDCHAR
STARTCHAR char57397
ENCODING 57397
SWIDTH 27 0
DWIDTH 19 0
BBX 17 27 1 -5
BITMAP
03E000
03E000
07F000
0E7000
0C3800
000000
07F000
1FFC00
3FFE00
7F7E00
781F00
F80F00
F00780
F00780
F00780
F00780
F80F00
781F00
7E7F00
3FFE00
1FFC00
07F000
000000
03C000
03C000
03C000
03C000
ENDCHAR
STARTCHAR char57398
ENCODING 57398
SWIDTH 27 0
DWIDTH 19 0
BBX 17 27 1 0
BITMAP
1F0000
0F8000
078000
03C000
000000
03E000
07F000
0F7800
1C1C00
000000
000000
07F000
1FFC00
3FFE00
7F7E00
781F00
F80F00
F00780
F00780
F00780
F00780
F80F00
781F00
7E7F00
3FFE00
1FFC00
07F000
ENDCHAR
STARTCHAR char57399
ENCODING 57399
SWIDTH 27 0
DWIDTH 19 0
BBX 17 28 1 0
BITMAP
007800
00DC00
018C00
001800
003000
000000
03E000
07F000
0F7800
1C1C00
000000
000000
07F000
1FFC00
3FFE00
7F7E00
781F00
F80F00
F00780
F00780
F00780
F00780
F80F00
781F00
7E7F00
3FFE00
1FFC00
07F000
ENDCHAR
STARTCHAR char57400
ENCODING 57400
SWIDTH 27 0
DWIDTH 19 0
BBX 17 27 1 0
BITMAP
000C00
0F9C00
0FF800
187800
000000
03E000
07F000
0F7800
1C1C00
000000
000000
07F000
1FFC00
3FFE00
7F7E00
781F00
F80F00
F00780
F00780
F00780
F00780
F80F00
781F00
7E7F00
3FFE00
1FFC00
07F000
ENDCHAR
STARTCHAR char57401
ENCODING 57401
SWIDTH 27 0
DWIDTH 19 0
BBX 17 22 1 0
BITMAP
79E000
38E000
1CF000
1C7000
0E3000
000000
07F000
1FFC00
3FFE00
7F7E00
781F00
F80F00
F00780
F00780
F00780
F00780
F80F00
781F00
7E7F00
3FFE00
1FFC00
07F000
ENDCHAR
STARTCHAR char57402
ENCODING 57402
SWIDTH 27 0
DWIDTH 19 0
BBX 17 22 1 -6
BITMAP
07F000
1FFC00
3FFE00
7F7E00
781F00
F80F00
F00780
F00780
F00780
F00780
F80F00
781F00
7E7F00
3FFE00
1FFC00
07F000
000000
000000
03C000
03C000
03C000
03C000
ENDCHAR
STARTCHAR char57403
ENCODING 57403
SWIDTH 11 0
DWIDTH 24 0
BBX 22 16 1 0
BITMAP
0FFFFC
1FFFFC
3FFFFC
7EFC00
F83C00
F03C00
F03FF8
F03FF8
F03FF8
F03C00
F03C00
F83C00
7E7C00
7FFFFC
1FFFFC
0FBFFC
ENDCHAR
STARTCHAR char57404
ENCODING 57404
SWIDTH 27 0
DWIDTH 19 0
BBX 17 23 1 0
BITMAP
03C000
07E000
063000
006000
00C000
018000
000000
07F000
1FFC00
3FFE00
7F7E00
781F00
F80F00
F00780
F00780
F00780
F00780
F80F00
781F00
7E7F00
3FFE00
1FFC00
07F000
ENDCHAR
STARTCHAR char57405
ENCODING 57405
SWIDTH 30 0
DWIDTH 20 0
BBX 18 20 2 0
BITMAP
0003C0
0003C0
0003C0
0003C0
07E0C0
1FF9C0
3FFD80
7E7F80
F81F00
F00F00
F00F00
F00F00
F00F00
F00F00
F00F00
F81F00
7E7E00
3FFC00
1FF800
07E000
ENDCHAR
STARTCHAR char57406
ENCODING 57406
SWIDTH 30 0
DWIDTH 20 0
BBX 18 22 2 0
BITMAP
00F800
00F000
01E3C0
01C3C0
0383C0
0003C0
07E0C0
1FF9C0
3FFD80
7E7F80
F81F00
F00F00
F00F00
F00F00
F00F00
F00F00
F00F00
F81F00
7E7E00
3FFC00
1FF800
07E000
ENDCHAR
STARTCHAR char57407
ENCODING 57407
SWIDTH 30 0
DWIDTH 20 0
BBX 18 25 2 -5
BITMAP
0003C0
0003C0
0003C0
0003C0
07E0C0
1FF9C0
3FFD80
7E7F80
F81F00
F00F00
F00F00
F00F00
F00F00
F00F00
F00F00
F81F00
7E7E00
3FFC00
1FF800
07E000
000000
03C000
03C000
03C000
03C000
ENDCHAR
STARTCHAR char57408
ENCODING 57408
SWIDTH 30 0
DWIDTH 20 0
BBX 18 22 2 0
BITMAP
1F0000
0F0000
0703C0
0383C0
0383C0
0003C0
07E0C0
1FF9C0
3FFD80
7E7F80
F81F00
F00F00
F00F00
F00F00
F00F00
F00F00
F00F00
F81F00
7E7E00
3FFC00
1FF800
07E000
ENDCHAR
STARTCHAR char57409
ENCODING 57409
SWIDTH 30 0
DWIDTH 20 0
BBX 18 23 2 0
BITMAP
03C000
07E000
066000
00E3C0
01C3C0
0183C0
0003C0
07E0C0
1FF9C0
3FFD80
7E7F80
F81F00
F00F00
F00F00
F00F00
F00F00
F00F00
F00F00
F81F00
7E7E00
3FFC00
1FF800
07E000
ENDCHAR
STARTCHAR char57410
ENCODING 57410
SWIDTH 30 0
DWIDTH 20 0
BBX 18 22 2 0
BITMAP
0F1800
1FF800
19FBC0
1803C0
0003C0
0003C0
07E0C0
1FF9C0
3FFD80
7E7F80
F81F00
F00F00
F00F00
F00F00
F00F00
F00F00
F00F00
F81F00
7E7E00
3FFC00
1FF800
07E000
ENDCHAR
STARTCHAR char57411
ENCODING 57411
SWIDTH 27 0
DWIDTH 19 0
BBX 17 23 1 -7
BITMAP
07F000
1FFC00
3FFE00
7F7E00
781F00
F80F00
F00780
F00780
F00780
F00780
F80F00
781F00
7E7F00
3FFE00
1FFC00
07F000
00C000
018000
038000
038000
03F000
01F000
007000
ENDCHAR
STARTCHAR char57412
ENCODING 57412
SWIDTH 27 0
DWIDTH 19 0
BBX 17 29 1 -7
BITMAP
007800
00F000
00F000
01E000
01C000
000000
07F000
1FFC00
3FFE00
7F7E00
781F00
F80F00
F00780
F00780
F00780
F00780
F80F00
781F00
7E7F00
3FFE00
1FFC00
07F000
00C000
018000
038000
038000
03F000
01F000
007000
ENDCHAR
STARTCHAR char57413
ENCODING 57413
SWIDTH 24 0
DWIDTH 18 0
BBX 15 22 2 0
BITMAP
F380
71C0
39C0
38E0
0000
0000
FFF0
FFF8
FFFC
F07C
F03C
F03C
F07C
FFF8
FFF0
FFF8
F07C
F03C
F03C
F03C
F03C
F03E
ENDCHAR
STARTCHAR char57414
ENCODING 57414
SWIDTH 24 0
DWIDTH 18 0
BBX 15 22 2 0
BITMAP
0780
0780
0780
0780
0000
0000
FFF0
FFF8
FFFC
F07C
F03C
F03C
F07C
FFF8
FFF0
FFF8
F07C
F03C
F03C
F03C
F03C
F03E
ENDCHAR
STARTCHAR char57415
ENCODING 57415
SWIDTH 17 0
DWIDTH 16 0
BBX 14 22 1 0
BITMAP
3870
1CE0
0FC0
0FC0
0780
0000
0FC0
3FF0
7FF8
F878
F03C
F03C
FF00
7FF0
3FF8
03FC
F03C
F03C
F87C
7FFC
3FF8
0FE0
ENDCHAR
STARTCHAR char57416
ENCODING 57416
SWIDTH 17 0
DWIDTH 16 0
BBX 14 22 1 -6
BITMAP
0FC0
3FF0
7FF8
F878
F03C
F03C
FF00
7FF0
3FF8
03FC
F03C
F03C
F87C
7FFC
3FF8
0FE0
0000
0000
0780
0780
0780
0780
ENDCHAR
STARTCHAR char57417
ENCODING 57417
SWIDTH 14 0
DWIDTH 15 0
BBX 14 22 0 0
BITMAP
1F30
1FF0
3BF0
3000
0000
0000
FFFC
FFFC
FFFC
0780
0780
0780
0780
0780
0780
0780
0780
0780
0780
0780
0780
0780
ENDCHAR
STARTCHAR char57418
ENCODING 57418
SWIDTH 14 0
DWIDTH 15 0
BBX 14 23 0 -7
BITMAP
FFFC
FFFC
FFFC
0780
0780
0780
0780
0780
0780
0780
0780
0780
0780
0780
0780
0780
0300
0600
07C0
00E0
10E0
1FC0
0780
ENDCHAR
STARTCHAR char57419
ENCODING 57419
SWIDTH 14 0
DWIDTH 15 0
BBX 14 22 0 0
BITMAP
1CF0
1CF0
1CF0
0000
0000
0000
FFFC
FFFC
FFFC
0780
0780
0780
0780
0780
0780
0780
0780
0780
0780
0780
0780
0780
ENDCHAR
STARTCHAR char57420
ENCODING 57420
SWIDTH 14 0
DWIDTH 15 0
BBX 14 22 0 -6
BITMAP
FFFC
FFFC
FFFC
0780
0780
0780
0780
0780
0780
0780
0780
0780
0780
0780
0780
0780
0000
0000
0780
0780
0780
0780
ENDCHAR
STARTCHAR char57421
ENCODING 57421
SWIDTH 14 0
DWIDTH 15 0
BBX 14 21 0 -5
BITMAP
FFFC
FFFC
FFFC
0780
0780
0780
0780
0780
0780
0780
0780
0780
0780
0780
0780
0780
0000
0000
0000
1FF0
1FF0
ENDCHAR
STARTCHAR char57422
ENCODING 57422
SWIDTH 24 0
DWIDTH 18 0
BBX 14 21 2 -5
BITMAP
F03C
F03C
F03C
F03C
F03C
F03C
F03C
F03C
F03C
F03C
F03C
F83C
7CFC
7FF8
3FF0
0FC0
0000
0000
0FC0
3FF0
3C70
ENDCHAR
STARTCHAR char57424
ENCODING 57424
SWIDTH 24 0
DWIDTH 18 0
BBX 14 22 2 0
BITMAP
3870
1CE0
0FC0
0780
0000
0000
F03C
F03C
F03C
F03C
F03C
F03C
F03C
F03C
F03C
F03C
F03C
F83C
7CFC
7FF8
3FF0
0FC0
ENDCHAR
STARTCHAR char57425
ENCODING 57425
SWIDTH 24 0
DWIDTH 18 0
BBX 14 22 2 0
BITMAP
F380
71C0
39C0
38E0
0000
0000
F03C
F03C
F03C
F03C
F03C
F03C
F03C
F03C
F03C
F03C
F03C
F83C
7CFC
7FF8
3FF0
0FC0
ENDCHAR
STARTCHAR char57426
ENCODING 57426
SWIDTH 24 0
DWIDTH 18 0
BBX 14 28 2 0
BITMAP
01F0
01E0
03C0
0380
0000
0000
3CF0
3CF0
3CF0
0000
0000
0000
F03C
F03C
F03C
F03C
F03C
F03C
F03C
F03C
F03C
F03C
F03C
F83C
7CFC
7FF8
3FF0
0FC0
ENDCHAR
STARTCHAR char57427
ENCODING 57427
SWIDTH 24 0
DWIDTH 18 0
BBX 14 28 2 0
BITMAP
3870
1CE0
0FC0
0780
0000
0000
3CF0
3CF0
3CF0
0000
0000
0000
F03C
F03C
F03C
F03C
F03C
F03C
F03C
F03C
F03C
F03C
F03C
F83C
7CFC
7FF8
3FF0
0FC0
ENDCHAR
STARTCHAR char57428
ENCODING 57428
SWIDTH 24 0
DWIDTH 18 0
BBX 14 28 2 0
BITMAP
3E00
1E00
0F00
0700
0000
0000
3CF0
3CF0
3CF0
0000
0000
0000
F03C
F03C
F03C
F03C
F03C
F03C
F03C
F03C
F03C
F03C
F03C
F83C
7CFC
7FF8
3FF0
0FC0
ENDCHAR
STARTCHAR char57429
ENCODING 57429
SWIDTH 24 0
DWIDTH 18 0
BBX 14 22 2 -6
BITMAP
F03C
F03C
F03C
F03C
F03C
F03C
F03C
F03C
F03C
F03C
F03C
F83C
7CFC
7FF8
3FF0
0FC0
0000
0000
0780
0780
0780
0780
ENDCHAR
STARTCHAR char57430
ENCODING 57430
SWIDTH 24 0
DWIDTH 18 0
BBX 14 24 2 0
BITMAP
0100
0FC0
0CC0
00C0
0180
0300
0000
0000
F03C
F03C
F03C
F03C
F03C
F03C
F03C
F03C
F03C
F03C
F03C
F83C
7CFC
7FF8
3FF0
0FC0
ENDCHAR
STARTCHAR char57431
ENCODING 57431
SWIDTH 2 0
DWIDTH 21 0
BBX 19 20 3 0
BITMAP
0001E0
0001E0
0001E0
0001E0
F03CE0
F03CC0
F03CC0
F03D80
F03F80
F03E00
F03C00
F03C00
F03C00
F03C00
F03C00
F07C00
FCF800
7FF800
3FF000
0FC000
ENDCHAR
STARTCHAR char57432
ENCODING 57432
SWIDTH 2 0
DWIDTH 21 0
BBX 19 23 3 0
BITMAP
01F000
01E000
01C000
03C1E0
0381E0
0001E0
0001E0
F03CE0
F03CC0
F03CC0
F03D80
F03F80
F03E00
F03C00
F03C00
F03C00
F03C00
F03C00
F07C00
FCF800
7FF800
3FF000
0FC000
ENDCHAR
STARTCHAR char57433
ENCODING 57433
SWIDTH 2 0
DWIDTH 21 0
BBX 19 25 3 -5
BITMAP
0001E0
0001E0
0001E0
0001E0
F03CE0
F03CC0
F03CC0
F03D80
F03F80
F03E00
F03C00
F03C00
F03C00
F03C00
F03C00
F07C00
FCF800
7FF800
3FF000
0FC000
000000
078000
078000
078000
078000
ENDCHAR
STARTCHAR char57434
ENCODING 57434
SWIDTH 2 0
DWIDTH 21 0
BBX 19 22 3 0
BITMAP
3E0000
1E0000
0E01E0
0701E0
0701E0
0001E0
F03CE0
F03CC0
F03CC0
F03D80
F03F80
F03E00
F03C00
F03C00
F03C00
F03C00
F03C00
F07C00
FCF800
7FF800
3FF000
0FC000
ENDCHAR
STARTCHAR char57435
ENCODING 57435
SWIDTH 2 0
DWIDTH 21 0
BBX 19 24 3 0
BITMAP
020000
0FC000
0CC000
0CC000
01C1E0
0301E0
0001E0
0001E0
F03CE0
F03CC0
F03CC0
F03D80
F03F80
F03E00
F03C00
F03C00
F03C00
F03C00
F03C00
F07C00
FCF800
7FF800
3FF000
0FC000
ENDCHAR
STARTCHAR char57436
ENCODING 57436
SWIDTH 2 0
DWIDTH 21 0
BBX 19 22 3 0
BITMAP
1E3000
3FF000
33F1E0
3001E0
0001E0
0001E0
F03CC0
F03CC0
F03DC0
F03F80
F03F00
F03E00
F03C00
F03C00
F03C00
F03C00
F03C00
F07C00
FCF800
7FF800
3FF000
0FC000
ENDCHAR
STARTCHAR char57437
ENCODING 57437
SWIDTH 21 0
DWIDTH 17 0
BBX 15 22 1 -6
BITMAP
F83E
783C
7C7C
3C78
3EF8
1EF0
0FF0
0FE0
07E0
07C0
03C0
03C0
03C0
03C0
03C0
03C0
0000
0000
03C0
03C0
03C0
03C0
ENDCHAR
STARTCHAR char57438
ENCODING 57438
SWIDTH 21 0
DWIDTH 17 0
BBX 15 24 1 0
BITMAP
0100
07C0
0E60
0060
01C0
0180
0000
0000
F83E
783C
7C7C
3C78
3EF8
1EF0
0FF0
0FE0
07E0
07C0
03C0
03C0
03C0
03C0
03C0
03C0
ENDCHAR
STARTCHAR char57439
ENCODING 57439
SWIDTH 21 0
DWIDTH 17 0
BBX 15 22 1 0
BITMAP
0F18
1FF8
1BF0
3000
0000
0000
F83E
783C
7C7C
3C78
3EF8
1EF0
0FF0
0FE0
07E0
07C0
03C0
03C0
03C0
03C0
03C0
03C0
ENDCHAR
STARTCHAR char57440
ENCODING 57440
SWIDTH 14 0
DWIDTH 15 0
BBX 13 22 1 0
BITMAP
38E0
3DC0
1F80
0F00
0000
0000
FFF8
FFF8
FFF8
00F8
01F0
03E0
07C0
0F80
1F00
1E00
3E00
7C00
F800
FFF8
FFF8
FFF8
ENDCHAR
STARTCHAR char57441
ENCODING 57441
SWIDTH 14 0
DWIDTH 15 0
BBX 13 22 1 -6
BITMAP
FFF8
FFF8
FFF8
00F8
01F0
03E0
07C0
0F80
1F00
1E00
3E00
7C00
F800
FFF8
FFF8
FFF8
0000
0000
0F00
0F00
0F00
0F00
ENDCHAR
STARTCHAR char59395
ENCODING 59395
SWIDTH 17 0
DWIDTH 26 0
BBX 26 22 0 0
BITMAP
0F8F0000
1F8F0000
1F8F0000
1E0F0000
1E0F0000
1E0F0000
FF8F0780
FF8F0F00
FF8F1E00
1E0F3E00
1E0F7C00
1E0FF800
1E0FF800
1E0FF800
1E0FFC00
1E0FBC00
1E0F3E00
1E0F1E00
1E0F1F00
1E0F0F80
1E0F0F80
1E0F07C0
ENDCHAR
STARTCHAR char59904
ENCODING 59904
SWIDTH 30 0
DWIDTH 10 0
BBX 6 4 4 18
BITMAP
7C
78
F0
E0
ENDCHAR
STARTCHAR char59905
ENCODING 59905
SWIDTH 0 0
DWIDTH 0 0
BBX 6 4 -9 23
BITMAP
7C
78
F0
E0
ENDCHAR
STARTCHAR char59906
ENCODING 59906
SWIDTH 30 0
DWIDTH 10 0
BBX 10 3 0 18
BITMAP
C0C0
FFC0
7F80
ENDCHAR
STARTCHAR char59907
ENCODING 59907
SWIDTH 30 0
DWIDTH 10 0
BBX 10 8 0 18
BITMAP
07C0
0780
0F00
0E00
0000
C0C0
FFC0
7F80
ENDCHAR
STARTCHAR char59908
ENCODING 59908
SWIDTH 30 0
DWIDTH 10 0
BBX 10 8 0 18
BITMAP
07C0
0780
0F00
0E00
0000
C0C0
FFC0
7F80
ENDCHAR
STARTCHAR char59909
ENCODING 59909
SWIDTH 30 0
DWIDTH 10 0
BBX 10 4 0 -6
BITMAP
C0C0
F3C0
FF80
3F00
ENDCHAR
STARTCHAR char59910
ENCODING 59910
SWIDTH 30 0
DWIDTH 10 0
BBX 10 4 0 -6
BITMAP
3F00
FF80
F7C0
C0C0
ENDCHAR
STARTCHAR char59911
ENCODING 59911
SWIDTH 0 0
DWIDTH 0 0
BBX 10 4 -13 23
BITMAP
C0C0
F3C0
FF80
3F00
ENDCHAR
STARTCHAR char59912
ENCODING 59912
SWIDTH 30 0
DWIDTH 10 0
BBX 10 8 0 18
BITMAP
F000
7800
3C00
1C00
0000
C0C0
FFC0
7F80
ENDCHAR
STARTCHAR char59913
ENCODING 59913
SWIDTH 30 0
DWIDTH 10 0
BBX 10 8 0 18
BITMAP
F000
7800
3C00
1C00
0000
C0C0
FFC0
7F80
ENDCHAR
STARTCHAR char59914
ENCODING 59914
SWIDTH 30 0
DWIDTH 10 0
BBX 10 8 0 18
BITMAP
1E00
3700
3300
0700
0C00
C0C0
FFC0
7F80
ENDCHAR
STARTCHAR char59915
ENCODING 59915
SWIDTH 30 0
DWIDTH 10 0
BBX 10 8 0 18
BITMAP
1E00
3700
3300
0700
0C00
C0C0
FFC0
7F80
ENDCHAR
STARTCHAR char59916
ENCODING 59916
SWIDTH 30 0
DWIDTH 10 0
BBX 10 3 0 18
BITMAP
7F80
FFC0
C0C0
ENDCHAR
STARTCHAR char59917
ENCODING 59917
SWIDTH 30 0
DWIDTH 10 0
BBX 9 4 0 18
BITMAP
1E00
7F00
FF80
E180
ENDCHAR
STARTCHAR char59918
ENCODING 59918
SWIDTH 0 0
DWIDTH 0 0
BBX 10 4 -13 23
BITMAP
3F00
FF80
F7C0
C0C0
ENDCHAR
STARTCHAR char59919
ENCODING 59919
SWIDTH 30 0
DWIDTH 10 0
BBX 10 8 0 18
BITMAP
70C0
FFC0
FFC0
C380
0000
C0C0
FFC0
7F80
ENDCHAR
STARTCHAR char59920
ENCODING 59920
SWIDTH 30 0
DWIDTH 10 0
BBX 10 8 0 18
BITMAP
70C0
FFC0
FFC0
C380
0000
C0C0
FFC0
7F80
ENDCHAR
STARTCHAR char59921
ENCODING 59921
SWIDTH 30 0
DWIDTH 10 0
BBX 10 4 0 18
BITMAP
E1C0
7380
3F00
3E00
ENDCHAR
STARTCHAR char59924
ENCODING 59924
SWIDTH 0 0
DWIDTH 0 0
BBX 10 4 -13 23
BITMAP
E1C0
7380
3F00
3E00
ENDCHAR
STARTCHAR char59925
ENCODING 59925
SWIDTH 30 0
DWIDTH 10 0
BBX 10 4 0 18
BITMAP
1E00
3F00
7380
E1C0
ENDCHAR
STARTCHAR char59926
ENCODING 59926
SWIDTH 30 0
DWIDTH 10 0
BBX 10 9 0 18
BITMAP
07C0
0780
0F00
0E00
0000
1E00
3F00
7380
E1C0
ENDCHAR
STARTCHAR char59927
ENCODING 59927
SWIDTH 30 0
DWIDTH 10 0
BBX 10 9 0 18
BITMAP
07C0
0780
0F00
0E00
0000
1E00
3F00
7380
E1C0
ENDCHAR
STARTCHAR char59928
ENCODING 59928
SWIDTH 0 0
DWIDTH 0 0
BBX 10 4 -13 23
BITMAP
1E00
3F00
7380
E1C0
ENDCHAR
STARTCHAR char59929
ENCODING 59929
SWIDTH 30 0
DWIDTH 10 0
BBX 10 9 0 18
BITMAP
F000
7800
3C00
1C00
0000
1E00
3F00
7380
E1C0
ENDCHAR
STARTCHAR char59930
ENCODING 59930
SWIDTH 30 0
DWIDTH 10 0
BBX 10 9 0 18
BITMAP
F000
7800
3C00
1C00
0000
1E00
3F00
7380
E1C0
ENDCHAR
STARTCHAR char59931
ENCODING 59931
SWIDTH 30 0
DWIDTH 10 0
BBX 10 10 0 18
BITMAP
0780
0FC0
0CC0
01C0
0300
0000
1E00
3F00
7380
E1C0
ENDCHAR
STARTCHAR char59932
ENCODING 59932
SWIDTH 30 0
DWIDTH 10 0
BBX 10 10 0 18
BITMAP
0780
0FC0
0CC0
01C0
0300
0000
1E00
3F00
7380
E1C0
ENDCHAR
STARTCHAR char59933
ENCODING 59933
SWIDTH 30 0
DWIDTH 10 0
BBX 10 9 0 18
BITMAP
20C0
FCC0
FFC0
C780
0000
1E00
3F00
7380
E1C0
ENDCHAR
STARTCHAR char59934
ENCODING 59934
SWIDTH 30 0
DWIDTH 10 0
BBX 10 9 0 18
BITMAP
20C0
FCC0
FFC0
C780
0000
1E00
3F00
7380
E1C0
ENDCHAR
STARTCHAR char59935
ENCODING 59935
SWIDTH 30 0
DWIDTH 10 0
BBX 4 7 3 -9
BITMAP
F0
F0
F0
30
20
E0
C0
ENDCHAR
STARTCHAR char59937
ENCODING 59937
SWIDTH 30 0
DWIDTH 10 0
BBX 10 3 0 18
BITMAP
C0C0
FFC0
7F80
ENDCHAR
STARTCHAR char59938
ENCODING 59938
SWIDTH 30 0
DWIDTH 10 0
BBX 10 5 0 17
BITMAP
C1C0
E180
7F80
3F00
0800
ENDCHAR
STARTCHAR char59939
ENCODING 59939
SWIDTH 30 0
DWIDTH 10 0
BBX 10 3 0 18
BITMAP
7F80
FFC0
C0C0
ENDCHAR
STARTCHAR char59940
ENCODING 59940
SWIDTH 30 0
DWIDTH 10 0
BBX 9 4 0 18
BITMAP
1E00
7F00
FF80
E180
ENDCHAR
STARTCHAR char59941
ENCODING 59941
SWIDTH 30 0
DWIDTH 10 0
BBX 11 4 -2 18
BITMAP
E380
73C0
71C0
38E0
ENDCHAR
STARTCHAR char59942
ENCODING 59942
SWIDTH 30 0
DWIDTH 10 0
BBX 11 4 -2 18
BITMAP
E380
73C0
71C0
38E0
ENDCHAR
STARTCHAR char59943
ENCODING 59943
SWIDTH 0 0
DWIDTH 0 0
BBX 11 5 -15 23
BITMAP
E380
F3C0
71C0
39C0
38E0
ENDCHAR
STARTCHAR char59944
ENCODING 59944
SWIDTH 30 0
DWIDTH 10 0
BBX 10 3 0 18
BITMAP
F3C0
F3C0
F3C0
ENDCHAR
STARTCHAR char59945
ENCODING 59945
SWIDTH 30 0
DWIDTH 10 0
BBX 10 9 0 18
BITMAP
07C0
0780
0F00
0E00
0000
0000
F3C0
F3C0
F3C0
ENDCHAR
STARTCHAR char59946
ENCODING 59946
SWIDTH 30 0
DWIDTH 10 0
BBX 10 9 0 19
BITMAP
07C0
0780
0F00
0E00
0000
0000
F3C0
F3C0
F3C0
ENDCHAR
STARTCHAR char59947
ENCODING 59947
SWIDTH 30 0
DWIDTH 10 0
BBX 10 9 0 18
BITMAP
E1C0
7380
3F00
3E00
0000
0000
F3C0
F3C0
F3C0
ENDCHAR
STARTCHAR char59948
ENCODING 59948
SWIDTH 30 0
DWIDTH 10 0
BBX 10 9 0 19
BITMAP
E1C0
7380
3F00
3E00
0000
0000
F3C0
F3C0
F3C0
ENDCHAR
STARTCHAR char59949
ENCODING 59949
SWIDTH 0 0
DWIDTH 0 0
BBX 10 3 -13 24
BITMAP
F3C0
F3C0
F3C0
ENDCHAR
STARTCHAR char59950
ENCODING 59950
SWIDTH 30 0
DWIDTH 10 0
BBX 10 9 0 18
BITMAP
F000
7800
3C00
1C00
0000
0000
F3C0
F3C0
F3C0
ENDCHAR
STARTCHAR char59951
ENCODING 59951
SWIDTH 30 0
DWIDTH 10 0
BBX 10 9 0 19
BITMAP
F800
7800
3C00
1C00
0000
0000
F3C0
F3C0
F3C0
ENDCHAR
STARTCHAR char59952
ENCODING 59952
SWIDTH 30 0
DWIDTH 10 0
BBX 4 4 3 18
BITMAP
F0
F0
F0
F0
ENDCHAR
STARTCHAR char59953
ENCODING 59953
SWIDTH 0 0
DWIDTH 0 0
BBX 4 4 -10 23
BITMAP
F0
F0
F0
F0
ENDCHAR
STARTCHAR char59954
ENCODING 59954
SWIDTH 30 0
DWIDTH 10 0
BBX 6 4 0 18
BITMAP
F0
78
3C
1C
ENDCHAR
STARTCHAR char59955
ENCODING 59955
SWIDTH 0 0
DWIDTH 0 0
BBX 6 4 -13 23
BITMAP
F0
78
3C
1C
ENDCHAR
STARTCHAR char59956
ENCODING 59956
SWIDTH 21 0
DWIDTH 7 0
BBX 7 6 0 17
BITMAP
78
FC
C6
0C
18
30
ENDCHAR
STARTCHAR char59957
ENCODING 59957
SWIDTH 21 0
DWIDTH 7 0
BBX 7 7 0 17
BITMAP
10
7C
CE
CE
0C
18
30
ENDCHAR
STARTCHAR char59958
ENCODING 59958
SWIDTH 0 0
DWIDTH 0 0
BBX 6 5 -11 23
BITMAP
FC
CC
0C
38
30
ENDCHAR
STARTCHAR char59959
ENCODING 59959
SWIDTH 30 0
DWIDTH 10 0
BBX 5 10 5 10
BITMAP
78
78
78
78
18
38
30
70
E0
C0
ENDCHAR
STARTCHAR char59960
ENCODING 59960
SWIDTH 30 0
DWIDTH 10 0
BBX 11 5 1 17
BITMAP
39E0
71C0
73C0
E380
C300
ENDCHAR
STARTCHAR char59961
ENCODING 59961
SWIDTH 0 0
DWIDTH 0 0
BBX 11 5 -12 23
BITMAP
38E0
79E0
71C0
E380
E300
ENDCHAR
STARTCHAR char59962
ENCODING 59962
SWIDTH 30 0
DWIDTH 10 0
BBX 9 2 0 -5
BITMAP
FF80
FF80
ENDCHAR
STARTCHAR char59963
ENCODING 59963
SWIDTH 30 0
DWIDTH 10 0
BBX 9 2 0 19
BITMAP
FF80
FF80
ENDCHAR
STARTCHAR char59964
ENCODING 59964
SWIDTH 30 0
DWIDTH 10 0
BBX 6 2 2 19
BITMAP
FC
FC
ENDCHAR
STARTCHAR char59965
ENCODING 59965
SWIDTH 30 0
DWIDTH 10 0
BBX 6 2 2 19
BITMAP
FC
FC
ENDCHAR
STARTCHAR char59966
ENCODING 59966
SWIDTH 30 0
DWIDTH 10 0
BBX 9 2 0 -5
BITMAP
FF80
FF80
ENDCHAR
STARTCHAR char59967
ENCODING 59967
SWIDTH 0 0
DWIDTH 0 0
BBX 9 2 -13 24
BITMAP
FF80
FF80
ENDCHAR
STARTCHAR char59968
ENCODING 59968
SWIDTH 30 0
DWIDTH 10 0
BBX 6 6 2 17
BITMAP
30
78
CC
CC
F8
78
ENDCHAR
STARTCHAR char59969
ENCODING 59969
SWIDTH 30 0
DWIDTH 10 0
BBX 8 10 2 17
BITMAP
1F
1E
3C
38
00
78
CC
CC
CC
78
ENDCHAR
STARTCHAR char59970
ENCODING 59970
SWIDTH 30 0
DWIDTH 10 0
BBX 8 10 2 17
BITMAP
1F
1E
3C
38
00
78
CC
CC
CC
78
ENDCHAR
STARTCHAR char59971
ENCODING 59971
SWIDTH 0 0
DWIDTH 0 0
BBX 6 6 -11 22
BITMAP
78
FC
8C
CC
78
20
ENDCHAR
STARTCHAR char59972
ENCODING 59972
SWIDTH 30 0
DWIDTH 10 0
BBX 10 4 0 18
BITMAP
70C0
FCC0
CFC0
C380
ENDCHAR
STARTCHAR char59973
ENCODING 59973
SWIDTH 30 0
DWIDTH 10 0
BBX 10 4 0 -6
BITMAP
70C0
FCC0
CFC0
C380
ENDCHAR
STARTCHAR char59974
ENCODING 59974
SWIDTH 0 0
DWIDTH 0 0
BBX 10 4 -13 23
BITMAP
70C0
FCC0
CFC0
C380
ENDCHAR
STARTCHAR char60162
ENCODING 60162
SWIDTH 30 0
DWIDTH 10 0
BBX 7 5 3 17
BITMAP
3E
3C
78
70
E0
ENDCHAR
STARTCHAR char60163
ENCODING 60163
SWIDTH 2 0
DWIDTH 21 0
BBX 20 35 1 -7
BITMAP
003E00
003C00
007800
007000
000000
000000
01F000
01F800
03F800
03F800
03FC00
07FC00
07BC00
07BE00
0F9E00
0F1E00
0F1F00
1F0F00
1E0F00
1E0F80
3FFF80
3FFF80
3FFFC0
7FFFC0
7803C0
7803E0
F801E0
F001E0
0001C0
000380
000300
000700
0003F0
0003F0
0000F0
ENDCHAR
STARTCHAR char60164
ENCODING 60164
SWIDTH 17 0
DWIDTH 16 0
BBX 14 29 1 -7
BITMAP
01F0
01E0
03C0
0380
0700
0000
0FC0
3FF0
7FF8
7CF8
F078
0078
01F8
3FF8
7FF8
F878
F078
F078
F9F8
FFF8
7FFC
3E3C
0070
0060
00E0
00E0
00FC
007C
001C
ENDCHAR
STARTCHAR char60165
ENCODING 60165
SWIDTH 26 0
DWIDTH 29 0
BBX 27 26 1 -6
BITMAP
001FC000
00FFF800
03FFFE00
07E07F00
0F800F80
1E000780
3C1F03C0
383FF9C0
787FF1E0
70F1F0E0
70E0F0E0
F1C0F0E0
E1C0E0E0
E1C0E1E0
F1C1E1C0
F1C1E3C0
F1E3C780
70FFFF80
78FFFE00
3C3CFC00
3E000000
1F000000
0FC07000
07FFF000
01FFF000
003FC000
ENDCHAR
STARTCHAR char60168
ENCODING 60168
SWIDTH 5 0
DWIDTH 22 0
BBX 20 21 1 0
BITMAP
00F000
07FE00
1E0700
380180
3000C0
600060
C00060
C00030
C00030
800030
800030
800030
C00030
C00030
C00060
600060
7000C0
380180
1C0700
07FE00
01F800
ENDCHAR
STARTCHAR char60169
ENCODING 60169
SWIDTH 17 0
DWIDTH 16 0
BBX 15 14 1 1
BITMAP
0300
0300
0300
0300
C30C
FB7E
FFFC
1FE0
07C0
0FC0
1CE0
3C70
3878
1020
ENDCHAR
STARTCHAR char60170
ENCODING 60170
SWIDTH 30 0
DWIDTH 10 0
BBX 10 5 0 17
BITMAP
C1C0
E180
7F80
3F00
0800
ENDCHAR
STARTCHAR char60173
ENCODING 60173
SWIDTH 30 0
DWIDTH 10 0
BBX 9 4 0 18
BITMAP
E180
7380
3F00
1E00
ENDCHAR
STARTCHAR char60175
ENCODING 60175
SWIDTH 5 0
DWIDTH 22 0
BBX 20 21 1 0
BITMAP
00F000
07FE00
1E0700
380180
3000C0
63F860
C7FC60
C71E30
CE0E30
800E30
800E30
800E30
CE0E30
CF1E30
C7FC60
63F860
7060C0
380180
1C0700
07FE00
01F800
ENDCHAR
STARTCHAR char60176
ENCODING 60176
SWIDTH 0 0
DWIDTH 0 0
BBX 0 0 0 0
BITMAP
ENDCHAR
STARTCHAR char60177
ENCODING 60177
SWIDTH 0 0
DWIDTH 0 0
BBX 0 0 0 0
BITMAP
ENDCHAR
STARTCHAR char60178
ENCODING 60178
SWIDTH 0 0
DWIDTH 0 0
BBX 0 0 0 0
BITMAP
ENDCHAR
STARTCHAR char60181
ENCODING 60181
SWIDTH 30 0
DWIDTH 10 0
BBX 11 4 -2 18
BITMAP
E380
73C0
71C0
38E0
ENDCHAR
STARTCHAR char60182
ENCODING 60182
SWIDTH 24 0
DWIDTH 18 0
BBX 14 22 2 0
BITMAP
0780
0780
0780
0780
FFFC
FFFC
FFFC
E39C
0380
0380
0380
0780
0780
0780
0780
0780
0780
0780
0780
0780
0780
0780
ENDCHAR
STARTCHAR char60183
ENCODING 60183
SWIDTH 30 0
DWIDTH 10 0
BBX 10 3 0 19
BITMAP
F3C0
F3C0
F3C0
ENDCHAR
STARTCHAR char60185
ENCODING 60185
SWIDTH 30 0
DWIDTH 10 0
BBX 4 4 3 -6
BITMAP
F0
F0
F0
F0
ENDCHAR
STARTCHAR char60190
ENCODING 60190
SWIDTH 30 0
DWIDTH 20 0
BBX 16 35 2 -7
BITMAP
00F8
00F0
01E0
01C0
0000
0000
FFFF
FFFF
FFFF
FFFF
F800
F800
F800
F800
F800
FFFE
FFFE
FFFE
FFFE
F800
F800
F800
F800
F800
FFFF
FFFF
FFFF
FFFF
000C
0018
0038
0038
003F
001F
0007
ENDCHAR
STARTCHAR char60191
ENCODING 60191
SWIDTH 17 0
DWIDTH 16 0
BBX 14 29 1 -7
BITMAP
01F0
01E0
03C0
0380
0300
0000
0FC0
3FF0
7FF8
78F8
F03C
F03C
FFFC
FFFC
FFFC
F000
F000
F03C
787C
7FF8
3FF0
0FC0
0180
0380
0380
0380
03F0
03F0
0070
ENDCHAR
STARTCHAR char60200
ENCODING 60200
SWIDTH 1 0
DWIDTH 41 0
BBX 38 22 2 0
BITMAP
0FF0007F00
3FFC01FFC0
7FFE03FFE0
7FFF07FFF0
F81F0780F8
F00F0F8078
F00F8F8078
F8000F8000
FC0007E000
7FE007FF00
3FFE03FFE0
0FFF00FFF0
01FF800FF8
001F8000F8
000780007C
F0078F007C
F0078F807C
F80F8FC078
7FFF87FFF8
7FFF03FFF0
1FFE01FFE0
07F8007F80
ENDCHAR
STARTCHAR char60201
ENCODING 60201
SWIDTH 24 0
DWIDTH 18 0
BBX 14 23 2 -6
BITMAP
0780
0780
0780
0780
0000
0000
0780
0780
0F80
1F00
3F00
7F00
FF80
F780
F7BC
F7BC
F7BC
FFFC
7FF8
7FF8
1FF0
0780
0780
ENDCHAR
STARTCHAR char60202
ENCODING 60202
SWIDTH 30 0
DWIDTH 10 0
BBX 6 5 0 17
BITMAP
F8
78
38
1C
1C
ENDCHAR
STARTCHAR char60203
ENCODING 60203
SWIDTH 8 0
DWIDTH 23 0
BBX 20 26 1 -2
BITMAP
007000
007000
01FC00
07FF00
0FFFC0
1FFFC0
3F03E0
7C01E0
7C01F0
780000
F80000
F80000
F81FF0
F81FF0
F81FF0
F81FF0
7800F0
7C00F0
7E01F0
3F03F0
1FFFF0
0FFF70
07FE70
01F870
007000
007000
ENDCHAR
STARTCHAR char60206
ENCODING 60206
SWIDTH 30 0
DWIDTH 10 0
BBX 11 5 1 17
BITMAP
39E0
71C0
73C0
E380
C300
ENDCHAR
STARTCHAR char60207
ENCODING 60207
SWIDTH 15 0
DWIDTH 5 0
BBX 8 4 1 6
BITMAP
FF
FF
FF
FF
ENDCHAR
STARTCHAR char60208
ENCODING 60208
SWIDTH 30 0
DWIDTH 10 0
BBX 8 4 1 10
BITMAP
FF
FF
FF
FF
ENDCHAR
STARTCHAR char60209
ENCODING 60209
SWIDTH 30 0
DWIDTH 10 0
BBX 8 12 1 2
BITMAP
FF
FF
FF
FF
00
00
00
00
FF
FF
FF
FF
ENDCHAR
STARTCHAR char60210
ENCODING 60210
SWIDTH 15 0
DWIDTH 5 0
BBX 8 12 1 2
BITMAP
FF
FF
FF
FF
00
00
00
00
FF
FF
FF
FF
ENDCHAR
STARTCHAR char60213
ENCODING 60213
SWIDTH 24 0
DWIDTH 8 0
BBX 7 35 1 -7
BITMAP
1E
3C
38
70
00
00
78
78
78
78
78
78
78
78
78
78
78
78
78
78
78
78
78
78
78
78
78
78
70
E0
C0
E0
FC
FC
1C
ENDCHAR
STARTCHAR char60214
ENCODING 60214
SWIDTH 24 0
DWIDTH 8 0
BBX 7 29 1 -7
BITMAP
1E
3C
3C
78
70
00
78
78
78
78
78
78
78
78
78
78
78
78
78
78
78
78
70
E0
E0
E0
FC
FC
3C
ENDCHAR
STARTCHAR char60218
ENCODING 60218
SWIDTH 17 0
DWIDTH 16 0
BBX 15 28 1 0
BITMAP
001E
003C
0038
0070
0000
0000
0078
0078
0078
0078
0078
0078
0078
0078
0078
0078
0078
0078
0078
0078
F078
F078
F078
F8F8
FFF8
7FF0
3FE0
1FC0
ENDCHAR
STARTCHAR char60219
ENCODING 60219
SWIDTH 24 0
DWIDTH 8 0
BBX 8 28 0 -6
BITMAP
0F
1E
1E
1C
38
00
3C
3C
3C
3C
3C
3C
3C
3C
3C
3C
3C
3C
3C
3C
3C
3C
3C
3C
3C
FC
FC
F8
ENDCHAR
STARTCHAR char60224
ENCODING 60224
SWIDTH 26 0
DWIDTH 29 0
BBX 27 25 1 -2
BITMAP
0003FF80
000FFFE0
003FC1E0
0079C3E0
01E1C7E0
03C1CE60
0381DCE0
0781F8E0
0F81F0C0
0D81FFC0
1D83FFC0
19870180
398E0380
319C0380
71B80700
71F00700
61FFFE00
63FFFC00
E7803C00
EE007800
FC00F000
F803E000
F00F8000
FFFF0000
3FF80000
ENDCHAR
STARTCHAR char60227
ENCODING 60227
SWIDTH 30 0
DWIDTH 10 0
BBX 9 2 0 19
BITMAP
FF80
FF80
ENDCHAR
STARTCHAR char60232
ENCODING 60232
SWIDTH 8 0
DWIDTH 23 0
BBX 21 34 1 -7
BITMAP
001E00
003C00
003800
007000
000000
01FC00
07FF00
0FFF80
1FFFC0
3F07E0
7C03E0
7C01F0
7800F0
F800F0
F800F8
F800F8
F800F8
F800F8
F800F8
7800F0
7C01F0
7C01F0
3F07E0
1FFFC0
0FFF80
07FF00
01FC00
003800
007000
007000
007000
007E00
003E00
000E00
ENDCHAR
STARTCHAR char60233
ENCODING 60233
SWIDTH 24 0
DWIDTH 18 0
BBX 16 29 1 -7
BITMAP
00F8
00F0
01E0
01C0
0180
0000
07E0
1FF8
3FFC
7E7E
783E
F81E
F01F
F01F
F00F
F01F
F81E
783E
7E7E
3FFC
1FF8
07E0
00C0
01C0
0180
01C0
01F8
01F8
0038
ENDCHAR
STARTCHAR char60236
ENCODING 60236
SWIDTH 17 0
DWIDTH 16 0
BBX 9 28 4 -6
BITMAP
1F80
3F80
7F80
FF80
FF80
FF80
FF80
FF80
FF80
FF80
FF80
7F80
3F80
1F80
0380
0380
0380
0380
0380
0380
0380
0380
0380
0380
0380
0380
0380
0380
ENDCHAR
STARTCHAR char60237
ENCODING 60237
SWIDTH 11 0
DWIDTH 14 0
BBX 11 11 3 0
BITMAP
1E00
3F80
7FC0
F1C0
E1E0
E0E0
E0E0
F1C0
7FC0
7F80
1F00
ENDCHAR
STARTCHAR char60242
ENCODING 60242
SWIDTH 11 0
DWIDTH 14 0
BBX 11 7 1 -3
BITMAP
F9E0
F9E0
F9E0
F9E0
70E0
70E0
60C0
ENDCHAR
STARTCHAR char60246
ENCODING 60246
SWIDTH 21 0
DWIDTH 7 0
BBX 5 7 1 -3
BITMAP
F8
F8
F8
F8
70
70
60
ENDCHAR
STARTCHAR char60247
ENCODING 60247
SWIDTH 21 0
DWIDTH 7 0
BBX 5 8 1 14
BITMAP
F8
F8
F8
F8
70
70
70
60
ENDCHAR
STARTCHAR char60250
ENCODING 60250
SWIDTH 11 0
DWIDTH 14 0
BBX 10 11 2 13
BITMAP
1E00
6180
4080
BE40
B340
BE40
B240
B240
40C0
6180
1E00
ENDCHAR
STARTCHAR char60257
ENCODING 60257
SWIDTH 24 0
DWIDTH 8 0
BBX 10 10 -1 7
BITMAP
00C0
01C0
03C0
0F80
1F00
7C00
F800
F000
C000
8000
ENDCHAR
STARTCHAR char60259
ENCODING 60259
SWIDTH 30 0
DWIDTH 10 0
BBX 16 5 3 17
BITMAP
0FF0
3FFE
7FFF
FC1F
F007
ENDCHAR
STARTCHAR char60260
ENCODING 60260
SWIDTH 24 0
DWIDTH 18 0
BBX 16 5 1 17
BITMAP
0FF0
3FFC
7FFE
F81F
E007
ENDCHAR
STARTCHAR char60261
ENCODING 60261
SWIDTH 24 0
DWIDTH 8 0
BBX 13 5 2 17
BITMAP
1FC0
3FF0
7FF0
78F8
F038
ENDCHAR
STARTCHAR char60262
ENCODING 60262
SWIDTH 14 0
DWIDTH 15 0
BBX 13 5 1 17
BITMAP
1FC0
7FE0
7FF0
F8F0
E078
ENDCHAR
STARTCHAR char60263
ENCODING 60263
SWIDTH 21 0
DWIDTH 17 0
BBX 13 5 2 -3
BITMAP
7C18
FE18
C7B8
C3F0
01E0
ENDCHAR
STARTCHAR char60267
ENCODING 60267
SWIDTH 30 0
DWIDTH 20 0
BBX 20 3 0 6
BITMAP
FFFFF0
FFFFF0
FFFFF0
ENDCHAR
STARTCHAR char60270
ENCODING 60270
SWIDTH 2 0
DWIDTH 21 0
BBX 17 27 2 -5
BITMAP
F80780
F80780
F80780
F80780
F80780
F80780
F80780
F80780
F80780
F80780
F80780
F80780
F80780
F80780
F80780
F80780
F80F80
7C1F80
7FFF00
3FFE00
1FFC00
07F000
000000
000000
07F000
0FF800
1E3C00
ENDCHAR
STARTCHAR char60271
ENCODING 60271
SWIDTH 24 0
DWIDTH 18 0
BBX 14 21 2 -5
BITMAP
F03C
F03C
F03C
F03C
F03C
F03C
F03C
F03C
F03C
F03C
F03C
F07C
FDFC
FFFC
7FBC
3F3C
0000
0000
0FC0
3FF0
3C70
ENDCHAR
STARTCHAR char60286
ENCODING 60286
SWIDTH 17 0
DWIDTH 16 0
BBX 19 22 1 0
BITMAP
0079E0
0079E0
0079E0
007860
007840
0078C0
007980
007800
007800
007800
007800
007800
007800
007800
F07800
F07800
F07800
F8F800
FFF800
7FF000
3FE000
1FC000
ENDCHAR
STARTCHAR char60416
ENCODING 60416
SWIDTH 11 0
DWIDTH 14 0
BBX 10 11 2 13
BITMAP
1E00
6180
4080
9E40
B340
B040
B340
9E40
40C0
6180
1E00
ENDCHAR
STARTCHAR char60422
ENCODING 60422
SWIDTH 24 0
DWIDTH 8 0
BBX 6 21 1 0
BITMAP
FC
FC
00
00
00
78
78
78
78
78
78
78
78
78
78
78
78
78
78
78
78
ENDCHAR
STARTCHAR char60423
ENCODING 60423
SWIDTH 24 0
DWIDTH 8 0
BBX 6 27 1 0
BITMAP
FC
FC
00
00
00
78
78
78
78
78
78
78
78
78
78
78
78
78
78
78
78
78
78
78
78
78
78
ENDCHAR
STARTCHAR char60424
ENCODING 60424
SWIDTH 2 0
DWIDTH 21 0
BBX 17 27 2 0
BITMAP
0F8C00
0FFC00
0CF800
000000
000000
F00780
F00780
F00780
F00780
F00780
F00780
F00780
F00780
FFFF80
FFFF80
FFFF80
FFFF80
F00780
F00780
F00780
F00780
F00780
F00780
F00780
F00780
F00780
F00780
ENDCHAR
STARTCHAR char60425
ENCODING 60425
SWIDTH 24 0
DWIDTH 18 0
BBX 14 27 2 0
BITMAP
1E30
3FF0
31E0
0000
0000
F000
F000
F000
F000
F000
F000
F3E0
F7F8
FFF8
FFFC
F87C
F03C
F03C
F03C
F03C
F03C
F03C
F03C
F03C
F03C
F03C
F03C
ENDCHAR
STARTCHAR char60426
ENCODING 60426
SWIDTH 24 0
DWIDTH 18 0
BBX 18 27 -1 0
BITMAP
7C6000
7FC000
E7C000
000000
000000
1F0000
1F0000
1F0000
1F0000
1F0000
1F0000
1F0000
1F0000
1F0000
1F0000
1F0000
1F0000
1F0000
1F0000
1F0000
1F0000
1F0000
1F0000
1FFFC0
1FFFC0
1FFFC0
1FFFC0
ENDCHAR
STARTCHAR char60427
ENCODING 60427
SWIDTH 24 0
DWIDTH 8 0
BBX 10 27 -1 0
BITMAP
7CC0
FFC0
C780
0000
0000
1E00
1E00
1E00
1E00
1E00
1E00
1E00
1E00
1E00
1E00
1E00
1E00
1E00
1E00
1E00
1E00
1E00
1E00
1E00
1E00
1E00
1E00
ENDCHAR
STARTCHAR char60428
ENCODING 60428
SWIDTH 24 0
DWIDTH 18 0
BBX 18 27 0 0
BITMAP
078C00
0FFC00
0C7800
000000
000000
FFFFC0
FFFFC0
FFFFC0
FFFFC0
01E000
01E000
01E000
01E000
01E000
01E000
01E000
01E000
01E000
01E000
01E000
01E000
01E000
01E000
01E000
01E000
01E000
01E000
ENDCHAR
STARTCHAR char60429
ENCODING 60429
SWIDTH 30 0
DWIDTH 10 0
BBX 11 25 -1 0
BITMAP
7C60
7FC0
C7C0
0000
0000
1F00
1F00
1F00
1F00
7FC0
7FC0
7FC0
1F00
1F00
1F00
1F00
1F00
1F00
1F00
1F00
1F00
1F00
1FC0
0FC0
07C0
ENDCHAR
STARTCHAR char60430
ENCODING 60430
SWIDTH 24 0
DWIDTH 18 0
BBX 18 27 0 0
BITMAP
0F3C00
0F3C00
0F3C00
000000
000000
FFFFC0
FFFFC0
FFFFC0
FFFFC0
01E000
01E000
01E000
01E000
01E000
01E000
01E000
01E000
01E000
01E000
01E000
01E000
01E000
01E000
01E000
01E000
01E000
01E000
ENDCHAR
STARTCHAR char60432
ENCODING 60432
SWIDTH 8 0
DWIDTH 23 0
BBX 21 33 1 -6
BITMAP
007000
007000
007000
007000
007000
00F000
07FE00
0FFF80
1FFFC0
3F07E0
3E03E0
7C01F0
7800F0
F800F0
F800F8
F800F8
F800F8
F800F8
F800F8
7800F0
7801F0
7C01F0
3E03E0
3F9FE0
1FFFC0
0FFF80
03FE00
007000
007000
007000
007000
007000
007000
ENDCHAR
STARTCHAR char60433
ENCODING 60433
SWIDTH 24 0
DWIDTH 18 0
BBX 16 27 1 -6
BITMAP
0180
0180
0180
0180
0180
0FE0
1FF8
3FFC
7E7E
781E
F81E
F01F
F00F
F00F
F01F
F81E
F81E
7C3E
3FFC
3FF8
0FF0
0180
0180
0180
0180
0180
0180
ENDCHAR
STARTCHAR char60434
ENCODING 60434
SWIDTH 30 0
DWIDTH 20 0
BBX 17 27 1 -6
BITMAP
01C000
01C000
01C000
01C000
01C000
07F000
1FFC00
3FFE00
7E3F00
781F00
F80F00
F00F80
F00780
F00780
F00780
F80F00
780F00
7C3F00
3FFE00
1FFC00
07F000
01C000
01C000
01C000
01C000
01C000
01C000
ENDCHAR
STARTCHAR char63032
ENCODING 63032
SWIDTH 17 0
DWIDTH 16 0
BBX 14 21 1 0
BITMAP
FFC0
FFF0
7FF0
7CF8
7C78
FC3C
FE3C
FE3C
FF3C
F73C
F7BC
F3BC
F3FC
F1FC
F1FC
F0FC
78F8
7FF8
3FF8
3FFC
0FFC
ENDCHAR
STARTCHAR char63033
ENCODING 63033
SWIDTH 24 0
DWIDTH 18 0
BBX 14 21 2 0
BITMAP
0FC0
3FE0
7FF0
7CF8
F878
F07C
F03C
F03C
F03C
F03C
F03C
F03C
F03C
F03C
F03C
F07C
F878
7FF8
7FF0
3FE0
0FC0
ENDCHAR
STARTCHAR char63034
ENCODING 63034
SWIDTH 24 0
DWIDTH 18 0
BBX 14 21 2 0
BITMAP
0FC0
3FF0
7FF8
7CF8
F87C
F03C
F03C
F03C
003C
0078
00F8
01F0
07E0
0F80
1F00
3E00
7C00
FFFC
FFFC
FFFC
FFFC
ENDCHAR
STARTCHAR char63035
ENCODING 63035
SWIDTH 24 0
DWIDTH 18 0
BBX 14 21 2 0
BITMAP
0FC0
3FF0
7FF0
7CF8
F078
F078
F078
0078
00F0
07E0
07F0
07F8
007C
003C
F03C
F03C
F07C
FFF8
7FF8
3FF0
0FC0
ENDCHAR
STARTCHAR char63036
ENCODING 63036
SWIDTH 24 0
DWIDTH 18 0
BBX 14 21 2 0
BITMAP
01F0
03F0
03F0
07F0
07F0
0EF0
0EF0
1CF0
38F0
38F0
70F0
70F0
E0F0
FFFC
FFFC
FFFC
00F0
00F0
00F0
00F0
00F0
ENDCHAR
STARTCHAR char63037
ENCODING 63037
SWIDTH 24 0
DWIDTH 18 0
BBX 14 21 2 0
BITMAP
3FF8
3FF8
3FF8
3FF8
7800
7000
7000
77E0
7FF0
7FF8
7878
F07C
003C
003C
003C
F03C
F07C
FFF8
7FF8
3FF0
0FC0
ENDCHAR
STARTCHAR char63038
ENCODING 63038
SWIDTH 24 0
DWIDTH 18 0
BBX 14 21 2 0
BITMAP
07C0
1FF0
3FF8
7CF8
783C
F000
F000
F3E0
FFF0
FFF8
FCF8
F03C
F03C
F03C
F03C
F03C
F87C
7FF8
7FF8
3FF0
0FC0
ENDCHAR
STARTCHAR char63039
ENCODING 63039
SWIDTH 24 0
DWIDTH 18 0
BBX 14 21 2 0
BITMAP
FFFC
FFFC
FFFC
FFFC
0078
0078
00F0
01E0
01E0
03C0
03C0
0780
0780
0F00
0F00
0F00
0F00
1E00
1E00
1E00
1E00
ENDCHAR
STARTCHAR char63040
ENCODING 63040
SWIDTH 24 0
DWIDTH 18 0
BBX 14 21 2 0
BITMAP
0FC0
3FF0
7FF8
7CF8
703C
F03C
F03C
7878
7FF8
3FF0
3FF0
7878
F03C
F03C
F03C
F03C
F83C
FFFC
7FF8
3FF0
0FC0
ENDCHAR
STARTCHAR char63041
ENCODING 63041
SWIDTH 24 0
DWIDTH 18 0
BBX 14 21 2 0
BITMAP
0FC0
3FE0
7FF0
7CF8
F078
F03C
F03C
F03C
F03C
F07C
FDFC
7FFC
3FBC
1F3C
003C
0078
F078
FFF8
7FF0
3FE0
0F80
ENDCHAR
STARTCHAR char63043
ENCODING 63043
SWIDTH 17 0
DWIDTH 16 0
BBX 14 17 1 0
BITMAP
1FE0
7FF8
7FF8
F87C
F03C
F03C
F03C
F03C
F03C
F03C
F03C
F03C
F83C
FFFC
7FF8
3FF8
1FE0
ENDCHAR
STARTCHAR char63044
ENCODING 63044
SWIDTH 17 0
DWIDTH 16 0
BBX 9 16 2 0
BITMAP
0380
0380
0780
1F80
FF80
FF80
FF80
0780
0780
0780
0780
0780
0780
0780
0780
0780
ENDCHAR
STARTCHAR char63045
ENCODING 63045
SWIDTH 17 0
DWIDTH 16 0
BBX 14 16 1 0
BITMAP
1FE0
3FF8
7FF8
FCFC
F03C
F03C
003C
0078
01F0
0FE0
1F80
3E00
7FFC
FFFC
FFFC
FFFC
ENDCHAR
STARTCHAR char63046
ENCODING 63046
SWIDTH 17 0
DWIDTH 16 0
BBX 14 21 1 -5
BITMAP
1FE0
3FF0
7FF8
F8F8
F078
F078
0078
0078
07F0
07E0
07F8
00FC
007C
003C
F03C
F03C
F87C
7FF8
7FF8
3FF0
0FC0
ENDCHAR
STARTCHAR char63047
ENCODING 63047
SWIDTH 17 0
DWIDTH 16 0
BBX 14 21 1 -5
BITMAP
01F0
03F0
03F0
07F0
07F0
0EF0
1CF0
1CF0
38F0
38F0
70F0
E0F0
E0F0
FFFC
FFFC
FFFC
00F0
00F0
00F0
00F0
00F0
ENDCHAR
STARTCHAR char63048
ENCODING 63048
SWIDTH 17 0
DWIDTH 16 0
BBX 14 21 1 -5
BITMAP
3FF8
3FF8
3FF8
3FF8
3800
7000
7000
77E0
7FF0
7FF8
787C
F03C
003C
003C
003C
F03C
F07C
FFF8
7FF8
3FF0
0FC0
ENDCHAR
STARTCHAR char63049
ENCODING 63049
SWIDTH 17 0
DWIDTH 16 0
BBX 14 21 1 0
BITMAP
07C0
1FF0
3FF8
7EF8
783C
7800
F000
F3E0
FFF0
FFF8
FCFC
F83C
F03C
F03C
F03C
F03C
787C
7FF8
3FF8
1FF0
0FC0
ENDCHAR
STARTCHAR char63050
ENCODING 63050
SWIDTH 17 0
DWIDTH 16 0
BBX 14 21 1 -5
BITMAP
FFFC
FFFC
FFFC
FFFC
0078
0078
00F0
01E0
01E0
03C0
03C0
0780
0780
0F00
0F00
0F00
0F00
1E00
1E00
1E00
1E00
ENDCHAR
STARTCHAR char63051
ENCODING 63051
SWIDTH 17 0
DWIDTH 16 0
BBX 14 21 1 0
BITMAP
0FC0
3FF0
7FF8
7CF8
F03C
F03C
F03C
7878
7FF8
3FF0
3FF0
F878
F03C
F03C
F03C
F03C
F03C
FFFC
7FF8
3FF0
0FC0
ENDCHAR
STARTCHAR char63052
ENCODING 63052
SWIDTH 17 0
DWIDTH 16 0
BBX 14 21 1 -5
BITMAP
1FC0
3FF0
7FF8
F878
F078
F03C
F03C
F03C
F07C
F87C
7FFC
7FFC
1FBC
003C
003C
F078
F078
7FF8
7FF0
3FE0
0F80
ENDCHAR
STARTCHAR char63085
ENCODING 63085
SWIDTH 24 0
DWIDTH 18 0
BBX 16 22 1 0
BITMAP
1C38
0FF0
07F0
03C0
0000
0000
03E0
07E0
07E0
07F0
0FF0
0FF0
0F78
1E78
1E7C
3E3C
3FFC
3FFE
7FFE
781E
F80F
F00F
ENDCHAR
STARTCHAR char63086
ENCODING 63086
SWIDTH 24 0
DWIDTH 18 0
BBX 16 21 1 0
BITMAP
0FF8
0FF8
0000
0000
0000
03E0
07E0
07E0
07F0
0FF0
0FF0
0F78
1E78
1E7C
3E3C
3FFC
3FFE
7FFE
781E
F80F
F00F
ENDCHAR
STARTCHAR char63087
ENCODING 63087
SWIDTH 24 0
DWIDTH 18 0
BBX 16 23 1 -7
BITMAP
03E0
07E0
07E0
07F0
0FF0
0FF0
0F78
1E78
1E7C
3E3C
3FFC
3FFE
7FFE
781E
F80F
F00F
000C
0018
0038
0038
003F
001F
0007
ENDCHAR
STARTCHAR char63088
ENCODING 63088
SWIDTH 11 0
DWIDTH 24 0
BBX 22 22 1 0
BITMAP
001F00
001E00
003C00
003800
003800
000000
07FFFC
07FFFC
07FFFC
0F7800
0F7800
1E7800
1E7FF8
1E7FF8
3C7FF8
3C7800
7FF800
7FF800
7FF800
F87FFC
F07FFC
F07FFC
ENDCHAR
STARTCHAR char63089
ENCODING 63089
SWIDTH 21 0
DWIDTH 17 0
BBX 15 22 1 0
BITMAP
00F8
00F0
00E0
01C0
01C0
0000
07E0
1FF8
3FFC
7E7E
781E
F81E
F000
F000
F000
F000
F81E
781E
7E3E
3FFC
1FF8
07F0
ENDCHAR
STARTCHAR char63090
ENCODING 63090
SWIDTH 21 0
DWIDTH 17 0
BBX 15 22 1 0
BITMAP
1C38
0E70
07E0
07E0
03C0
0000
07E0
1FF8
3FFC
7E7E
781E
F81E
F000
F000
F000
F000
F81E
781E
7E3E
3FFC
1FF8
07F0
ENDCHAR
STARTCHAR char63091
ENCODING 63091
SWIDTH 21 0
DWIDTH 17 0
BBX 15 22 1 0
BITMAP
03C0
07E0
07F0
0E70
1C38
0000
07E0
1FF8
3FFC
7E7E
781E
F81E
F000
F000
F000
F000
F81E
781E
7E3E
3FFC
1FF8
07F0
ENDCHAR
STARTCHAR char63092
ENCODING 63092
SWIDTH 21 0
DWIDTH 17 0
BBX 15 22 1 0
BITMAP
03C0
03C0
03C0
03C0
0000
0000
07E0
1FF8
3FFC
7E7E
781E
F81E
F000
F000
F000
F000
F81E
781E
7E3E
3FFC
1FF8
07F0
ENDCHAR
STARTCHAR char63093
ENCODING 63093
SWIDTH 24 0
DWIDTH 18 0
BBX 15 22 2 0
BITMAP
3870
1CE0
0FC0
0780
0000
0000
FFE0
FFF0
FFF8
F0FC
F03C
F03C
F03E
F01E
F01E
F03E
F03C
F03C
F0FC
FFF8
FFF0
FFE0
ENDCHAR
STARTCHAR char63095
ENCODING 63095
SWIDTH 17 0
DWIDTH 16 0
BBX 13 22 2 0
BITMAP
3060
3FE0
1FC0
0F80
0000
0000
FFF8
FFF8
FFF8
F000
F000
F000
FFF0
FFF0
FFF0
F000
F000
F000
F000
FFF8
FFF8
FFF8
ENDCHAR
STARTCHAR char63096
ENCODING 63096
SWIDTH 17 0
DWIDTH 16 0
BBX 13 22 2 0
BITMAP
38E0
1DC0
0FC0
0F80
0000
0000
FFF8
FFF8
FFF8
F000
F000
F000
FFF0
FFF0
FFF0
F000
F000
F000
F000
FFF8
FFF8
FFF8
ENDCHAR
STARTCHAR char63097
ENCODING 63097
SWIDTH 17 0
DWIDTH 16 0
BBX 13 22 2 0
BITMAP
0780
0780
0780
0780
0000
0000
FFF8
FFF8
FFF8
F000
F000
F000
FFF0
FFF0
FFF0
F000
F000
F000
F000
FFF8
FFF8
FFF8
ENDCHAR
STARTCHAR char63098
ENCODING 63098
SWIDTH 17 0
DWIDTH 16 0
BBX 13 21 2 0
BITMAP
3FE0
3FE0
0000
0000
0000
FFF8
FFF8
FFF8
F000
F000
F000
FFF0
FFF0
FFF0
F000
F000
F000
F000
FFF8
FFF8
FFF8
ENDCHAR
STARTCHAR char63099
ENCODING 63099
SWIDTH 24 0
DWIDTH 18 0
BBX 14 23 2 -7
BITMAP
F03C
F83C
FC3C
FC3C
FE3C
FF3C
FF3C
F7BC
F3BC
F3FC
F1FC
F1FC
F0FC
F07C
F07C
F03C
003C
003C
1E3C
1E3C
1FFC
0FF8
07F0
ENDCHAR
STARTCHAR char63100
ENCODING 63100
SWIDTH 17 0
DWIDTH 16 0
BBX 13 23 2 -7
BITMAP
FFF8
FFF8
FFF8
F000
F000
F000
FFF0
FFF0
FFF0
F000
F000
F000
F000
FFF8
FFF8
FFF8
0070
00C0
01C0
01C0
01F8
00F8
0038
ENDCHAR
STARTCHAR char63101
ENCODING 63101
SWIDTH 27 0
DWIDTH 19 0
BBX 16 22 1 0
BITMAP
0C18
0E38
0FF0
07F0
0080
0000
07F0
1FFC
3FFE
7F3F
780F
F80F
F000
F07F
F07F
F07F
F80F
7C0F
7F3F
3FFF
1FFF
07E7
ENDCHAR
STARTCHAR char63102
ENCODING 63102
SWIDTH 27 0
DWIDTH 19 0
BBX 16 22 1 0
BITMAP
03E0
03E0
07F0
0778
0E38
0000
07F0
1FFC
3FFE
7F3F
780F
F80F
F000
F07F
F07F
F07F
F80F
7C0F
7F3F
3FFF
1FFF
07E7
ENDCHAR
STARTCHAR char63103
ENCODING 63103
SWIDTH 27 0
DWIDTH 19 0
BBX 16 25 1 -9
BITMAP
07F0
1FFC
3FFE
7F3F
780F
F80F
F000
F07F
F07F
F07F
F80F
7C0F
7F3F
3FFF
1FFF
07E7
0000
0000
01C0
01C0
01C0
00C0
00C0
0180
0100
ENDCHAR
STARTCHAR char63104
ENCODING 63104
SWIDTH 27 0
DWIDTH 19 0
BBX 16 22 1 0
BITMAP
03E0
03E0
03E0
03E0
0000
0000
07F0
1FFC
3FFE
7F3F
780F
F80F
F000
F07F
F07F
F07F
F80F
7C0F
7F3F
3FFF
1FFF
07E7
ENDCHAR
STARTCHAR char63105
ENCODING 63105
SWIDTH 24 0
DWIDTH 18 0
BBX 18 16 -1 0
BITMAP
3C0F00
3C0F00
FFFFC0
FFFFC0
3C0F00
3C0F00
3FFF00
3FFF00
3FFF00
3C0F00
3C0F00
3C0F00
3C0F00
3C0F00
3C0F00
3C0F00
ENDCHAR
STARTCHAR char63106
ENCODING 63106
SWIDTH 24 0
DWIDTH 18 0
BBX 14 22 2 0
BITMAP
07C0
0FC0
1CE0
3870
0000
0000
F03C
F03C
F03C
F03C
F03C
F03C
FFFC
FFFC
FFFC
F03C
F03C
F03C
F03C
F03C
F03C
F03C
ENDCHAR
STARTCHAR char63107
ENCODING 63107
SWIDTH 24 0
DWIDTH 8 0
BBX 10 22 -1 0
BITMAP
E1C0
7F80
7F00
1E00
0000
0000
1E00
1E00
1E00
1E00
1E00
1E00
1E00
1E00
1E00
1E00
1E00
1E00
1E00
1E00
1E00
1E00
ENDCHAR
STARTCHAR char63108
ENCODING 63108
SWIDTH 2 0
DWIDTH 21 0
BBX 17 16 2 0
BITMAP
F00780
F00780
F00780
F00780
F00780
F00780
F00780
F00780
F00780
F3C780
F3C780
F3C780
F3EF80
F3FF80
F1FF00
F07C00
ENDCHAR
STARTCHAR char63109
ENCODING 63109
SWIDTH 24 0
DWIDTH 8 0
BBX 9 21 -1 0
BITMAP
FF80
FF80
0000
0000
0000
1E00
1E00
1E00
1E00
1E00
1E00
1E00
1E00
1E00
1E00
1E00
1E00
1E00
1E00
1E00
1E00
ENDCHAR
STARTCHAR char63110
ENCODING 63110
SWIDTH 24 0
DWIDTH 8 0
BBX 7 23 0 -7
BITMAP
3C
3C
3C
3C
3C
3C
3C
3C
3C
3C
3C
3C
3C
3C
3C
3C
38
70
60
E0
7E
7E
1E
ENDCHAR
STARTCHAR char63111
ENCODING 63111
SWIDTH 24 0
DWIDTH 8 0
BBX 10 22 -1 0
BITMAP
78C0
FFC0
CFC0
C000
0000
0000
1E00
1E00
1E00
1E00
1E00
1E00
1E00
1E00
1E00
1E00
1E00
1E00
1E00
1E00
1E00
1E00
ENDCHAR
STARTCHAR char63112
ENCODING 63112
SWIDTH 11 0
DWIDTH 14 0
BBX 14 22 1 0
BITMAP
01F0
03F0
07B8
061C
0000
0000
01E0
01E0
01E0
01E0
01E0
01E0
01E0
01E0
01E0
F1E0
F1E0
F1E0
FBE0
7FE0
7FC0
1F80
ENDCHAR
STARTCHAR char63113
ENCODING 63113
SWIDTH 24 0
DWIDTH 18 0
BBX 15 25 2 -9
BITMAP
F03E
F07C
F0F8
F1F0
F3E0
F7C0
FF80
FF80
FFC0
FBC0
F3E0
F1F0
F0F8
F07C
F03E
F01E
0000
0000
0780
0780
0780
0180
0100
0700
0600
ENDCHAR
STARTCHAR char63114
ENCODING 63114
SWIDTH 14 0
DWIDTH 15 0
BBX 12 22 2 0
BITMAP
3E00
3C00
7800
7000
E000
0000
F000
F000
F000
F000
F000
F000
F000
F000
F000
F000
F000
F000
F000
FFF0
FFF0
FFF0
ENDCHAR
STARTCHAR char63115
ENCODING 63115
SWIDTH 14 0
DWIDTH 15 0
BBX 12 16 2 0
BITMAP
F780
F780
F780
F180
F180
F300
F700
F000
F000
F000
F000
F000
F000
FFF0
FFF0
FFF0
ENDCHAR
STARTCHAR char63116
ENCODING 63116
SWIDTH 14 0
DWIDTH 15 0
BBX 12 25 2 -9
BITMAP
F000
F000
F000
F000
F000
F000
F000
F000
F000
F000
F000
F000
F000
FFF0
FFF0
FFF0
0000
0000
0F00
0F00
0F00
0300
0300
0600
0C00
ENDCHAR
STARTCHAR char63117
ENCODING 63117
SWIDTH 14 0
DWIDTH 15 0
BBX 12 16 2 0
BITMAP
F000
F000
F000
F000
F000
F000
F1E0
F1E0
F1E0
F1E0
F000
F000
F000
FFF0
FFF0
FFF0
ENDCHAR
STARTCHAR char63118
ENCODING 63118
SWIDTH 24 0
DWIDTH 18 0
BBX 14 22 2 0
BITMAP
01F0
01E0
03C0
0380
0380
0000
F03C
F83C
FC3C
FC3C
FE3C
FF3C
FF3C
F7BC
F3BC
F3FC
F1FC
F1FC
F0FC
F07C
F07C
F03C
ENDCHAR
STARTCHAR char63119
ENCODING 63119
SWIDTH 24 0
DWIDTH 18 0
BBX 14 22 2 0
BITMAP
3870
1CE0
0FC0
0780
0000
0000
F03C
F83C
FC3C
FC3C
FE3C
FF3C
FF3C
F7BC
F3BC
F3FC
F1FC
F1FC
F0FC
F07C
F07C
F03C
ENDCHAR
STARTCHAR char63120
ENCODING 63120
SWIDTH 24 0
DWIDTH 18 0
BBX 14 25 2 -9
BITMAP
F03C
F83C
FC3C
FC3C
FE3C
FF3C
FF3C
F7BC
F3BC
F3FC
F1FC
F1FC
F0FC
F07C
F07C
F03C
0000
0000
0780
0780
0780
0180
0100
0700
0600
ENDCHAR
STARTCHAR char63121
ENCODING 63121
SWIDTH 27 0
DWIDTH 19 0
BBX 17 22 1 0
BITMAP
0C1800
0E3800
0FF000
07E000
008000
000000
07F000
1FFC00
3FFE00
7F7E00
781F00
F80F00
F00780
F00780
F00780
F00780
F80F00
781F00
7E7F00
3FFE00
1FFC00
07F000
ENDCHAR
STARTCHAR char63122
ENCODING 63122
SWIDTH 27 0
DWIDTH 19 0
BBX 17 22 1 0
BITMAP
03CE00
039E00
071C00
071800
0E3800
000000
07F000
1FFC00
3FFE00
7F7E00
781F00
F80F00
F00780
F00780
F00780
F00780
F80F00
781F00
7E7F00
3FFE00
1FFC00
07F000
ENDCHAR
STARTCHAR char63123
ENCODING 63123
SWIDTH 27 0
DWIDTH 19 0
BBX 17 21 1 0
BITMAP
0FF800
0FF800
000000
000000
000000
07F000
1FFC00
3FFE00
7F7E00
781F00
F80F00
F00780
F00780
F00780
F00780
F80F00
781F00
7E7F00
3FFE00
1FFC00
07F000
ENDCHAR
STARTCHAR char63124
ENCODING 63124
SWIDTH 27 0
DWIDTH 19 0
BBX 17 22 1 0
BITMAP
007800
00F800
00F000
00E000
01C000
000000
03F100
0FFF80
3FFF00
3F3F00
7C1F00
787F80
F8F780
F1E780
F3C780
FF8780
7F0F80
7E0F00
3E3F00
7FFE00
FFFC00
23F000
ENDCHAR
STARTCHAR char63125
ENCODING 63125
SWIDTH 24 0
DWIDTH 18 0
BBX 15 22 2 0
BITMAP
01F0
01E0
03C0
0380
0380
0000
FFF0
FFF8
FFFC
F07C
F03C
F03C
F07C
FFF8
FFF0
FFF8
F07C
F03C
F03C
F03C
F03C
F03E
ENDCHAR
STARTCHAR char63126
ENCODING 63126
SWIDTH 24 0
DWIDTH 18 0
BBX 15 22 2 0
BITMAP
3870
1CE0
0FC0
0780
0000
0000
FFF0
FFF8
FFFC
F07C
F03C
F03C
F07C
FFF8
FFF0
FFF8
F07C
F03C
F03C
F03C
F03C
F03E
ENDCHAR
STARTCHAR char63127
ENCODING 63127
SWIDTH 24 0
DWIDTH 18 0
BBX 15 25 2 -9
BITMAP
FFF0
FFF8
FFFC
F07C
F03C
F03C
F07C
FFF8
FFF0
FFF8
F07C
F03C
F03C
F03C
F03C
F03E
0000
0000
0780
0780
0780
0180
0100
0700
0600
ENDCHAR
STARTCHAR char63128
ENCODING 63128
SWIDTH 17 0
DWIDTH 16 0
BBX 14 22 1 0
BITMAP
01F0
01E0
03C0
0380
0380
0000
0FC0
3FF0
7FF8
F878
F03C
F03C
FF00
7FF0
3FF8
03FC
F03C
F03C
F87C
7FFC
3FF8
0FE0
ENDCHAR
STARTCHAR char63129
ENCODING 63129
SWIDTH 17 0
DWIDTH 16 0
BBX 14 23 1 -7
BITMAP
0FC0
3FF0
7FF8
F878
F03C
F03C
FF00
7FF0
3FF8
03FC
F03C
F03C
F87C
7FFC
3FF8
0FE0
0600
07C0
01C0
00C0
11C0
1FC0
0F00
ENDCHAR
STARTCHAR char63130
ENCODING 63130
SWIDTH 17 0
DWIDTH 16 0
BBX 14 22 1 0
BITMAP
0780
0FC0
0FC0
1CE0
3870
0000
0FC0
3FF0
7FF8
F878
F03C
F03C
FF00
7FF0
3FF8
03FC
F03C
F03C
F87C
7FFC
3FF8
0FE0
ENDCHAR
STARTCHAR char63131
ENCODING 63131
SWIDTH 17 0
DWIDTH 16 0
BBX 14 25 1 -9
BITMAP
0FC0
3FF0
7FF8
F878
F03C
F03C
FF00
7FF0
3FF8
03FC
F03C
F03C
F87C
7FFC
3FF8
0FE0
0000
0000
0780
0780
0780
0180
0100
0700
0600
ENDCHAR
STARTCHAR char63133
ENCODING 63133
SWIDTH 14 0
DWIDTH 15 0
BBX 14 22 0 0
BITMAP
1C70
1EE0
0FC0
07C0
0000
0000
FFFC
FFFC
FFFC
0780
0780
0780
0780
0780
0780
0780
0780
0780
0780
0780
0780
0780
ENDCHAR
STARTCHAR char63134
ENCODING 63134
SWIDTH 14 0
DWIDTH 15 0
BBX 14 25 0 -9
BITMAP
FFFC
FFFC
FFFC
0780
0780
0780
0780
0780
0780
0780
0780
0780
0780
0780
0780
0780
0000
0000
0780
0780
0780
0180
0180
0300
0600
ENDCHAR
STARTCHAR char63135
ENCODING 63135
SWIDTH 24 0
DWIDTH 18 0
BBX 14 22 2 0
BITMAP
3870
1FE0
1FE0
0780
0000
0000
F03C
F03C
F03C
F03C
F03C
F03C
F03C
F03C
F03C
F03C
F03C
F83C
7CFC
7FF8
3FF0
0FC0
ENDCHAR
STARTCHAR char63136
ENCODING 63136
SWIDTH 24 0
DWIDTH 18 0
BBX 14 22 2 0
BITMAP
071C
0F38
0E38
1C70
1860
0000
F03C
F03C
F03C
F03C
F03C
F03C
F03C
F03C
F03C
F03C
F03C
F83C
7CFC
7FF8
3FF0
0FC0
ENDCHAR
STARTCHAR char63137
ENCODING 63137
SWIDTH 24 0
DWIDTH 18 0
BBX 14 21 2 0
BITMAP
1FE0
1FE0
0000
0000
0000
F03C
F03C
F03C
F03C
F03C
F03C
F03C
F03C
F03C
F03C
F03C
F83C
7CFC
7FF8
3FF0
0FC0
ENDCHAR
STARTCHAR char63138
ENCODING 63138
SWIDTH 24 0
DWIDTH 18 0
BBX 14 23 2 -7
BITMAP
F03C
F03C
F03C
F03C
F03C
F03C
F03C
F03C
F03C
F03C
F03C
F83C
7CFC
7FF8
3FF0
0FC0
0180
0300
0700
0700
07F0
03F0
00F0
ENDCHAR
STARTCHAR char63139
ENCODING 63139
SWIDTH 24 0
DWIDTH 18 0
BBX 14 23 2 0
BITMAP
0780
0FC0
0CC0
0CC0
0FC0
0780
0000
F03C
F03C
F03C
F03C
F03C
F03C
F03C
F03C
F03C
F03C
F03C
F83C
7CFC
7FF8
3FF0
0FC0
ENDCHAR
STARTCHAR char63140
ENCODING 63140
SWIDTH 24 0
DWIDTH 18 0
BBX 14 22 2 0
BITMAP
1E30
3FF0
33F0
3000
0000
0000
F03C
F03C
F03C
F03C
F03C
F03C
F03C
F03C
F03C
F03C
F03C
F83C
7CFC
7FF8
3FF0
0FC0
ENDCHAR
STARTCHAR char63141
ENCODING 63141
SWIDTH 8 0
DWIDTH 23 0
BBX 21 22 1 0
BITMAP
001E00
003E00
003C00
003800
007000
000000
F07878
F0F878
F8F878
78F8F8
78FCF0
79FCF0
39DCF0
3DDCE0
3DDFE0
1FCFE0
1F8FC0
1F8FC0
1F8FC0
0F8780
0F0780
0F0780
ENDCHAR
STARTCHAR char63142
ENCODING 63142
SWIDTH 8 0
DWIDTH 23 0
BBX 21 22 1 0
BITMAP
00F800
00FC00
01DC00
038E00
000000
000000
F07878
F0F878
F8F878
78F8F8
78FCF0
79FCF0
39DCF0
3DDCE0
3DDFE0
1FCFE0
1F8FC0
1F8FC0
1F8FC0
0F8780
0F0780
0F0780
ENDCHAR
STARTCHAR char63143
ENCODING 63143
SWIDTH 8 0
DWIDTH 23 0
BBX 21 22 1 0
BITMAP
03CE00
03CE00
03CE00
000000
000000
000000
F07878
F0F878
F8F878
78F8F8
78FCF0
79FCF0
39DCF0
3DDCE0
3DDFE0
1FCFE0
1F8FC0
1F8FC0
1F8FC0
0F8780
0F0780
0F0780
ENDCHAR
STARTCHAR char63144
ENCODING 63144
SWIDTH 8 0
DWIDTH 23 0
BBX 21 22 1 0
BITMAP
03C000
01E000
01E000
00F000
007000
000000
F07878
F0F878
F8F878
78F8F8
78FCF0
79FCF0
39DCF0
3DDCE0
3DDFE0
1FCFE0
1F8FC0
1F8FC0
1F8FC0
0F8780
0F0780
0F0780
ENDCHAR
STARTCHAR char63145
ENCODING 63145
SWIDTH 21 0
DWIDTH 17 0
BBX 15 22 1 0
BITMAP
07C0
07E0
0EE0
1C70
0000
0000
F83E
783C
7C7C
3C78
3EF8
1EF0
0FF0
0FE0
07E0
07C0
03C0
03C0
03C0
03C0
03C0
03C0
ENDCHAR
STARTCHAR char63146
ENCODING 63146
SWIDTH 21 0
DWIDTH 17 0
BBX 15 22 1 0
BITMAP
1E00
0F00
0700
0780
0380
0000
F83E
783C
7C7C
3C78
3EF8
1EF0
0FF0
0FE0
07E0
07C0
03C0
03C0
03C0
03C0
03C0
03C0
ENDCHAR
STARTCHAR char63147
ENCODING 63147
SWIDTH 14 0
DWIDTH 15 0
BBX 13 22 1 0
BITMAP
01E0
03C0
0380
0780
0700
0000
FFF8
FFF8
FFF8
00F8
01F0
03E0
07C0
0F80
1F00
1E00
3E00
7C00
F800
FFF8
FFF8
FFF8
ENDCHAR
STARTCHAR char63148
ENCODING 63148
SWIDTH 14 0
DWIDTH 15 0
BBX 13 22 1 0
BITMAP
0F00
0F00
0F00
0F00
0000
0000
FFF8
FFF8
FFF8
00F8
01F0
03E0
07C0
0F80
1F00
1E00
3E00
7C00
F800
FFF8
FFF8
FFF8
ENDCHAR
STARTCHAR char63149
ENCODING 63149
SWIDTH 24 0
DWIDTH 8 0
BBX 4 22 2 0
BITMAP
F0
F0
F0
F0
00
00
F0
F0
F0
F0
F0
F0
F0
F0
F0
F0
F0
F0
F0
F0
F0
F0
ENDCHAR
STARTCHAR char63166
ENCODING 63166
SWIDTH 24 0
DWIDTH 8 0
BBX 6 22 0 -6
BITMAP
3C
3C
3C
3C
3C
3C
3C
3C
3C
3C
3C
3C
3C
3C
3C
3C
3C
3C
3C
FC
FC
F8
ENDCHAR
STARTCHAR char63196
ENCODING 63196
SWIDTH 8 0
DWIDTH 13 0
BBX 9 21 2 0
BITMAP
0380
0780
0780
1F80
FF80
FF80
FF80
0780
0780
0780
0780
0780
0780
0780
0780
0780
0780
0780
0780
0780
0780
ENDCHAR
STARTCHAR char63198
ENCODING 63198
SWIDTH 5 0
DWIDTH 22 0
BBX 22 3 0 6
BITMAP
FFFFFC
FFFFFC
FFFFFC
ENDCHAR
STARTCHAR char63268
ENCODING 63268
SWIDTH 30 0
DWIDTH 20 0
BBX 18 26 1 -2
BITMAP
036000
036000
07F000
1FFC00
3FFE00
7FFF00
7B6F00
FB6F80
FB6780
FB6000
7F6000
7FE000
3FFE00
1FFF00
03FF80
036F80
0367C0
F367C0
FB6780
FB6780
7FFF80
3FFF00
1FFE00
07F800
036000
036000
ENDCHAR
STARTCHAR char63280
ENCODING 63280
SWIDTH 24 0
DWIDTH 18 0
BBX 14 17 2 0
BITMAP
1FE0
7FF0
7FF8
F87C
F03C
F03C
F03C
F03C
F03C
F03C
F03C
F03C
F07C
FFF8
7FF8
3FF0
1FE0
ENDCHAR
STARTCHAR char63281
ENCODING 63281
SWIDTH 8 0
DWIDTH 13 0
BBX 9 16 2 0
BITMAP
0380
0780
0780
1F80
FF80
FF80
FF80
0780
0780
0780
0780
0780
0780
0780
0780
0780
ENDCHAR
STARTCHAR char63282
ENCODING 63282
SWIDTH 24 0
DWIDTH 18 0
BBX 14 16 2 0
BITMAP
1FE0
7FF0
7FF8
FCFC
F03C
F03C
003C
00F8
01F0
0FE0
1F80
7E00
7FFC
FFFC
FFFC
FFFC
ENDCHAR
STARTCHAR char63283
ENCODING 63283
SWIDTH 24 0
DWIDTH 18 0
BBX 14 21 2 -5
BITMAP
1FC0
3FF0
7FF8
F8F8
F078
F078
0078
00F8
07F0
07E0
07F8
00F8
007C
003C
F03C
F03C
F07C
FFF8
7FF8
3FF0
0FC0
ENDCHAR
STARTCHAR char63284
ENCODING 63284
SWIDTH 24 0
DWIDTH 18 0
BBX 14 21 2 -5
BITMAP
01F0
03F0
03F0
07F0
07F0
0EF0
1CF0
1CF0
38F0
38F0
70F0
E0F0
E0F0
FFFC
FFFC
FFFC
00F0
00F0
00F0
00F0
00F0
ENDCHAR
STARTCHAR char63285
ENCODING 63285
SWIDTH 24 0
DWIDTH 18 0
BBX 14 21 2 -5
BITMAP
3FF8
3FF8
3FF8
3FF8
7800
7000
7000
77E0
7FF0
7FF8
7878
F07C
003C
003C
003C
F03C
F07C
FFF8
7FF8
3FF0
0FC0
ENDCHAR
STARTCHAR char63286
ENCODING 63286
SWIDTH 24 0
DWIDTH 18 0
BBX 14 21 2 0
BITMAP
07C0
1FF0
3FF8
7CF8
783C
F000
F000
F3E0
FFF0
FFF8
FCF8
F03C
F03C
F03C
F03C
F03C
F87C
7FF8
7FF8
3FF0
0FC0
ENDCHAR
ENDFONT
